SplineFontDB: 3.0
FontName: Unna-Bold
FullName: Unna-Bold
FamilyName: Unna
Weight: Bold
Copyright: Copyright (c) 2011-2014, Omnibus-Type (www.omnibus-type.com omnibus.type@gmail.com) with Reserved Font Name 'Unna'

StartChar: .notdef
Encoding: 65536 -1 0
Width: 1024
Flags: MW
HStem: 0 102<164 860 164 1024> 1331 102<164 860 164 164>
VStem: 0 102<195 1239 195 1434> 922 102<195 1239 1239 1239>
LayerCount: 2
UndoRedoHistory
Layer: 1
Undoes
EndUndoes
Redoes
EndRedoes
EndUndoRedoHistory
Fore
SplineSet
0 0 m 1,0,-1
 0 1434 l 1,1,-1
 1024 1434 l 1,2,-1
 1024 0 l 1,3,-1
 0 0 l 1,0,-1
512 809 m 1,4,-1
 860 1331 l 1,5,-1
 164 1331 l 1,6,-1
 512 809 l 1,4,-1
573 717 m 1,7,-1
 922 195 l 1,8,-1
 922 1239 l 1,9,-1
 573 717 l 1,7,-1
164 102 m 1,10,-1
 860 102 l 1,11,-1
 512 625 l 1,12,-1
 164 102 l 1,10,-1
102 1239 m 1,13,-1
 102 195 l 1,14,-1
 451 717 l 1,15,-1
 102 1239 l 1,13,-1
EndSplineSet
EndChar

StartChar: A
Encoding: 65 65 1
Width: 1255
Flags: MW
HStem: 0 72<18 27 27 40 18 330 -41 27 1235 1245> 381 72<319 713 319 741 291 713> 1202 41G<578 678 678 678>
VStem: -41 371<0 76 0 76>
LayerCount: 2
UndoRedoHistory
Layer: 1
Undoes
EndUndoes
Redoes
EndRedoes
EndUndoRedoHistory
Fore
SplineSet
1296 76 m 1,0,-1
 1296 0 l 1,1,-1
 682 0 l 1,2,-1
 682 76 l 1,3,-1
 776 72 l 1,4,5
 834.273584906 67.9811320755 834.273584906 67.9811320755 837.5 111 c 0,6,7
 840.146718147 146.28957529 840.146718147 146.28957529 817 201 c 2,8,-1
 741 381 l 1,9,-1
 291 381 l 1,10,-1
 221 213 l 2,11,12
 193 148 193 148 193 111 c 0,13,14
 193 67 193 67 238 70 c 2,15,-1
 330 76 l 1,16,-1
 330 0 l 1,17,-1
 -41 0 l 1,18,-1
 -41 76 l 1,19,-1
 18 72 l 1,20,-1
 27 72 l 2,21,22
 68 72 68 72 99 118 c 128,-1,23
 130 164 130 164 156 229 c 2,24,-1
 578 1243 l 1,25,-1
 678 1243 l 1,26,-1
 1104 225 l 1,27,28
 1130 158 1130 158 1160 115 c 128,-1,29
 1190 72 1190 72 1235 72 c 2,30,-1
 1245 72 l 1,31,-1
 1296 76 l 1,0,-1
713 453 m 1,32,-1
 514 924 l 1,33,-1
 319 453 l 1,34,-1
 713 453 l 1,32,-1
EndSplineSet
Substitution2: "Single Substitution lookup 17 subtable" ordfeminine
Substitution2: "'aalt' Access All Alternates lookup 0 subtable" ordfeminine
Position2: "'cpsp' Capital Spacing lookup 0 per glyph data 2" dx=10 dy=0 dh=20 dv=0
EndChar

StartChar: Aacute
Encoding: 193 193 2
Width: 1255
Flags: MW
HStem: 0 72<18 27 27 40 18 330 -41 27 1235 1245> 381 72<319 713 319 741 291 713> 1202 41G<578 678 678 678>
VStem: -41 371<0 76 0 76>
LayerCount: 2
UndoRedoHistory
Layer: 1
Undoes
EndUndoes
Redoes
EndRedoes
EndUndoRedoHistory
Fore
SplineSet
725 1640 m 2,0,1
 735 1650 735 1650 741 1657.5 c 128,-1,2
 747 1665 747 1665 752.5 1670.5 c 0,3,4
 766.5 1684.5 766.5 1684.5 771.75 1686.25 c 128,-1,5
 777 1688 777 1688 781 1689.5 c 0,6,7
 787.666666667 1692 787.666666667 1692 811.833333333 1692 c 128,-1,8
 836 1692 836 1692 887 1664.5 c 128,-1,9
 938 1637 938 1637 938 1618 c 128,-1,10
 938 1599 938 1599 911 1579 c 1,11,-1
 569 1370 l 1,12,13
 542 1352 542 1352 520 1352 c 128,-1,14
 498 1352 498 1352 498 1372 c 128,-1,15
 498 1392 498 1392 530 1427 c 2,16,-1
 725 1640 l 2,0,1
1296 0 m 1,17,-1
 682 0 l 1,18,-1
 682 76 l 1,19,-1
 776 72 l 1,20,21
 834.273584906 67.9811320755 834.273584906 67.9811320755 837.5 111 c 0,22,23
 840.146718147 146.28957529 840.146718147 146.28957529 817 201 c 2,24,-1
 741 381 l 1,25,-1
 291 381 l 1,26,-1
 221 213 l 2,27,28
 193 148 193 148 193 111 c 0,29,30
 193 67 193 67 238 70 c 2,31,-1
 330 76 l 1,32,-1
 330 0 l 1,33,-1
 -41 0 l 1,34,-1
 -41 76 l 1,35,-1
 18 72 l 1,36,-1
 27 72 l 2,37,38
 68 72 68 72 99 118 c 128,-1,39
 130 164 130 164 156 229 c 2,40,-1
 578 1243 l 1,41,-1
 678 1243 l 1,42,-1
 1104 225 l 1,43,44
 1130 158 1130 158 1160 115 c 128,-1,45
 1190 72 1190 72 1235 72 c 2,46,-1
 1245 72 l 1,47,-1
 1296 76 l 1,48,-1
 1296 0 l 1,17,-1
514 924 m 1,49,-1
 319 453 l 1,50,-1
 713 453 l 1,51,-1
 514 924 l 1,49,-1
EndSplineSet
Position2: "'cpsp' Capital Spacing lookup 0 per glyph data 2" dx=10 dy=0 dh=20 dv=0
EndChar

StartChar: Abreve
Encoding: 258 258 3
Width: 1255
Flags: MW
HStem: 0 72<18 27 27 40 18 330 -41 27 1235 1245> 381 72<319 713 319 741 291 713> 1202 41G<578 678 678 678> 1350 133<571 688 571 714>
VStem: -41 371<0 76 0 76>
LayerCount: 2
UndoRedoHistory
Layer: 1
Undoes
EndUndoes
Redoes
EndRedoes
EndUndoRedoHistory
Fore
SplineSet
909 1618 m 1,0,1
 906 1498 906 1498 830 1424 c 128,-1,2
 754 1350 754 1350 631 1350 c 128,-1,3
 508 1350 508 1350 432.5 1424 c 128,-1,4
 357 1498 357 1498 354 1618 c 1,5,-1
 449 1618 l 1,6,7
 482 1483 482 1483 631 1483 c 0,8,9
 710 1483 710 1483 755.5 1522 c 128,-1,10
 801 1561 801 1561 817 1618 c 1,11,-1
 909 1618 l 1,0,1
1296 0 m 1,12,-1
 682 0 l 1,13,-1
 682 76 l 1,14,-1
 776 72 l 1,15,16
 834.273584906 67.9811320755 834.273584906 67.9811320755 837.5 111 c 0,17,18
 840.146718147 146.28957529 840.146718147 146.28957529 817 201 c 2,19,-1
 741 381 l 1,20,-1
 291 381 l 1,21,-1
 221 213 l 2,22,23
 193 148 193 148 193 111 c 0,24,25
 193 67 193 67 238 70 c 2,26,-1
 330 76 l 1,27,-1
 330 0 l 1,28,-1
 -41 0 l 1,29,-1
 -41 76 l 1,30,-1
 18 72 l 1,31,-1
 27 72 l 2,32,33
 68 72 68 72 99 118 c 128,-1,34
 130 164 130 164 156 229 c 2,35,-1
 578 1243 l 1,36,-1
 678 1243 l 1,37,-1
 1104 225 l 1,38,39
 1130 158 1130 158 1160 115 c 128,-1,40
 1190 72 1190 72 1235 72 c 2,41,-1
 1245 72 l 1,42,-1
 1296 76 l 1,43,-1
 1296 0 l 1,12,-1
514 924 m 1,44,-1
 319 453 l 1,45,-1
 713 453 l 1,46,-1
 514 924 l 1,44,-1
EndSplineSet
EndChar

StartChar: Acircumflex
Encoding: 194 194 4
Width: 1255
Flags: MW
HStem: 0 72<18 27 27 40 18 330 -41 27 1235 1245> 381 72<319 713 319 741 291 713> 1202 41G<578 678 678 678> 1524 123<565 633>
VStem: -41 371<0 76 0 76>
LayerCount: 2
UndoRedoHistory
Layer: 1
Undoes
EndUndoes
Redoes
EndRedoes
EndUndoRedoHistory
Fore
SplineSet
797 1548 m 1,0,1
 830 1511 830 1511 872 1470 c 0,2,3
 952 1391.9047619 952 1391.9047619 952 1377.95238095 c 128,-1,4
 952 1364 952 1364 926 1364 c 128,-1,5
 900 1364 900 1364 860 1389 c 1,6,-1
 633 1524 l 1,7,-1
 403 1389 l 1,8,9
 363 1364 363 1364 338 1364 c 128,-1,10
 313 1364 313 1364 313 1380 c 0,11,12
 313 1390.92857143 313 1390.92857143 374.5 1450.96428571 c 128,-1,13
 436 1511 436 1511 469 1548 c 1,14,-1
 565 1647 l 1,15,16
 598 1683 598 1683 631 1683 c 128,-1,17
 664 1683 664 1683 700 1647 c 2,18,-1
 797 1548 l 1,0,1
1296 0 m 1,19,-1
 682 0 l 1,20,-1
 682 76 l 1,21,-1
 776 72 l 1,22,23
 834.273584906 67.9811320755 834.273584906 67.9811320755 837.5 111 c 0,24,25
 840.146718147 146.28957529 840.146718147 146.28957529 817 201 c 2,26,-1
 741 381 l 1,27,-1
 291 381 l 1,28,-1
 221 213 l 2,29,30
 193 148 193 148 193 111 c 0,31,32
 193 67 193 67 238 70 c 2,33,-1
 330 76 l 1,34,-1
 330 0 l 1,35,-1
 -41 0 l 1,36,-1
 -41 76 l 1,37,-1
 18 72 l 1,38,-1
 27 72 l 2,39,40
 68 72 68 72 99 118 c 128,-1,41
 130 164 130 164 156 229 c 2,42,-1
 578 1243 l 1,43,-1
 678 1243 l 1,44,-1
 1104 225 l 1,45,46
 1130 158 1130 158 1160 115 c 128,-1,47
 1190 72 1190 72 1235 72 c 2,48,-1
 1245 72 l 1,49,-1
 1296 76 l 1,50,-1
 1296 0 l 1,19,-1
514 924 m 1,51,-1
 319 453 l 1,52,-1
 713 453 l 1,53,-1
 514 924 l 1,51,-1
EndSplineSet
Position2: "'cpsp' Capital Spacing lookup 0 per glyph data 2" dx=10 dy=0 dh=20 dv=0
EndChar

StartChar: Adieresis
Encoding: 196 196 5
Width: 1255
Flags: MW
HStem: 0 72<18 27 27 40 18 330 -41 27 1235 1245> 381 72<319 713 319 741 291 713> 1202 41G<578 678 678 678> 1395 258<370 461 370 462 800 891>
VStem: -41 371<0 76 0 76> 258 315<1484 1563> 688 315<1484 1563>
LayerCount: 2
UndoRedoHistory
Layer: 1
Undoes
EndUndoes
Redoes
EndRedoes
EndUndoRedoHistory
Fore
SplineSet
302 1430 m 128,-1,1
 258 1465 258 1465 258 1523.5 c 128,-1,2
 258 1582 258 1582 302 1617.5 c 128,-1,3
 346 1653 346 1653 415 1653 c 128,-1,4
 484 1653 484 1653 528.5 1617.5 c 128,-1,5
 573 1582 573 1582 573 1523.5 c 128,-1,6
 573 1465 573 1465 529.5 1430 c 128,-1,7
 486 1395 486 1395 416 1395 c 128,-1,0
 346 1395 346 1395 302 1430 c 128,-1,1
732 1430 m 128,-1,9
 688 1465 688 1465 688 1523.5 c 128,-1,10
 688 1582 688 1582 732 1617.5 c 128,-1,11
 776 1653 776 1653 845 1653 c 128,-1,12
 914 1653 914 1653 959 1617.5 c 128,-1,13
 1004 1582 1004 1582 1004 1523.5 c 128,-1,14
 1004 1465 1004 1465 960 1430 c 128,-1,15
 916 1395 916 1395 846 1395 c 128,-1,8
 776 1395 776 1395 732 1430 c 128,-1,9
1296 0 m 1,16,-1
 682 0 l 1,17,-1
 682 76 l 1,18,-1
 776 72 l 1,19,20
 834.273584906 67.9811320755 834.273584906 67.9811320755 837.5 111 c 0,21,22
 840.146718147 146.28957529 840.146718147 146.28957529 817 201 c 2,23,-1
 741 381 l 1,24,-1
 291 381 l 1,25,-1
 221 213 l 2,26,27
 193 148 193 148 193 111 c 0,28,29
 193 67 193 67 238 70 c 2,30,-1
 330 76 l 1,31,-1
 330 0 l 1,32,-1
 -41 0 l 1,33,-1
 -41 76 l 1,34,-1
 18 72 l 1,35,-1
 27 72 l 2,36,37
 68 72 68 72 99 118 c 128,-1,38
 130 164 130 164 156 229 c 2,39,-1
 578 1243 l 1,40,-1
 678 1243 l 1,41,-1
 1104 225 l 1,42,43
 1130 158 1130 158 1160 115 c 128,-1,44
 1190 72 1190 72 1235 72 c 2,45,-1
 1245 72 l 1,46,-1
 1296 76 l 1,47,-1
 1296 0 l 1,16,-1
514 924 m 1,48,-1
 319 453 l 1,49,-1
 713 453 l 1,50,-1
 514 924 l 1,48,-1
EndSplineSet
Position2: "'cpsp' Capital Spacing lookup 0 per glyph data 2" dx=10 dy=0 dh=20 dv=0
EndChar

StartChar: Agrave
Encoding: 192 192 6
Width: 1255
Flags: MW
HStem: 0 72<18 27 27 40 18 330 -41 27 1235 1245> 381 72<319 713 319 741 291 713> 1202 41G<578 678 678 678>
VStem: -41 371<0 76 0 76>
LayerCount: 2
UndoRedoHistory
Layer: 1
Undoes
EndUndoes
Redoes
EndRedoes
EndUndoRedoHistory
Fore
SplineSet
543 1640 m 2,0,1
 533 1650 533 1650 527 1657.5 c 128,-1,2
 521 1665 521 1665 515.5 1670.5 c 0,3,4
 501.5 1684.5 501.5 1684.5 496.25 1686.25 c 128,-1,5
 491 1688 491 1688 487 1689.5 c 0,6,7
 480.333333333 1692 480.333333333 1692 456.166666667 1692 c 128,-1,8
 432 1692 432 1692 381 1664.5 c 128,-1,9
 330 1637 330 1637 330 1617.5 c 128,-1,10
 330 1598 330 1598 356 1579 c 1,11,-1
 698 1370 l 1,12,13
 725 1352 725 1352 747.5 1352 c 128,-1,14
 770 1352 770 1352 770 1371.5 c 128,-1,15
 770 1391 770 1391 737 1427 c 2,16,-1
 543 1640 l 2,0,1
1296 0 m 1,17,-1
 682 0 l 1,18,-1
 682 76 l 1,19,-1
 776 72 l 1,20,21
 834.273584906 67.9811320755 834.273584906 67.9811320755 837.5 111 c 0,22,23
 840.146718147 146.28957529 840.146718147 146.28957529 817 201 c 2,24,-1
 741 381 l 1,25,-1
 291 381 l 1,26,-1
 221 213 l 2,27,28
 193 148 193 148 193 111 c 0,29,30
 193 67 193 67 238 70 c 2,31,-1
 330 76 l 1,32,-1
 330 0 l 1,33,-1
 -41 0 l 1,34,-1
 -41 76 l 1,35,-1
 18 72 l 1,36,-1
 27 72 l 2,37,38
 68 72 68 72 99 118 c 128,-1,39
 130 164 130 164 156 229 c 2,40,-1
 578 1243 l 1,41,-1
 678 1243 l 1,42,-1
 1104 225 l 1,43,44
 1130 158 1130 158 1160 115 c 128,-1,45
 1190 72 1190 72 1235 72 c 2,46,-1
 1245 72 l 1,47,-1
 1296 76 l 1,48,-1
 1296 0 l 1,17,-1
514 924 m 1,49,-1
 319 453 l 1,50,-1
 713 453 l 1,51,-1
 514 924 l 1,49,-1
EndSplineSet
Position2: "'cpsp' Capital Spacing lookup 0 per glyph data 2" dx=10 dy=0 dh=20 dv=0
EndChar

StartChar: Amacron
Encoding: 256 256 7
Width: 1255
Flags: MW
HStem: 0 72<18 27 27 40 18 330 -41 27 1235 1245> 381 72<319 713 319 741 291 713> 1202 41G<578 678 678 678> 1432 96<387 877 387 877>
VStem: -41 371<0 76 0 76> 387 489<1432 1528 1432 1528>
LayerCount: 2
UndoRedoHistory
Layer: 1
Undoes
EndUndoes
Redoes
EndRedoes
EndUndoRedoHistory
Fore
SplineSet
387 1528 m 1,0,-1
 877 1528 l 1,1,-1
 877 1432 l 1,2,-1
 387 1432 l 1,3,-1
 387 1528 l 1,0,-1
1296 0 m 1,4,-1
 682 0 l 1,5,-1
 682 76 l 1,6,-1
 776 72 l 1,7,8
 834.273584906 67.9811320755 834.273584906 67.9811320755 837.5 111 c 0,9,10
 840.146718147 146.28957529 840.146718147 146.28957529 817 201 c 2,11,-1
 741 381 l 1,12,-1
 291 381 l 1,13,-1
 221 213 l 2,14,15
 193 148 193 148 193 111 c 0,16,17
 193 67 193 67 238 70 c 2,18,-1
 330 76 l 1,19,-1
 330 0 l 1,20,-1
 -41 0 l 1,21,-1
 -41 76 l 1,22,-1
 18 72 l 1,23,-1
 27 72 l 2,24,25
 68 72 68 72 99 118 c 128,-1,26
 130 164 130 164 156 229 c 2,27,-1
 578 1243 l 1,28,-1
 678 1243 l 1,29,-1
 1104 225 l 1,30,31
 1130 158 1130 158 1160 115 c 128,-1,32
 1190 72 1190 72 1235 72 c 2,33,-1
 1245 72 l 1,34,-1
 1296 76 l 1,35,-1
 1296 0 l 1,4,-1
514 924 m 1,36,-1
 319 453 l 1,37,-1
 713 453 l 1,38,-1
 514 924 l 1,36,-1
EndSplineSet
EndChar

StartChar: Aogonek
Encoding: 260 260 8
Width: 1255
Flags: MW
HStem: -326 119<1144 1150> 0 72<18 27 27 40 18 330 -41 27 1235 1245> 381 72<319 713 319 741 291 713> 1202 41G<578 678 678 678>
VStem: -41 371<0 76 0 76> 940 137<-227 -91>
LayerCount: 2
UndoRedoHistory
Layer: 1
Undoes
EndUndoes
Redoes
EndRedoes
EndUndoRedoHistory
Fore
SplineSet
1348 -203 m 1,0,1
 1241 -326 1241 -326 1106 -326 c 0,2,3
 1038 -326 1038 -326 989 -287 c 128,-1,4
 940 -248 940 -248 940 -178 c 0,5,6
 940 -70 940 -70 1042 0 c 1,7,-1
 682 0 l 1,8,-1
 682 76 l 1,9,-1
 776 72 l 1,10,11
 834.273584906 67.9811320755 834.273584906 67.9811320755 837.5 111 c 0,12,13
 840.146718147 146.28957529 840.146718147 146.28957529 817 201 c 2,14,-1
 741 381 l 1,15,-1
 291 381 l 1,16,-1
 221 213 l 2,17,18
 193 148 193 148 193 111 c 0,19,20
 193 67 193 67 238 70 c 2,21,-1
 330 76 l 1,22,-1
 330 0 l 1,23,-1
 -41 0 l 1,24,-1
 -41 76 l 1,25,-1
 18 72 l 1,26,-1
 27 72 l 2,27,28
 68 72 68 72 99 118 c 128,-1,29
 130 164 130 164 156 229 c 2,30,-1
 578 1243 l 1,31,-1
 678 1243 l 1,32,-1
 1104 225 l 1,33,34
 1130 158 1130 158 1160 115 c 128,-1,35
 1190 72 1190 72 1235 72 c 2,36,-1
 1245 72 l 1,37,-1
 1296 76 l 1,38,-1
 1296 0 l 1,39,-1
 1124 0 l 1,40,41
 1077 -44 1077 -44 1077 -99 c 0,42,43
 1077 -207 1077 -207 1180 -207 c 0,44,45
 1251 -207 1251 -207 1323 -164 c 1,46,-1
 1348 -203 l 1,0,1
713 453 m 1,47,-1
 514 924 l 1,48,-1
 319 453 l 1,49,-1
 713 453 l 1,47,-1
EndSplineSet
EndChar

StartChar: Aring
Encoding: 197 197 9
Width: 1255
Flags: MW
HStem: 0 72<18 27 27 40 18 330 -41 27 1235 1245> 381 72<319 713 319 741 291 713> 1202 41G<578 678 678 678> 1362 84<607 654 607 683> 1616 86<607 654>
VStem: -41 371<0 76 0 76> 453 102<1505 1558 1505 1580> 709 102<1505 1558>
LayerCount: 2
UndoRedoHistory
Layer: 1
Undoes
EndUndoes
Redoes
EndRedoes
EndUndoRedoHistory
Fore
SplineSet
503.5 1410.5 m 128,-1,1
 453 1459 453 1459 453 1531.5 c 128,-1,2
 453 1604 453 1604 504.5 1653 c 128,-1,3
 556 1702 556 1702 632.5 1702 c 128,-1,4
 709 1702 709 1702 760 1654 c 128,-1,5
 811 1606 811 1606 811 1532 c 128,-1,6
 811 1458 811 1458 760 1410 c 128,-1,7
 709 1362 709 1362 631.5 1362 c 128,-1,0
 554 1362 554 1362 503.5 1410.5 c 128,-1,1
575.5 1593 m 128,-1,9
 555 1570 555 1570 555 1531 c 128,-1,10
 555 1492 555 1492 575.5 1469 c 128,-1,11
 596 1446 596 1446 631 1446 c 128,-1,12
 666 1446 666 1446 687.5 1469 c 128,-1,13
 709 1492 709 1492 709 1531 c 128,-1,14
 709 1570 709 1570 687.5 1593 c 128,-1,15
 666 1616 666 1616 631 1616 c 128,-1,8
 596 1616 596 1616 575.5 1593 c 128,-1,9
1296 0 m 1,16,-1
 682 0 l 1,17,-1
 682 76 l 1,18,-1
 776 72 l 1,19,20
 834.273584906 67.9811320755 834.273584906 67.9811320755 837.5 111 c 0,21,22
 840.146718147 146.28957529 840.146718147 146.28957529 817 201 c 2,23,-1
 741 381 l 1,24,-1
 291 381 l 1,25,-1
 221 213 l 2,26,27
 193 148 193 148 193 111 c 0,28,29
 193 67 193 67 238 70 c 2,30,-1
 330 76 l 1,31,-1
 330 0 l 1,32,-1
 -41 0 l 1,33,-1
 -41 76 l 1,34,-1
 18 72 l 1,35,-1
 27 72 l 2,36,37
 68 72 68 72 99 118 c 128,-1,38
 130 164 130 164 156 229 c 2,39,-1
 578 1243 l 1,40,-1
 678 1243 l 1,41,-1
 1104 225 l 1,42,43
 1130 158 1130 158 1160 115 c 128,-1,44
 1190 72 1190 72 1235 72 c 2,45,-1
 1245 72 l 1,46,-1
 1296 76 l 1,47,-1
 1296 0 l 1,16,-1
514 924 m 1,48,-1
 319 453 l 1,49,-1
 713 453 l 1,50,-1
 514 924 l 1,48,-1
EndSplineSet
Position2: "'cpsp' Capital Spacing lookup 0 per glyph data 2" dx=10 dy=0 dh=20 dv=0
EndChar

StartChar: Atilde
Encoding: 195 195 10
Width: 1255
Flags: MW
HStem: 0 72<18 27 27 40 18 330 -41 27 1235 1245> 381 72<319 713 319 741 291 713> 1202 41G<578 678 678 678> 1374 125<764 822 764 841> 1456 123<445 504>
VStem: -41 371<0 76 0 76> 340 57<1376 1401 1376 1435> 870 55<1553 1577>
LayerCount: 2
UndoRedoHistory
Layer: 1
Undoes
EndUndoes
Redoes
EndRedoes
EndUndoRedoHistory
Fore
SplineSet
340 1376 m 1,0,1
 340 1468 340 1468 373 1523.5 c 128,-1,2
 406 1579 406 1579 464 1579 c 128,-1,3
 522 1579 522 1579 644 1539 c 128,-1,4
 766 1499 766 1499 799 1499 c 128,-1,5
 832 1499 832 1499 851 1520.5 c 128,-1,6
 870 1542 870 1542 870 1577 c 1,7,-1
 926 1577 l 1,8,9
 926 1484 926 1484 893.5 1429 c 128,-1,10
 861 1374 861 1374 801.5 1374 c 128,-1,11
 742 1374 742 1374 621.5 1415 c 128,-1,12
 501 1456 501 1456 468 1456 c 128,-1,13
 435 1456 435 1456 416 1434 c 128,-1,14
 397 1412 397 1412 397 1376 c 1,15,-1
 340 1376 l 1,0,1
1296 0 m 1,16,-1
 682 0 l 1,17,-1
 682 76 l 1,18,-1
 776 72 l 1,19,20
 834.273584906 67.9811320755 834.273584906 67.9811320755 837.5 111 c 0,21,22
 840.146718147 146.28957529 840.146718147 146.28957529 817 201 c 2,23,-1
 741 381 l 1,24,-1
 291 381 l 1,25,-1
 221 213 l 2,26,27
 193 148 193 148 193 111 c 0,28,29
 193 67 193 67 238 70 c 2,30,-1
 330 76 l 1,31,-1
 330 0 l 1,32,-1
 -41 0 l 1,33,-1
 -41 76 l 1,34,-1
 18 72 l 1,35,-1
 27 72 l 2,36,37
 68 72 68 72 99 118 c 128,-1,38
 130 164 130 164 156 229 c 2,39,-1
 578 1243 l 1,40,-1
 678 1243 l 1,41,-1
 1104 225 l 1,42,43
 1130 158 1130 158 1160 115 c 128,-1,44
 1190 72 1190 72 1235 72 c 2,45,-1
 1245 72 l 1,46,-1
 1296 76 l 1,47,-1
 1296 0 l 1,16,-1
514 924 m 1,48,-1
 319 453 l 1,49,-1
 713 453 l 1,50,-1
 514 924 l 1,48,-1
EndSplineSet
Position2: "'cpsp' Capital Spacing lookup 0 per glyph data 2" dx=10 dy=0 dh=20 dv=0
EndChar

StartChar: AE
Encoding: 198 198 11
Width: 1740
Flags: MW
HStem: 0 70<1202 1292 1292 1389> 381 72<387 799 387 813 342 799> 592 72<1065 1178 1178 1180 1065 1065> 831 41G<1333 1405 1405 1405> 907 315<1542 1544 563 1610 1542 1542> 1151 72<965 1251 965 965>
VStem: -41 381<0 78 0 78> 1333 72<810 872> 1542 68<907 992> 1581 70<259 350>
LayerCount: 2
UndoRedoHistory
Layer: 1
Undoes
EndUndoes
Redoes
EndRedoes
EndUndoRedoHistory
Fore
SplineSet
1610 907 m 1,0,-1
 1542 907 l 1,1,2
 1542 1034 1542 1034 1471 1092.5 c 128,-1,3
 1400 1151 1400 1151 1251 1151 c 2,4,-1
 965 1151 l 1,5,-1
 1053 664 l 1,6,-1
 1178 664 l 2,7,8
 1245 664 1245 664 1289 721.5 c 128,-1,9
 1333 779 1333 779 1333 872 c 1,10,-1
 1405 872 l 1,11,-1
 1405 391 l 1,12,-1
 1335 391 l 1,13,14
 1335 477 1335 477 1290.5 534.5 c 128,-1,15
 1246 592 1246 592 1180 592 c 2,16,-1
 1065 592 l 1,17,-1
 1159 109 l 1,18,19
 1169 70 1169 70 1202 70 c 2,20,-1
 1292 70 l 2,21,22
 1436 70 1436 70 1508.5 141.5 c 128,-1,23
 1581 213 1581 213 1581 350 c 1,24,-1
 1651 350 l 1,25,-1
 1651 -6 l 1,26,27
 1571 0 1571 0 1456 0 c 2,28,-1
 700 0 l 1,29,-1
 700 78 l 1,30,-1
 817 72 l 2,31,32
 842 71 842 71 854.5 87 c 128,-1,33
 867 103 867 103 862 123 c 1,34,-1
 813 381 l 1,35,-1
 342 381 l 1,36,-1
 223 180 l 1,37,38
 195 126 195 126 195 97.5 c 0,39,40
 195 69 195 69 236 72 c 2,41,-1
 340 78 l 1,42,-1
 340 0 l 1,43,-1
 -41 0 l 1,44,-1
 -41 78 l 1,45,-1
 23 72 l 1,46,47
 51 68 51 68 76.5 95 c 128,-1,48
 102 122 102 122 145 193 c 2,49,-1
 698 1098 l 2,50,51
 702 1104 702 1104 702 1115.5 c 0,52,53
 702 1127 702 1127 692 1137 c 128,-1,54
 682 1147 682 1147 668 1147 c 2,55,-1
 563 1143 l 1,56,-1
 563 1223 l 1,57,-1
 1526 1223 l 2,58,59
 1578 1223 1578 1223 1610 1227 c 1,60,-1
 1610 907 l 1,0,-1
387 453 m 1,61,-1
 799 453 l 1,62,-1
 702 969 l 1,63,-1
 387 453 l 1,61,-1
EndSplineSet
Position2: "'cpsp' Capital Spacing lookup 0 per glyph data 2" dx=10 dy=0 dh=20 dv=0
EndChar

StartChar: B
Encoding: 66 66 12
Width: 1189
Flags: MW
HStem: 0 74<522 623 623 686> 602 72<494 600 494 600 600 649> 1151 72<176 187 511 518 518 596>
VStem: 211 283<117 602 674 1110 1110 1119> 784 287<857 999> 848 291<246 423 221 430>
LayerCount: 2
UndoRedoHistory
Layer: 1
Undoes
EndUndoes
Redoes
EndRedoes
EndUndoRedoHistory
Fore
SplineSet
717 1223 m 2,0,1
 890 1223 890 1223 980.5 1149 c 128,-1,2
 1071 1075 1071 1075 1071 930 c 0,3,4
 1071 823 1071 823 994 748 c 128,-1,5
 917 673 917 673 788 649 c 1,6,7
 935 649 935 649 1037 558 c 128,-1,8
 1139 467 1139 467 1139 332 c 0,9,10
 1139 0 1139 0 686 0 c 2,11,-1
 80 0 l 1,12,-1
 80 76 l 1,13,-1
 178 72 l 1,14,15
 211 72 211 72 211 117 c 2,16,-1
 211 1110 l 2,17,18
 211 1125 211 1125 201.5 1138 c 128,-1,19
 192 1151 192 1151 176 1151 c 2,20,-1
 80 1147 l 1,21,-1
 80 1223 l 1,22,-1
 717 1223 l 2,0,1
518 1151 m 2,23,24
 497 1151 497 1151 494 1126 c 1,25,-1
 494 674 l 1,26,-1
 600 674 l 2,27,28
 694 674 694 674 739 732.5 c 128,-1,29
 784 791 784 791 784 920 c 0,30,31
 784 1151 784 1151 596 1151 c 2,32,-1
 518 1151 l 2,23,24
494 602 m 1,33,-1
 494 100 l 2,34,35
 494 74 494 74 522 74 c 2,36,-1
 623 74 l 2,37,38
 727 74 727 74 787.5 139.5 c 128,-1,39
 848 205 848 205 848 340 c 0,40,41
 848 602 848 602 649 602 c 2,42,-1
 494 602 l 1,33,-1
EndSplineSet
Position2: "'cpsp' Capital Spacing lookup 0 per glyph data 2" dx=10 dy=0 dh=20 dv=0
EndChar

StartChar: C
Encoding: 67 67 13
Width: 1220
Flags: MW
HStem: -20 72<625 780> 72 270<1085 1141 1141 1153> 887 268<1075 1141 1075 1075> 1178 66<615 810>
VStem: 61 309<426 791 426 806> 1075 66<887 887>
LayerCount: 2
UndoRedoHistory
Layer: 1
Undoes
EndUndoes
Redoes
EndRedoes
EndUndoRedoHistory
Fore
SplineSet
1141 72 m 2,0,1
 1091 72 1091 72 1016 49 c 0,2,3
 791 -20 791 -20 688 -20 c 0,4,5
 397 -20 397 -20 229 147 c 128,-1,6
 61 314 61 314 61 610 c 128,-1,7
 61 906 61 906 229.5 1074.5 c 128,-1,8
 398 1243 398 1243 698 1243 c 0,9,10
 845.058823529 1243 845.058823529 1243 946 1199 c 128,-1,11
 1046.94117647 1155 1046.94117647 1155 1141 1155 c 1,12,13
 1133 1092 1133 1092 1133 993.5 c 128,-1,14
 1133 895 1133 895 1141 887 c 1,15,-1
 1075 887 l 1,16,17
 1050 1008 1050 1008 950 1093 c 128,-1,18
 850 1178 850 1178 727 1178 c 0,19,20
 558 1178 558 1178 464.5 1029.5 c 128,-1,21
 371 881 371 881 371 611 c 128,-1,22
 371 341 371 341 469 196 c 128,-1,23
 567 51 567 51 735 51 c 0,24,25
 863 51 863 51 960.5 134 c 128,-1,26
 1058 217 1058 217 1085 342 c 1,27,-1
 1159 342 l 1,28,29
 1147 241 1147 241 1147 175.25 c 128,-1,30
 1147 109.5 1147 109.5 1153 72 c 1,31,-1
 1141 72 l 2,0,1
EndSplineSet
Position2: "'cpsp' Capital Spacing lookup 0 per glyph data 2" dx=10 dy=0 dh=20 dv=0
EndChar

StartChar: Cacute
Encoding: 262 262 14
Width: 1220
Flags: MW
HStem: -20 72<625 780> 72 270<1085 1141 1141 1153> 887 268<1075 1141 1075 1075> 1178 66<615 810>
VStem: 61 309<426 791 426 806> 1075 66<887 887>
LayerCount: 2
UndoRedoHistory
Layer: 1
Undoes
EndUndoes
Redoes
EndRedoes
EndUndoRedoHistory
Fore
SplineSet
762 1640 m 2,0,1
 772 1650 772 1650 778 1657.5 c 128,-1,2
 784 1665 784 1665 789.5 1670.5 c 0,3,4
 803.5 1684.5 803.5 1684.5 808.75 1686.25 c 128,-1,5
 814 1688 814 1688 818 1689.5 c 0,6,7
 824.666666667 1692 824.666666667 1692 848.833333333 1692 c 128,-1,8
 873 1692 873 1692 924 1664.5 c 128,-1,9
 975 1637 975 1637 975 1618 c 128,-1,10
 975 1599 975 1599 948 1579 c 1,11,-1
 606 1370 l 1,12,13
 579 1352 579 1352 557 1352 c 128,-1,14
 535 1352 535 1352 535 1372 c 128,-1,15
 535 1392 535 1392 567 1427 c 2,16,-1
 762 1640 l 2,0,1
1141 72 m 2,17,18
 1091 72 1091 72 1016 49 c 0,19,20
 791 -20 791 -20 688 -20 c 0,21,22
 397 -20 397 -20 229 147 c 128,-1,23
 61 314 61 314 61 610 c 128,-1,24
 61 906 61 906 229.5 1074.5 c 128,-1,25
 398 1243 398 1243 698 1243 c 0,26,27
 845.058823529 1243 845.058823529 1243 946 1199 c 128,-1,28
 1046.94117647 1155 1046.94117647 1155 1141 1155 c 1,29,30
 1133 1092 1133 1092 1133 993.5 c 128,-1,31
 1133 895 1133 895 1141 887 c 1,32,-1
 1075 887 l 1,33,34
 1050 1008 1050 1008 950 1093 c 128,-1,35
 850 1178 850 1178 727 1178 c 0,36,37
 558 1178 558 1178 464.5 1029.5 c 128,-1,38
 371 881 371 881 371 611 c 128,-1,39
 371 341 371 341 469 196 c 128,-1,40
 567 51 567 51 735 51 c 0,41,42
 863 51 863 51 960.5 134 c 128,-1,43
 1058 217 1058 217 1085 342 c 1,44,-1
 1159 342 l 1,45,46
 1147 241 1147 241 1147 175.25 c 128,-1,47
 1147 109.5 1147 109.5 1153 72 c 1,48,-1
 1141 72 l 2,17,18
EndSplineSet
EndChar

StartChar: Ccaron
Encoding: 268 268 15
Width: 1220
Flags: MW
HStem: -20 72<625 780> 72 270<1085 1141 1141 1153> 887 268<1075 1141 1075 1075> 1178 66<615 810> 1405 123<602 670 670 737>
VStem: 61 309<426 791 426 806> 1075 66<887 887>
LayerCount: 2
UndoRedoHistory
Layer: 1
Undoes
EndUndoes
Redoes
EndRedoes
EndUndoRedoHistory
Fore
SplineSet
506 1503 m 1,0,1
 473 1540 473 1540 431 1581 c 0,2,3
 350 1660.07142857 350 1660.07142857 350 1674.03571429 c 128,-1,4
 350 1688 350 1688 376 1688 c 128,-1,5
 402 1688 402 1688 442 1663 c 1,6,-1
 670 1528 l 1,7,-1
 899 1663 l 1,8,9
 939 1688 939 1688 964 1688 c 128,-1,10
 989 1688 989 1688 989 1671 c 0,11,12
 989 1659.0952381 989 1659.0952381 928 1599.54761905 c 128,-1,13
 867 1540 867 1540 834 1503 c 1,14,-1
 737 1405 l 1,15,16
 703 1368 703 1368 671 1368 c 128,-1,17
 639 1368 639 1368 602 1405 c 2,18,-1
 506 1503 l 1,0,1
1141 72 m 2,19,20
 1091 72 1091 72 1016 49 c 0,21,22
 791 -20 791 -20 688 -20 c 0,23,24
 397 -20 397 -20 229 147 c 128,-1,25
 61 314 61 314 61 610 c 128,-1,26
 61 906 61 906 229.5 1074.5 c 128,-1,27
 398 1243 398 1243 698 1243 c 0,28,29
 845.058823529 1243 845.058823529 1243 946 1199 c 128,-1,30
 1046.94117647 1155 1046.94117647 1155 1141 1155 c 1,31,32
 1133 1092 1133 1092 1133 993.5 c 128,-1,33
 1133 895 1133 895 1141 887 c 1,34,-1
 1075 887 l 1,35,36
 1050 1008 1050 1008 950 1093 c 128,-1,37
 850 1178 850 1178 727 1178 c 0,38,39
 558 1178 558 1178 464.5 1029.5 c 128,-1,40
 371 881 371 881 371 611 c 128,-1,41
 371 341 371 341 469 196 c 128,-1,42
 567 51 567 51 735 51 c 0,43,44
 863 51 863 51 960.5 134 c 128,-1,45
 1058 217 1058 217 1085 342 c 1,46,-1
 1159 342 l 1,47,48
 1147 241 1147 241 1147 175.25 c 128,-1,49
 1147 109.5 1147 109.5 1153 72 c 1,50,-1
 1141 72 l 2,19,20
EndSplineSet
EndChar

StartChar: Ccedilla
Encoding: 199 199 16
Width: 1220
Flags: MW
HStem: -438 72<564 677> -18 70<625 822> 72 270<1085 1141 1141 1153> 887 268<1075 1141 1075 1075> 1178 66<615 810>
VStem: 61 309<426 791 426 806> 543 121<-138 -128> 682 178<-297 -255> 1075 66<887 887>
LayerCount: 2
UndoRedoHistory
Layer: 1
Undoes
EndUndoes
Redoes
EndRedoes
EndUndoRedoHistory
Fore
SplineSet
1159 342 m 1,0,1
 1147 241 1147 241 1147 175.25 c 128,-1,2
 1147 109.5 1147 109.5 1153 72 c 1,3,-1
 1141 72 l 2,4,5
 1086 72 1086 72 943.5 27.5 c 128,-1,6
 801 -17 801 -17 709 -20 c 1,7,-1
 676 -74 l 2,8,9
 664 -95 664 -95 664 -112.5 c 128,-1,10
 664 -130 664 -130 694.5 -139 c 128,-1,11
 725 -148 725 -148 762 -153.5 c 128,-1,12
 799 -159 799 -159 829.5 -183 c 128,-1,13
 860 -207 860 -207 860 -259.5 c 128,-1,14
 860 -312 860 -312 822.5 -356 c 0,15,16
 752.613636364 -438 752.613636364 -438 623 -438 c 0,17,18
 530 -438 530 -438 481 -406 c 1,19,-1
 508 -340 l 1,20,21
 532 -367 532 -367 575.5 -367 c 128,-1,22
 619 -367 619 -367 650.5 -337.5 c 128,-1,23
 682 -308 682 -308 682 -268.5 c 128,-1,24
 682 -229 682 -229 612 -193 c 1,25,-1
 565 -164 l 1,26,27
 543 -148 543 -148 543 -133 c 128,-1,28
 543 -118 543 -118 555 -106 c 1,29,-1
 625 -18 l 1,30,31
 362 1 362 1 211.5 166 c 128,-1,32
 61 331 61 331 61 618.5 c 128,-1,33
 61 906 61 906 229.5 1074.5 c 128,-1,34
 398 1243 398 1243 698 1243 c 0,35,36
 845.058823529 1243 845.058823529 1243 946 1199 c 128,-1,37
 1046.94117647 1155 1046.94117647 1155 1141 1155 c 1,38,39
 1133 1092 1133 1092 1133 993.5 c 128,-1,40
 1133 895 1133 895 1141 887 c 1,41,-1
 1075 887 l 1,42,43
 1050 1008 1050 1008 950 1093 c 128,-1,44
 850 1178 850 1178 727 1178 c 0,45,46
 558 1178 558 1178 464.5 1029.5 c 128,-1,47
 371 881 371 881 371 611 c 128,-1,48
 371 341 371 341 469 196 c 128,-1,49
 567 51 567 51 735 51 c 0,50,51
 863 51 863 51 960.5 134 c 128,-1,52
 1058 217 1058 217 1085 342 c 1,53,-1
 1159 342 l 1,0,1
EndSplineSet
Position2: "'cpsp' Capital Spacing lookup 0 per glyph data 2" dx=10 dy=0 dh=20 dv=0
EndChar

StartChar: D
Encoding: 68 68 17
Width: 1298
Flags: MW
HStem: 0 74<498 545 545 604> 1151 72<152 165 489 498 498 545>
VStem: 190 283<117 1108 1108 1119> 934 309<413 826>
LayerCount: 2
UndoRedoHistory
Layer: 1
Undoes
EndUndoes
Redoes
EndRedoes
EndUndoRedoHistory
Fore
SplineSet
80 76 m 1,0,-1
 160 72 l 1,1,-1
 162 72 l 2,2,3
 190 72 190 72 190 117 c 2,4,-1
 190 1108 l 2,5,6
 190 1151 190 1151 152 1151 c 1,7,-1
 80 1147 l 1,8,-1
 80 1223 l 1,9,-1
 580 1223 l 2,10,11
 922 1223 922 1223 1082.5 1081 c 128,-1,12
 1243 939 1243 939 1243 612 c 0,13,14
 1243 0 1243 0 604 0 c 2,15,-1
 80 0 l 1,16,-1
 80 76 l 1,0,-1
473 100 m 2,17,18
 473 74 473 74 498 74 c 2,19,-1
 545 74 l 2,20,21
 656 74 656 74 726 96.5 c 128,-1,22
 796 119 796 119 845 179.5 c 128,-1,23
 894 240 894 240 914 343 c 128,-1,24
 934 446 934 446 934 593.5 c 128,-1,25
 934 741 934 741 920.5 832.5 c 128,-1,26
 907 924 907 924 879 987 c 128,-1,27
 851 1050 851 1050 803.5 1085.5 c 0,28,29
 715.85915493 1151 715.85915493 1151 545 1151 c 2,30,-1
 498 1151 l 2,31,32
 473 1151 473 1151 473 1124 c 2,33,-1
 473 100 l 2,17,18
EndSplineSet
Position2: "'cpsp' Capital Spacing lookup 0 per glyph data 2" dx=10 dy=0 dh=20 dv=0
EndChar

StartChar: Eth
Encoding: 208 208 18
Width: 1302
Flags: MW
HStem: 0 74<498 545 545 604> 586 88<72 190 72 190 473 770> 1151 72<152 165 489 498 498 545>
VStem: 190 283<117 586 674 1108 1108 1119> 934 309<413 826>
LayerCount: 2
UndoRedoHistory
Layer: 1
Undoes
EndUndoes
Redoes
EndRedoes
EndUndoRedoHistory
Fore
SplineSet
580 1223 m 2,0,1
 922 1223 922 1223 1082.5 1081 c 128,-1,2
 1243 939 1243 939 1243 612 c 0,3,4
 1243 0 1243 0 604 0 c 2,5,-1
 80 0 l 1,6,-1
 80 76 l 1,7,-1
 162 72 l 1,8,9
 190 72 190 72 190 117 c 2,10,-1
 190 586 l 1,11,-1
 72 586 l 1,12,-1
 72 674 l 1,13,-1
 190 674 l 1,14,-1
 190 1108 l 2,15,16
 190 1151 190 1151 152 1151 c 1,17,-1
 80 1147 l 1,18,-1
 80 1223 l 1,19,-1
 580 1223 l 2,0,1
545 74 m 2,20,21
 656 74 656 74 726 96.5 c 128,-1,22
 796 119 796 119 845 179.5 c 128,-1,23
 894 240 894 240 914 343 c 128,-1,24
 934 446 934 446 934 593.5 c 128,-1,25
 934 741 934 741 920.5 832.5 c 128,-1,26
 907 924 907 924 879 987 c 128,-1,27
 851 1050 851 1050 803.5 1085.5 c 0,28,29
 715.85915493 1151 715.85915493 1151 545 1151 c 2,30,-1
 498 1151 l 2,31,32
 473 1151 473 1151 473 1124 c 2,33,-1
 473 674 l 1,34,-1
 770 674 l 1,35,-1
 770 586 l 1,36,-1
 473 586 l 1,37,-1
 473 100 l 2,38,39
 473 74 473 74 498 74 c 2,40,-1
 545 74 l 2,20,21
EndSplineSet
Position2: "'cpsp' Capital Spacing lookup 0 per glyph data 2" dx=10 dy=0 dh=20 dv=0
EndChar

StartChar: Dcaron
Encoding: 270 270 19
Width: 1298
Flags: MW
HStem: 0 74<498 545 545 604> 1151 72<152 165 489 498 498 545> 1405 123<553 621 621 688>
VStem: 190 283<117 1108 1108 1119> 934 309<413 826>
LayerCount: 2
UndoRedoHistory
Layer: 1
Undoes
EndUndoes
Redoes
EndRedoes
EndUndoRedoHistory
Fore
SplineSet
457 1503 m 1,0,1
 424 1540 424 1540 382 1581 c 0,2,3
 301 1660.07142857 301 1660.07142857 301 1674.03571429 c 128,-1,4
 301 1688 301 1688 327 1688 c 128,-1,5
 353 1688 353 1688 393 1663 c 1,6,-1
 621 1528 l 1,7,-1
 850 1663 l 1,8,9
 890 1688 890 1688 915 1688 c 128,-1,10
 940 1688 940 1688 940 1671 c 0,11,12
 940 1660.07142857 940 1660.07142857 878.5 1600.03571429 c 128,-1,13
 817 1540 817 1540 784 1503 c 1,14,-1
 688 1405 l 1,15,16
 654 1368 654 1368 622 1368 c 128,-1,17
 590 1368 590 1368 553 1405 c 2,18,-1
 457 1503 l 1,0,1
162 72 m 1,19,20
 190 72 190 72 190 117 c 2,21,-1
 190 1108 l 2,22,23
 190 1151 190 1151 152 1151 c 1,24,-1
 80 1147 l 1,25,-1
 80 1223 l 1,26,-1
 580 1223 l 2,27,28
 922 1223 922 1223 1082.5 1081 c 128,-1,29
 1243 939 1243 939 1243 612 c 0,30,31
 1243 0 1243 0 604 0 c 2,32,-1
 80 0 l 1,33,-1
 80 76 l 1,34,-1
 162 72 l 1,19,20
473 100 m 2,35,36
 473 74 473 74 498 74 c 2,37,-1
 545 74 l 2,38,39
 656 74 656 74 726 96.5 c 128,-1,40
 796 119 796 119 845 179.5 c 128,-1,41
 894 240 894 240 914 343 c 128,-1,42
 934 446 934 446 934 593.5 c 128,-1,43
 934 741 934 741 920.5 832.5 c 128,-1,44
 907 924 907 924 879 987 c 128,-1,45
 851 1050 851 1050 803.5 1085.5 c 0,46,47
 715.85915493 1151 715.85915493 1151 545 1151 c 2,48,-1
 498 1151 l 2,49,50
 473 1151 473 1151 473 1124 c 2,51,-1
 473 100 l 2,35,36
EndSplineSet
EndChar

StartChar: Dcroat
Encoding: 272 272 20
Width: 1302
Flags: MW
HStem: 0 74<498 545 545 604> 586 88<72 190 72 190 473 770> 1151 72<152 165 489 498 498 545>
VStem: 190 283<117 586 674 1108 1108 1119> 934 309<413 826>
LayerCount: 2
UndoRedoHistory
Layer: 1
Undoes
EndUndoes
Redoes
EndRedoes
EndUndoRedoHistory
Fore
SplineSet
580 1223 m 2,0,1
 922 1223 922 1223 1082.5 1081 c 128,-1,2
 1243 939 1243 939 1243 612 c 0,3,4
 1243 0 1243 0 604 0 c 2,5,-1
 80 0 l 1,6,-1
 80 76 l 1,7,-1
 162 72 l 1,8,9
 190 72 190 72 190 117 c 2,10,-1
 190 586 l 1,11,-1
 72 586 l 1,12,-1
 72 674 l 1,13,-1
 190 674 l 1,14,-1
 190 1108 l 2,15,16
 190 1151 190 1151 152 1151 c 1,17,-1
 80 1147 l 1,18,-1
 80 1223 l 1,19,-1
 580 1223 l 2,0,1
545 74 m 2,20,21
 656 74 656 74 726 96.5 c 128,-1,22
 796 119 796 119 845 179.5 c 128,-1,23
 894 240 894 240 914 343 c 128,-1,24
 934 446 934 446 934 593.5 c 128,-1,25
 934 741 934 741 920.5 832.5 c 128,-1,26
 907 924 907 924 879 987 c 128,-1,27
 851 1050 851 1050 803.5 1085.5 c 0,28,29
 715.85915493 1151 715.85915493 1151 545 1151 c 2,30,-1
 498 1151 l 2,31,32
 473 1151 473 1151 473 1124 c 2,33,-1
 473 674 l 1,34,-1
 770 674 l 1,35,-1
 770 586 l 1,36,-1
 473 586 l 1,37,-1
 473 100 l 2,38,39
 473 74 473 74 498 74 c 2,40,-1
 545 74 l 2,20,21
EndSplineSet
EndChar

StartChar: E
Encoding: 69 69 21
Width: 1169
Flags: MW
HStem: 0 74<498 723 723 816> 594 72<473 621 473 621> 831 41G<776 846 846 846> 907 315<946 983 983 991 80 1018 946 946> 1151 72<150 150 489 498 498 655>
VStem: 190 283<117 594 666 1108 1108 1120> 776 70<391 450 807 872> 946 72<907 993> 1008 72<272 367>
LayerCount: 2
UndoRedoHistory
Layer: 1
Undoes
EndUndoes
Redoes
EndRedoes
EndUndoRedoHistory
Fore
SplineSet
80 78 m 1,0,-1
 154 72 l 1,1,2
 190 72 190 72 190 117 c 2,3,-1
 190 1108 l 2,4,5
 190 1127 190 1127 179 1139.5 c 128,-1,6
 168 1152 168 1152 150 1151 c 2,7,-1
 80 1147 l 1,8,-1
 80 1223 l 1,9,-1
 983 1223 l 2,10,11
 1012 1223 1012 1223 1018 1225 c 1,12,-1
 1018 907 l 1,13,-1
 946 907 l 1,14,15
 946 1036 946 1036 877 1093.5 c 128,-1,16
 808 1151 808 1151 655 1151 c 2,17,-1
 498 1151 l 2,18,19
 473 1151 473 1151 473 1122 c 2,20,-1
 473 666 l 1,21,-1
 621 666 l 2,22,23
 690 666 690 666 733 721 c 128,-1,24
 776 776 776 776 776 872 c 1,25,-1
 846 872 l 1,26,-1
 846 391 l 1,27,-1
 776 391 l 1,28,29
 776 478 776 478 730.5 536 c 128,-1,30
 685 594 685 594 621 594 c 2,31,-1
 473 594 l 1,32,-1
 473 100 l 2,33,34
 473 74 473 74 498 74 c 2,35,-1
 723 74 l 2,36,37
 862 74 862 74 935 149.5 c 128,-1,38
 1008 225 1008 225 1008 367 c 1,39,-1
 1079 367 l 1,40,-1
 1079 -6 l 1,41,42
 1032 0 1032 0 883 0 c 2,43,-1
 80 0 l 1,44,-1
 80 78 l 1,0,-1
EndSplineSet
Position2: "'cpsp' Capital Spacing lookup 0 per glyph data 2" dx=10 dy=0 dh=20 dv=0
EndChar

StartChar: Eacute
Encoding: 201 201 22
Width: 1169
Flags: MW
HStem: 0 74<498 723 723 816> 594 72<473 621 473 621> 831 41G<776 846 846 846> 907 315<946 983 983 991 80 1018 946 946> 1151 72<150 150 489 498 498 655>
VStem: 190 283<117 594 666 1108 1108 1120> 776 70<391 450 807 872> 946 72<907 993> 1008 72<272 367>
LayerCount: 2
UndoRedoHistory
Layer: 1
Undoes
EndUndoes
Redoes
EndRedoes
EndUndoRedoHistory
Fore
SplineSet
670 1640 m 1,0,1
 701.764705882 1679.70588235 701.764705882 1679.70588235 708.382352941 1682.35294118 c 128,-1,2
 715 1685 715 1685 720.5 1688 c 0,3,4
 727.833333333 1692 727.833333333 1692 753.916666667 1692 c 128,-1,5
 780 1692 780 1692 831.5 1664.5 c 128,-1,6
 883 1637 883 1637 883 1618 c 128,-1,7
 883 1599 883 1599 856 1579 c 1,8,-1
 514 1370 l 1,9,10
 487 1352 487 1352 464.5 1352 c 128,-1,11
 442 1352 442 1352 442 1371.5 c 128,-1,12
 442 1391 442 1391 475 1427 c 2,13,-1
 670 1640 l 1,0,1
154 72 m 1,14,15
 190 72 190 72 190 117 c 2,16,-1
 190 1108 l 2,17,18
 190 1127 190 1127 179 1139.5 c 128,-1,19
 168 1152 168 1152 150 1151 c 2,20,-1
 80 1147 l 1,21,-1
 80 1223 l 1,22,-1
 983 1223 l 2,23,24
 1012 1223 1012 1223 1018 1225 c 1,25,-1
 1018 907 l 1,26,-1
 946 907 l 1,27,28
 946 1036 946 1036 877 1093.5 c 128,-1,29
 808 1151 808 1151 655 1151 c 2,30,-1
 498 1151 l 2,31,32
 473 1151 473 1151 473 1122 c 2,33,-1
 473 666 l 1,34,-1
 621 666 l 2,35,36
 690 666 690 666 733 721 c 128,-1,37
 776 776 776 776 776 872 c 1,38,-1
 846 872 l 1,39,-1
 846 391 l 1,40,-1
 776 391 l 1,41,42
 776 478 776 478 730.5 536 c 128,-1,43
 685 594 685 594 621 594 c 2,44,-1
 473 594 l 1,45,-1
 473 100 l 2,46,47
 473 74 473 74 498 74 c 2,48,-1
 723 74 l 2,49,50
 862 74 862 74 935 149.5 c 128,-1,51
 1008 225 1008 225 1008 367 c 1,52,-1
 1079 367 l 1,53,-1
 1079 -6 l 1,54,55
 1032 0 1032 0 883 0 c 2,56,-1
 80 0 l 1,57,-1
 80 78 l 1,58,-1
 154 72 l 1,14,15
EndSplineSet
Position2: "'cpsp' Capital Spacing lookup 0 per glyph data 2" dx=10 dy=0 dh=20 dv=0
EndChar

StartChar: Ecaron
Encoding: 282 282 23
Width: 1169
Flags: MW
HStem: 0 74<498 723 723 816> 594 72<473 621 473 621> 831 41G<776 846 846 846> 907 315<946 983 983 991 80 1018 946 946> 1151 72<150 150 489 498 498 655> 1405 123<510 578 578 645>
VStem: 190 283<117 594 666 1108 1108 1120> 776 70<391 450 807 872> 946 72<907 993> 1008 72<272 367>
LayerCount: 2
UndoRedoHistory
Layer: 1
Undoes
EndUndoes
Redoes
EndRedoes
EndUndoRedoHistory
Fore
SplineSet
414 1503 m 1,0,1
 381 1540 381 1540 339 1581 c 0,2,3
 258 1660.07142857 258 1660.07142857 258 1674.03571429 c 128,-1,4
 258 1688 258 1688 284 1688 c 128,-1,5
 310 1688 310 1688 350 1663 c 1,6,-1
 578 1528 l 1,7,-1
 807 1663 l 1,8,9
 847 1688 847 1688 872 1688 c 128,-1,10
 897 1688 897 1688 897 1671 c 0,11,12
 897 1660.07142857 897 1660.07142857 835.5 1600.03571429 c 128,-1,13
 774 1540 774 1540 741 1503 c 1,14,-1
 645 1405 l 1,15,16
 611 1368 611 1368 579 1368 c 128,-1,17
 547 1368 547 1368 510 1405 c 2,18,-1
 414 1503 l 1,0,1
154 72 m 1,19,20
 190 72 190 72 190 117 c 2,21,-1
 190 1108 l 2,22,23
 190 1127 190 1127 179 1139.5 c 128,-1,24
 168 1152 168 1152 150 1151 c 2,25,-1
 80 1147 l 1,26,-1
 80 1223 l 1,27,-1
 983 1223 l 2,28,29
 1012 1223 1012 1223 1018 1225 c 1,30,-1
 1018 907 l 1,31,-1
 946 907 l 1,32,33
 946 1036 946 1036 877 1093.5 c 128,-1,34
 808 1151 808 1151 655 1151 c 2,35,-1
 498 1151 l 2,36,37
 473 1151 473 1151 473 1122 c 2,38,-1
 473 666 l 1,39,-1
 621 666 l 2,40,41
 690 666 690 666 733 721 c 128,-1,42
 776 776 776 776 776 872 c 1,43,-1
 846 872 l 1,44,-1
 846 391 l 1,45,-1
 776 391 l 1,46,47
 776 478 776 478 730.5 536 c 128,-1,48
 685 594 685 594 621 594 c 2,49,-1
 473 594 l 1,50,-1
 473 100 l 2,51,52
 473 74 473 74 498 74 c 2,53,-1
 723 74 l 2,54,55
 862 74 862 74 935 149.5 c 128,-1,56
 1008 225 1008 225 1008 367 c 1,57,-1
 1079 367 l 1,58,-1
 1079 -6 l 1,59,60
 1032 0 1032 0 883 0 c 2,61,-1
 80 0 l 1,62,-1
 80 78 l 1,63,-1
 154 72 l 1,19,20
EndSplineSet
EndChar

StartChar: Ecircumflex
Encoding: 202 202 24
Width: 1169
Flags: MW
HStem: 0 74<498 723 723 816> 594 72<473 621 473 621> 831 41G<776 846 846 846> 907 315<946 983 983 991 80 1018 946 946> 1151 72<150 150 489 498 498 655> 1524 123<510 578>
VStem: 190 283<117 594 666 1108 1108 1120> 776 70<391 450 807 872> 946 72<907 993> 1008 72<272 367>
LayerCount: 2
UndoRedoHistory
Layer: 1
Undoes
EndUndoes
Redoes
EndRedoes
EndUndoRedoHistory
Fore
SplineSet
741 1548 m 1,0,1
 774 1511 774 1511 816 1470 c 0,2,3
 897 1390.92857143 897 1390.92857143 897 1377.46428571 c 128,-1,4
 897 1364 897 1364 871 1364 c 128,-1,5
 845 1364 845 1364 805 1389 c 1,6,-1
 578 1524 l 1,7,-1
 348 1389 l 1,8,9
 308 1364 308 1364 283 1364 c 128,-1,10
 258 1364 258 1364 258 1380 c 0,11,12
 258 1390.92857143 258 1390.92857143 319.5 1450.96428571 c 128,-1,13
 381 1511 381 1511 414 1548 c 1,14,-1
 510 1647 l 1,15,16
 543 1683 543 1683 576 1683 c 128,-1,17
 609 1683 609 1683 645 1647 c 2,18,-1
 741 1548 l 1,0,1
154 72 m 1,19,20
 190 72 190 72 190 117 c 2,21,-1
 190 1108 l 2,22,23
 190 1127 190 1127 179 1139.5 c 128,-1,24
 168 1152 168 1152 150 1151 c 2,25,-1
 80 1147 l 1,26,-1
 80 1223 l 1,27,-1
 983 1223 l 2,28,29
 1012 1223 1012 1223 1018 1225 c 1,30,-1
 1018 907 l 1,31,-1
 946 907 l 1,32,33
 946 1036 946 1036 877 1093.5 c 128,-1,34
 808 1151 808 1151 655 1151 c 2,35,-1
 498 1151 l 2,36,37
 473 1151 473 1151 473 1122 c 2,38,-1
 473 666 l 1,39,-1
 621 666 l 2,40,41
 690 666 690 666 733 721 c 128,-1,42
 776 776 776 776 776 872 c 1,43,-1
 846 872 l 1,44,-1
 846 391 l 1,45,-1
 776 391 l 1,46,47
 776 478 776 478 730.5 536 c 128,-1,48
 685 594 685 594 621 594 c 2,49,-1
 473 594 l 1,50,-1
 473 100 l 2,51,52
 473 74 473 74 498 74 c 2,53,-1
 723 74 l 2,54,55
 862 74 862 74 935 149.5 c 128,-1,56
 1008 225 1008 225 1008 367 c 1,57,-1
 1079 367 l 1,58,-1
 1079 -6 l 1,59,60
 1032 0 1032 0 883 0 c 2,61,-1
 80 0 l 1,62,-1
 80 78 l 1,63,-1
 154 72 l 1,19,20
EndSplineSet
Position2: "'cpsp' Capital Spacing lookup 0 per glyph data 2" dx=10 dy=0 dh=20 dv=0
EndChar

StartChar: Edieresis
Encoding: 203 203 25
Width: 1169
Flags: MW
HStem: 0 74<498 723 723 816> 594 72<473 621 473 621> 831 41G<776 846 846 846> 907 315<946 983 983 991 80 1018 946 946> 1151 72<150 150 489 498 498 655> 1395 258<316 408 316 409 746 838>
VStem: 190 283<117 594 666 1108 1108 1120> 205 315<1484 1563> 635 315<1484 1563> 776 70<391 450 807 872> 946 72<907 993> 1008 72<272 367>
LayerCount: 2
UndoRedoHistory
Layer: 1
Undoes
EndUndoes
Redoes
EndRedoes
EndUndoRedoHistory
Fore
SplineSet
248.5 1430 m 128,-1,1
 205 1465 205 1465 205 1523.5 c 128,-1,2
 205 1582 205 1582 248.5 1617.5 c 128,-1,3
 292 1653 292 1653 361 1653 c 128,-1,4
 430 1653 430 1653 475 1617.5 c 128,-1,5
 520 1582 520 1582 520 1523.5 c 128,-1,6
 520 1465 520 1465 476 1430 c 128,-1,7
 432 1395 432 1395 362 1395 c 128,-1,0
 292 1395 292 1395 248.5 1430 c 128,-1,1
679 1430 m 128,-1,9
 635 1465 635 1465 635 1523.5 c 128,-1,10
 635 1582 635 1582 679 1617.5 c 128,-1,11
 723 1653 723 1653 792 1653 c 128,-1,12
 861 1653 861 1653 905.5 1617.5 c 128,-1,13
 950 1582 950 1582 950 1523.5 c 128,-1,14
 950 1465 950 1465 906.5 1430 c 128,-1,15
 863 1395 863 1395 793 1395 c 128,-1,8
 723 1395 723 1395 679 1430 c 128,-1,9
154 72 m 1,16,17
 190 72 190 72 190 117 c 2,18,-1
 190 1108 l 2,19,20
 190 1127 190 1127 179 1139.5 c 128,-1,21
 168 1152 168 1152 150 1151 c 2,22,-1
 80 1147 l 1,23,-1
 80 1223 l 1,24,-1
 983 1223 l 2,25,26
 1012 1223 1012 1223 1018 1225 c 1,27,-1
 1018 907 l 1,28,-1
 946 907 l 1,29,30
 946 1036 946 1036 877 1093.5 c 128,-1,31
 808 1151 808 1151 655 1151 c 2,32,-1
 498 1151 l 2,33,34
 473 1151 473 1151 473 1122 c 2,35,-1
 473 666 l 1,36,-1
 621 666 l 2,37,38
 690 666 690 666 733 721 c 128,-1,39
 776 776 776 776 776 872 c 1,40,-1
 846 872 l 1,41,-1
 846 391 l 1,42,-1
 776 391 l 1,43,44
 776 478 776 478 730.5 536 c 128,-1,45
 685 594 685 594 621 594 c 2,46,-1
 473 594 l 1,47,-1
 473 100 l 2,48,49
 473 74 473 74 498 74 c 2,50,-1
 723 74 l 2,51,52
 862 74 862 74 935 149.5 c 128,-1,53
 1008 225 1008 225 1008 367 c 1,54,-1
 1079 367 l 1,55,-1
 1079 -6 l 1,56,57
 1032 0 1032 0 883 0 c 2,58,-1
 80 0 l 1,59,-1
 80 78 l 1,60,-1
 154 72 l 1,16,17
EndSplineSet
Position2: "'cpsp' Capital Spacing lookup 0 per glyph data 2" dx=10 dy=0 dh=20 dv=0
EndChar

StartChar: Edotaccent
Encoding: 278 278 26
Width: 1169
Flags: MW
HStem: 0 74<498 723 723 816> 594 72<473 621 473 621> 831 41G<776 846 846 846> 907 315<946 983 983 991 80 1018 946 946> 1151 72<150 150 489 498 498 655> 1395 258<531 623 531 624>
VStem: 190 283<117 594 666 1108 1108 1120> 420 315<1484 1563> 776 70<391 450 807 872> 946 72<907 993> 1008 72<272 367>
LayerCount: 2
UndoRedoHistory
Layer: 1
Undoes
EndUndoes
Redoes
EndRedoes
EndUndoRedoHistory
Fore
SplineSet
464 1430 m 128,-1,1
 420 1465 420 1465 420 1523.5 c 128,-1,2
 420 1582 420 1582 464 1617.5 c 128,-1,3
 508 1653 508 1653 577 1653 c 128,-1,4
 646 1653 646 1653 690.5 1617.5 c 128,-1,5
 735 1582 735 1582 735 1523.5 c 128,-1,6
 735 1465 735 1465 691.5 1430 c 128,-1,7
 648 1395 648 1395 578 1395 c 128,-1,0
 508 1395 508 1395 464 1430 c 128,-1,1
154 72 m 1,8,9
 190 72 190 72 190 117 c 2,10,-1
 190 1108 l 2,11,12
 190 1127 190 1127 179 1139.5 c 128,-1,13
 168 1152 168 1152 150 1151 c 2,14,-1
 80 1147 l 1,15,-1
 80 1223 l 1,16,-1
 983 1223 l 2,17,18
 1012 1223 1012 1223 1018 1225 c 1,19,-1
 1018 907 l 1,20,-1
 946 907 l 1,21,22
 946 1036 946 1036 877 1093.5 c 128,-1,23
 808 1151 808 1151 655 1151 c 2,24,-1
 498 1151 l 2,25,26
 473 1151 473 1151 473 1122 c 2,27,-1
 473 666 l 1,28,-1
 621 666 l 2,29,30
 690 666 690 666 733 721 c 128,-1,31
 776 776 776 776 776 872 c 1,32,-1
 846 872 l 1,33,-1
 846 391 l 1,34,-1
 776 391 l 1,35,36
 776 478 776 478 730.5 536 c 128,-1,37
 685 594 685 594 621 594 c 2,38,-1
 473 594 l 1,39,-1
 473 100 l 2,40,41
 473 74 473 74 498 74 c 2,42,-1
 723 74 l 2,43,44
 862 74 862 74 935 149.5 c 128,-1,45
 1008 225 1008 225 1008 367 c 1,46,-1
 1079 367 l 1,47,-1
 1079 -6 l 1,48,49
 1032 0 1032 0 883 0 c 2,50,-1
 80 0 l 1,51,-1
 80 78 l 1,52,-1
 154 72 l 1,8,9
EndSplineSet
EndChar

StartChar: Egrave
Encoding: 200 200 27
Width: 1169
Flags: MW
HStem: 0 74<498 723 723 816> 594 72<473 621 473 621> 831 41G<776 846 846 846> 907 315<946 983 983 991 80 1018 946 946> 1151 72<150 150 489 498 498 655>
VStem: 190 283<117 594 666 1108 1108 1120> 776 70<391 450 807 872> 946 72<907 993> 1008 72<272 367>
LayerCount: 2
UndoRedoHistory
Layer: 1
Undoes
EndUndoes
Redoes
EndRedoes
EndUndoRedoHistory
Fore
SplineSet
487 1640 m 1,0,1
 455.235294118 1679.70588235 455.235294118 1679.70588235 448.617647059 1682.35294118 c 128,-1,2
 442 1685 442 1685 436.5 1688 c 0,3,4
 429.166666667 1692 429.166666667 1692 403.083333333 1692 c 128,-1,5
 377 1692 377 1692 325.5 1664.5 c 128,-1,6
 274 1637 274 1637 274 1618 c 128,-1,7
 274 1599 274 1599 301 1579 c 1,8,-1
 643 1370 l 1,9,10
 670 1352 670 1352 692.5 1352 c 128,-1,11
 715 1352 715 1352 715 1371.5 c 128,-1,12
 715 1391 715 1391 682 1427 c 2,13,-1
 487 1640 l 1,0,1
154 72 m 1,14,15
 190 72 190 72 190 117 c 2,16,-1
 190 1108 l 2,17,18
 190 1127 190 1127 179 1139.5 c 128,-1,19
 168 1152 168 1152 150 1151 c 2,20,-1
 80 1147 l 1,21,-1
 80 1223 l 1,22,-1
 983 1223 l 2,23,24
 1012 1223 1012 1223 1018 1225 c 1,25,-1
 1018 907 l 1,26,-1
 946 907 l 1,27,28
 946 1036 946 1036 877 1093.5 c 128,-1,29
 808 1151 808 1151 655 1151 c 2,30,-1
 498 1151 l 2,31,32
 473 1151 473 1151 473 1122 c 2,33,-1
 473 666 l 1,34,-1
 621 666 l 2,35,36
 690 666 690 666 733 721 c 128,-1,37
 776 776 776 776 776 872 c 1,38,-1
 846 872 l 1,39,-1
 846 391 l 1,40,-1
 776 391 l 1,41,42
 776 478 776 478 730.5 536 c 128,-1,43
 685 594 685 594 621 594 c 2,44,-1
 473 594 l 1,45,-1
 473 100 l 2,46,47
 473 74 473 74 498 74 c 2,48,-1
 723 74 l 2,49,50
 862 74 862 74 935 149.5 c 128,-1,51
 1008 225 1008 225 1008 367 c 1,52,-1
 1079 367 l 1,53,-1
 1079 -6 l 1,54,55
 1032 0 1032 0 883 0 c 2,56,-1
 80 0 l 1,57,-1
 80 78 l 1,58,-1
 154 72 l 1,14,15
EndSplineSet
Position2: "'cpsp' Capital Spacing lookup 0 per glyph data 2" dx=10 dy=0 dh=20 dv=0
EndChar

StartChar: Emacron
Encoding: 274 274 28
Width: 1169
Flags: MW
HStem: 0 74<498 723 723 816> 594 72<473 621 473 621> 831 41G<776 846 846 846> 907 315<946 983 983 991 80 1018 946 946> 1151 72<150 150 489 498 498 655> 1432 96<332 821 332 821>
VStem: 190 283<117 594 666 1108 1108 1120> 332 489<1432 1528 1432 1528> 776 70<391 450 807 872> 946 72<907 993> 1008 72<272 367>
LayerCount: 2
UndoRedoHistory
Layer: 1
Undoes
EndUndoes
Redoes
EndRedoes
EndUndoRedoHistory
Fore
SplineSet
332 1528 m 1,0,-1
 821 1528 l 1,1,-1
 821 1432 l 1,2,-1
 332 1432 l 1,3,-1
 332 1528 l 1,0,-1
154 72 m 1,4,5
 190 72 190 72 190 117 c 2,6,-1
 190 1108 l 2,7,8
 190 1127 190 1127 179 1139.5 c 128,-1,9
 168 1152 168 1152 150 1151 c 2,10,-1
 80 1147 l 1,11,-1
 80 1223 l 1,12,-1
 983 1223 l 2,13,14
 1012 1223 1012 1223 1018 1225 c 1,15,-1
 1018 907 l 1,16,-1
 946 907 l 1,17,18
 946 1036 946 1036 877 1093.5 c 128,-1,19
 808 1151 808 1151 655 1151 c 2,20,-1
 498 1151 l 2,21,22
 473 1151 473 1151 473 1122 c 2,23,-1
 473 666 l 1,24,-1
 621 666 l 2,25,26
 690 666 690 666 733 721 c 128,-1,27
 776 776 776 776 776 872 c 1,28,-1
 846 872 l 1,29,-1
 846 391 l 1,30,-1
 776 391 l 1,31,32
 776 478 776 478 730.5 536 c 128,-1,33
 685 594 685 594 621 594 c 2,34,-1
 473 594 l 1,35,-1
 473 100 l 2,36,37
 473 74 473 74 498 74 c 2,38,-1
 723 74 l 2,39,40
 862 74 862 74 935 149.5 c 128,-1,41
 1008 225 1008 225 1008 367 c 1,42,-1
 1079 367 l 1,43,-1
 1079 -6 l 1,44,45
 1032 0 1032 0 883 0 c 2,46,-1
 80 0 l 1,47,-1
 80 78 l 1,48,-1
 154 72 l 1,4,5
EndSplineSet
EndChar

StartChar: Eogonek
Encoding: 280 280 29
Width: 1169
Flags: MW
HStem: -326 119<935 941> 0 74<498 723 723 816> 594 72<473 621 473 621> 831 41G<776 846 846 846> 907 315<946 983 983 991 80 1018 946 946> 1151 72<150 150 489 498 498 655>
VStem: 190 283<117 594 666 1108 1108 1120> 731 137<-227 -91> 776 70<391 450 807 872> 946 72<907 993> 1008 72<272 367>
LayerCount: 2
UndoRedoHistory
Layer: 1
Undoes
EndUndoes
Redoes
EndRedoes
EndUndoRedoHistory
Fore
SplineSet
1139 -203 m 1,0,1
 1032 -326 1032 -326 897 -326 c 0,2,3
 829 -326 829 -326 780 -287 c 128,-1,4
 731 -248 731 -248 731 -178 c 0,5,6
 731 -71 731 -71 834 0 c 1,7,-1
 80 0 l 1,8,-1
 80 78 l 1,9,-1
 154 72 l 1,10,11
 190 72 190 72 190 117 c 2,12,-1
 190 1108 l 2,13,14
 190 1127 190 1127 179 1139.5 c 128,-1,15
 168 1152 168 1152 150 1151 c 2,16,-1
 80 1147 l 1,17,-1
 80 1223 l 1,18,-1
 983 1223 l 2,19,20
 1012 1223 1012 1223 1018 1225 c 1,21,-1
 1018 907 l 1,22,-1
 946 907 l 1,23,24
 946 1036 946 1036 877 1093.5 c 128,-1,25
 808 1151 808 1151 655 1151 c 2,26,-1
 498 1151 l 2,27,28
 473 1151 473 1151 473 1122 c 2,29,-1
 473 666 l 1,30,-1
 621 666 l 2,31,32
 690 666 690 666 733 721 c 128,-1,33
 776 776 776 776 776 872 c 1,34,-1
 846 872 l 1,35,-1
 846 391 l 1,36,-1
 776 391 l 1,37,38
 776 478 776 478 730.5 536 c 128,-1,39
 685 594 685 594 621 594 c 2,40,-1
 473 594 l 1,41,-1
 473 100 l 2,42,43
 473 74 473 74 498 74 c 2,44,-1
 723 74 l 2,45,46
 862 74 862 74 935 149.5 c 128,-1,47
 1008 225 1008 225 1008 367 c 1,48,-1
 1079 367 l 1,49,-1
 1079 -6 l 1,50,51
 1038 0 1038 0 915 0 c 1,52,53
 868 -44 868 -44 868 -99 c 0,54,55
 868 -207 868 -207 971 -207 c 0,56,57
 1042 -207 1042 -207 1114 -164 c 1,58,-1
 1139 -203 l 1,0,1
EndSplineSet
EndChar

StartChar: F
Encoding: 70 70 30
Width: 1083
Flags: MW
HStem: 0 72<154 166 501 512> 573 72<473 612 473 612> 907 315<967 1008 1008 1015 80 1038 967 967> 1151 72<152 156 152 152 489 498 498 676>
VStem: 190 283<117 573 645 1108 1108 1122> 774 70<369 431 788 854> 967 72<907 1225>
LayerCount: 2
UndoRedoHistory
Layer: 1
Undoes
EndUndoes
Redoes
EndRedoes
EndUndoRedoHistory
Fore
SplineSet
80 78 m 1,0,-1
 154 72 l 1,1,2
 190 72 190 72 190 117 c 2,3,-1
 190 1108 l 2,4,5
 190 1151 190 1151 156 1151 c 2,6,-1
 152 1151 l 1,7,-1
 80 1147 l 1,8,-1
 80 1223 l 1,9,-1
 1008 1223 l 2,10,11
 1032 1223 1032 1223 1038 1225 c 1,12,-1
 1038 907 l 1,13,-1
 967 907 l 1,14,15
 970 1034 970 1034 899.5 1092.5 c 128,-1,16
 829 1151 829 1151 676 1151 c 2,17,-1
 498 1151 l 2,18,19
 473 1151 473 1151 473 1124 c 2,20,-1
 473 645 l 1,21,-1
 612 645 l 2,22,23
 685 645 685 645 729.5 701 c 128,-1,24
 774 757 774 757 774 854 c 1,25,-1
 844 854 l 1,26,-1
 844 369 l 1,27,-1
 774 369 l 1,28,29
 774 462 774 462 729.5 517.5 c 128,-1,30
 685 573 685 573 612 573 c 2,31,-1
 473 573 l 1,32,-1
 473 115 l 2,33,34
 473 96 473 96 484 84 c 128,-1,35
 495 72 495 72 512 72 c 2,36,-1
 618 78 l 1,37,-1
 618 0 l 1,38,-1
 80 0 l 1,39,-1
 80 78 l 1,0,-1
EndSplineSet
Position2: "'cpsp' Capital Spacing lookup 0 per glyph data 2" dx=10 dy=0 dh=20 dv=0
EndChar

StartChar: G
Encoding: 71 71 31
Width: 1331
Flags: MW
HStem: -20 72<598 744 598 811> 487 70<866 880 1214 1227> 872 283<1109 1155 1109 1155 1053 1155> 1178 66<613 812 500 830>
VStem: 61 309<402 783 402 818> 905 283<139 442 442 444> 1055 100<872 909>
LayerCount: 2
UndoRedoHistory
Layer: 1
Undoes
EndUndoes
Redoes
EndRedoes
EndUndoRedoHistory
Fore
SplineSet
705 51 m 0,0,1
 829.571428571 51 829.571428571 51 905 139 c 1,2,-1
 905 442 l 2,3,4
 905 487 905 487 866 487 c 1,5,-1
 745 483 l 1,6,-1
 745 557 l 1,7,-1
 1292 557 l 1,8,-1
 1292 483 l 1,9,-1
 1227 487 l 1,10,11
 1209 487 1209 487 1198.5 474.5 c 128,-1,12
 1188 462 1188 462 1188 444 c 2,13,-1
 1188 72 l 1,14,15
 1168 76 1168 76 1142.5 76 c 128,-1,16
 1117 76 1117 76 1068.5 61 c 128,-1,17
 1020 46 1020 46 973.5 28 c 0,18,19
 849.5 -20 849.5 -20 686 -20 c 0,20,21
 393 -20 393 -20 227 139.5 c 128,-1,22
 61 299 61 299 61 609.5 c 128,-1,23
 61 920 61 920 227.5 1081.5 c 128,-1,24
 394 1243 394 1243 702 1243 c 0,25,26
 846 1243 846 1243 1051.5 1177 c 0,27,28
 1120 1155 1120 1155 1155 1155 c 1,29,30
 1147 1101 1147 1101 1147 1047.5 c 128,-1,31
 1147 994 1147 994 1155 872 c 1,32,-1
 1053 872 l 1,33,34
 1055 886 1055 886 1055 909 c 0,35,36
 1050 1037 1050 1037 965.5 1107.5 c 128,-1,37
 881 1178 881 1178 718.5 1178 c 128,-1,38
 556 1178 556 1178 463.5 1027.5 c 128,-1,39
 371 877 371 877 371 590 c 0,40,41
 371 51 371 51 705 51 c 0,0,1
EndSplineSet
Position2: "'cpsp' Capital Spacing lookup 0 per glyph data 2" dx=10 dy=0 dh=20 dv=0
EndChar

StartChar: Gbreve
Encoding: 286 286 32
Width: 1331
Flags: MW
HStem: -20 72<598 744 598 811> 487 70<866 880 1214 1227> 872 283<1109 1155 1109 1155 1053 1155> 1178 66<613 812 500 830> 1350 133<616 733 616 759>
VStem: 61 309<402 783 402 818> 905 283<139 442 442 444> 1055 100<872 909>
LayerCount: 2
UndoRedoHistory
Layer: 1
Undoes
EndUndoes
Redoes
EndRedoes
EndUndoRedoHistory
Fore
SplineSet
954 1618 m 1,0,1
 951 1498 951 1498 875 1424 c 128,-1,2
 799 1350 799 1350 676 1350 c 128,-1,3
 553 1350 553 1350 477.5 1424 c 128,-1,4
 402 1498 402 1498 399 1618 c 1,5,-1
 494 1618 l 1,6,7
 527 1483 527 1483 676 1483 c 0,8,9
 755 1483 755 1483 800.5 1522 c 128,-1,10
 846 1561 846 1561 862 1618 c 1,11,-1
 954 1618 l 1,0,1
705 51 m 0,12,13
 829.571428571 51 829.571428571 51 905 139 c 1,14,-1
 905 442 l 2,15,16
 905 487 905 487 866 487 c 1,17,-1
 745 483 l 1,18,-1
 745 557 l 1,19,-1
 1292 557 l 1,20,-1
 1292 483 l 1,21,-1
 1227 487 l 1,22,23
 1209 487 1209 487 1198.5 474.5 c 128,-1,24
 1188 462 1188 462 1188 444 c 2,25,-1
 1188 72 l 1,26,27
 1168 76 1168 76 1142.5 76 c 128,-1,28
 1117 76 1117 76 1068.5 61 c 128,-1,29
 1020 46 1020 46 973.5 28 c 0,30,31
 849.5 -20 849.5 -20 686 -20 c 0,32,33
 393 -20 393 -20 227 139.5 c 128,-1,34
 61 299 61 299 61 609.5 c 128,-1,35
 61 920 61 920 227.5 1081.5 c 128,-1,36
 394 1243 394 1243 702 1243 c 0,37,38
 846 1243 846 1243 1051.5 1177 c 0,39,40
 1120 1155 1120 1155 1155 1155 c 1,41,42
 1147 1101 1147 1101 1147 1047.5 c 128,-1,43
 1147 994 1147 994 1155 872 c 1,44,-1
 1053 872 l 1,45,46
 1055 886 1055 886 1055 909 c 0,47,48
 1050 1037 1050 1037 965.5 1107.5 c 128,-1,49
 881 1178 881 1178 718.5 1178 c 128,-1,50
 556 1178 556 1178 463.5 1027.5 c 128,-1,51
 371 877 371 877 371 590 c 0,52,53
 371 51 371 51 705 51 c 0,12,13
EndSplineSet
EndChar

StartChar: Gcommaaccent
Encoding: 290 290 33
Width: 1331
Flags: MW
HStem: -289 219<643 657> -20 72<598 744 598 811> 487 70<866 880 1214 1227> 872 283<1109 1155 1109 1155 1053 1155> 1178 66<613 812 500 830>
VStem: 61 309<402 783 402 818> 700 150<-367 -187> 905 283<139 442 442 444> 1055 100<872 909>
LayerCount: 2
UndoRedoHistory
Layer: 1
Undoes
EndUndoes
Redoes
EndRedoes
EndUndoRedoHistory
Fore
SplineSet
705 51 m 0,0,1
 829.571428571 51 829.571428571 51 905 139 c 1,2,-1
 905 442 l 2,3,4
 905 487 905 487 866 487 c 1,5,-1
 745 483 l 1,6,-1
 745 557 l 1,7,-1
 1292 557 l 1,8,-1
 1292 483 l 1,9,-1
 1227 487 l 1,10,11
 1209 487 1209 487 1198.5 474.5 c 128,-1,12
 1188 462 1188 462 1188 444 c 2,13,-1
 1188 72 l 1,14,15
 1168 76 1168 76 1142.5 76 c 128,-1,16
 1117 76 1117 76 1068.5 61 c 128,-1,17
 1020 46 1020 46 973.5 28 c 0,18,19
 849.5 -20 849.5 -20 686 -20 c 0,20,21
 393 -20 393 -20 227 139.5 c 128,-1,22
 61 299 61 299 61 609.5 c 128,-1,23
 61 920 61 920 227.5 1081.5 c 128,-1,24
 394 1243 394 1243 702 1243 c 0,25,26
 846 1243 846 1243 1051.5 1177 c 0,27,28
 1120 1155 1120 1155 1155 1155 c 1,29,30
 1147 1101 1147 1101 1147 1047.5 c 128,-1,31
 1147 994 1147 994 1155 872 c 1,32,-1
 1053 872 l 1,33,34
 1055 886 1055 886 1055 909 c 0,35,36
 1050 1037 1050 1037 965.5 1107.5 c 128,-1,37
 881 1178 881 1178 718.5 1178 c 128,-1,38
 556 1178 556 1178 463.5 1027.5 c 128,-1,39
 371 877 371 877 371 590 c 0,40,41
 371 51 371 51 705 51 c 0,0,1
602 -469 m 1,42,43
 642 -445 642 -445 671 -410 c 128,-1,44
 700 -375 700 -375 700 -348 c 0,45,46
 700 -289 700 -289 643 -289 c 0,47,48
 605 -289 605 -289 582 -259 c 128,-1,49
 559 -229 559 -229 559 -184.5 c 128,-1,50
 559 -140 559 -140 592 -105 c 128,-1,51
 625 -70 625 -70 692.5 -70 c 128,-1,52
 760 -70 760 -70 805 -117 c 128,-1,53
 850 -164 850 -164 850 -241.5 c 128,-1,54
 850 -319 850 -319 790.5 -395.5 c 128,-1,55
 731 -472 731 -472 647 -514 c 1,56,-1
 602 -469 l 1,42,43
EndSplineSet
EndChar

StartChar: H
Encoding: 72 72 34
Width: 1425
Flags: MW
HStem: 0 72<152 156 156 168 501 514 913 927> 588 72<473 952 473 952> 1151 72<152 152 498 511 510 514 913 913 1257 1271 1270 1274>
VStem: 190 283<117 588 659 1108> 952 283<117 588 588 588 659 1108>
LayerCount: 2
UndoRedoHistory
Layer: 1
Undoes
EndUndoes
Redoes
EndRedoes
EndUndoRedoHistory
Fore
SplineSet
952 1108 m 2,0,1
 952 1152.85714286 952 1152.85714286 913 1151 c 2,2,-1
 813 1147 l 1,3,-1
 813 1223 l 1,4,-1
 1346 1223 l 1,5,-1
 1346 1147 l 1,6,-1
 1274 1151 l 1,7,-1
 1270 1151 l 2,8,9
 1235 1151 1235 1151 1235 1108 c 2,10,-1
 1235 117 l 2,11,12
 1235 69 1235 69 1274 72 c 2,13,-1
 1346 76 l 1,14,-1
 1346 0 l 1,15,-1
 813 0 l 1,16,-1
 813 76 l 1,17,-1
 913 72 l 1,18,19
 952 72 952 72 952 117 c 2,20,-1
 952 588 l 1,21,-1
 473 588 l 1,22,-1
 473 117 l 2,23,24
 473 72 473 72 514 72 c 1,25,-1
 614 76 l 1,26,-1
 614 0 l 1,27,-1
 80 0 l 1,28,-1
 80 76 l 1,29,-1
 152 72 l 1,30,-1
 156 72 l 2,31,32
 190 72 190 72 190 117 c 2,33,-1
 190 1108 l 2,34,35
 190 1152.80952381 190 1152.80952381 152 1151 c 2,36,-1
 80 1147 l 1,37,-1
 80 1223 l 1,38,-1
 614 1223 l 1,39,-1
 614 1147 l 1,40,-1
 514 1151 l 1,41,-1
 510 1151 l 2,42,43
 473 1151 473 1151 473 1108 c 2,44,-1
 473 659 l 1,45,-1
 952 659 l 1,46,-1
 952 1108 l 2,0,1
EndSplineSet
Position2: "'cpsp' Capital Spacing lookup 0 per glyph data 2" dx=10 dy=0 dh=20 dv=0
EndChar

StartChar: I
Encoding: 73 73 35
Width: 665
Flags: MW
HStem: 0 72<152 156 156 168> 1151 72<152 152 499 511 510 514>
VStem: 190 283<117 1108>
LayerCount: 2
UndoRedoHistory
Layer: 1
Undoes
EndUndoes
Redoes
EndRedoes
EndUndoRedoHistory
Fore
SplineSet
190 1108 m 2,0,1
 190 1153 190 1153 152 1151 c 2,2,-1
 80 1147 l 1,3,-1
 80 1223 l 1,4,-1
 586 1223 l 1,5,-1
 586 1147 l 1,6,-1
 514 1151 l 1,7,-1
 510 1151 l 2,8,9
 493 1151 493 1151 483 1138.5 c 128,-1,10
 473 1126 473 1126 473 1108 c 2,11,-1
 473 117 l 2,12,13
 473 69 473 69 514 72 c 2,14,-1
 586 76 l 1,15,-1
 586 0 l 1,16,-1
 80 0 l 1,17,-1
 80 76 l 1,18,-1
 152 72 l 1,19,-1
 156 72 l 2,20,21
 190 72 190 72 190 117 c 2,22,-1
 190 1108 l 2,0,1
EndSplineSet
Position2: "'cpsp' Capital Spacing lookup 0 per glyph data 2" dx=10 dy=0 dh=20 dv=0
EndChar

StartChar: IJ
Encoding: 306 306 36
Width: 1605
Flags: MW
HStem: -20 70<972 1037 910 1157> 0 72<152 156 156 168> 10 342<760 773 770 786> 1151 72<152 152 499 510 510 514 1104 1104 1450 1463 1462 1466>
VStem: 190 283<117 1108> 715 90<295 352 295 352 295 352> 1143 283<367 1108 1108 1110>
LayerCount: 2
UndoRedoHistory
Layer: 1
Undoes
EndUndoes
Redoes
EndRedoes
EndUndoRedoHistory
Fore
SplineSet
190 1108 m 2,0,1
 190 1153 190 1153 152 1151 c 2,2,-1
 80 1147 l 1,3,-1
 80 1223 l 1,4,-1
 586 1223 l 1,5,-1
 586 1147 l 1,6,-1
 514 1151 l 1,7,-1
 510 1151 l 2,8,9
 493 1151 493 1151 483 1138.5 c 128,-1,10
 473 1126 473 1126 473 1108 c 2,11,-1
 473 117 l 2,12,13
 473 69 473 69 514 72 c 2,14,-1
 586 76 l 1,15,-1
 586 0 l 1,16,-1
 80 0 l 1,17,-1
 80 76 l 1,18,-1
 152 72 l 1,19,-1
 156 72 l 2,20,21
 190 72 190 72 190 117 c 2,22,-1
 190 1108 l 2,0,1
715 352 m 1,23,-1
 805 352 l 1,24,25
 805 252.805555556 805 252.805555556 831.5 181.402777778 c 0,26,27
 880.639175258 49 880.639175258 49 974.319587629 49 c 128,-1,28
 1068 49 1068 49 1105.5 120.5 c 128,-1,29
 1143 192 1143 192 1143 367 c 2,30,-1
 1143 1108 l 2,31,32
 1143 1127 1143 1127 1132 1139.5 c 128,-1,33
 1121 1152 1121 1152 1104 1151 c 2,34,-1
 963 1147 l 1,35,-1
 963 1223 l 1,36,-1
 1536 1223 l 1,37,-1
 1536 1147 l 1,38,-1
 1466 1151 l 1,39,-1
 1462 1151 l 2,40,41
 1444 1151 1444 1151 1434.5 1138.5 c 128,-1,42
 1425 1126 1425 1126 1425 1110 c 2,43,-1
 1425 367 l 2,44,45
 1425 -20 1425 -20 1026 -20 c 0,46,47
 965 -20 965 -20 886 -5 c 128,-1,48
 807 10 807 10 786 10 c 2,49,-1
 770 10 l 2,50,51
 727 10 727 10 715 -2 c 1,52,-1
 715 352 l 1,23,-1
EndSplineSet
EndChar

StartChar: Iacute
Encoding: 205 205 37
Width: 665
Flags: MW
HStem: 0 72<152 156 156 168> 1151 72<152 152 499 510 510 514>
VStem: 190 283<117 1108>
LayerCount: 2
UndoRedoHistory
Layer: 1
Undoes
EndUndoes
Redoes
EndRedoes
EndUndoRedoHistory
Fore
SplineSet
426 1640 m 2,0,1
 436 1650 436 1650 442 1657.5 c 128,-1,2
 448 1665 448 1665 453.5 1670.5 c 0,3,4
 467.5 1684.5 467.5 1684.5 472.75 1686.25 c 128,-1,5
 478 1688 478 1688 482 1689.5 c 0,6,7
 488.666666667 1692 488.666666667 1692 512.833333333 1692 c 128,-1,8
 537 1692 537 1692 588 1664.5 c 128,-1,9
 639 1637 639 1637 639 1618 c 128,-1,10
 639 1599 639 1599 612 1579 c 1,11,-1
 270 1370 l 1,12,13
 243 1352 243 1352 221 1352 c 128,-1,14
 199 1352 199 1352 199 1372 c 128,-1,15
 199 1392 199 1392 231 1427 c 2,16,-1
 426 1640 l 2,0,1
190 1108 m 2,17,18
 190 1153 190 1153 152 1151 c 2,19,-1
 80 1147 l 1,20,-1
 80 1223 l 1,21,-1
 586 1223 l 1,22,-1
 586 1147 l 1,23,-1
 514 1151 l 1,24,-1
 510 1151 l 2,25,26
 493 1151 493 1151 483 1138.5 c 128,-1,27
 473 1126 473 1126 473 1108 c 2,28,-1
 473 117 l 2,29,30
 473 69 473 69 514 72 c 2,31,-1
 586 76 l 1,32,-1
 586 0 l 1,33,-1
 80 0 l 1,34,-1
 80 76 l 1,35,-1
 152 72 l 1,36,-1
 156 72 l 2,37,38
 190 72 190 72 190 117 c 2,39,-1
 190 1108 l 2,17,18
EndSplineSet
Position2: "'cpsp' Capital Spacing lookup 0 per glyph data 2" dx=10 dy=0 dh=20 dv=0
EndChar

StartChar: Icircumflex
Encoding: 206 206 38
Width: 665
Flags: MW
HStem: 0 72<152 156 156 168> 1151 72<152 152 499 510 510 514> 1524 123<264 332>
VStem: 190 283<117 1108>
LayerCount: 2
UndoRedoHistory
Layer: 1
Undoes
EndUndoes
Redoes
EndRedoes
EndUndoRedoHistory
Fore
SplineSet
496 1548 m 1,0,1
 529 1511 529 1511 571 1470 c 0,2,3
 651 1391.9047619 651 1391.9047619 651 1377.95238095 c 128,-1,4
 651 1364 651 1364 625 1364 c 128,-1,5
 599 1364 599 1364 559 1389 c 1,6,-1
 332 1524 l 1,7,-1
 102 1389 l 1,8,9
 62 1364 62 1364 37 1364 c 128,-1,10
 12 1364 12 1364 12 1380 c 0,11,12
 12 1390.92857143 12 1390.92857143 73.5 1450.96428571 c 128,-1,13
 135 1511 135 1511 168 1548 c 1,14,-1
 264 1647 l 1,15,16
 297 1683 297 1683 330 1683 c 128,-1,17
 363 1683 363 1683 399 1647 c 2,18,-1
 496 1548 l 1,0,1
190 1108 m 2,19,20
 190 1153 190 1153 152 1151 c 2,21,-1
 80 1147 l 1,22,-1
 80 1223 l 1,23,-1
 586 1223 l 1,24,-1
 586 1147 l 1,25,-1
 514 1151 l 1,26,-1
 510 1151 l 2,27,28
 493 1151 493 1151 483 1138.5 c 128,-1,29
 473 1126 473 1126 473 1108 c 2,30,-1
 473 117 l 2,31,32
 473 69 473 69 514 72 c 2,33,-1
 586 76 l 1,34,-1
 586 0 l 1,35,-1
 80 0 l 1,36,-1
 80 76 l 1,37,-1
 152 72 l 1,38,-1
 156 72 l 2,39,40
 190 72 190 72 190 117 c 2,41,-1
 190 1108 l 2,19,20
EndSplineSet
Position2: "'cpsp' Capital Spacing lookup 0 per glyph data 2" dx=10 dy=0 dh=20 dv=0
EndChar

StartChar: Idieresis
Encoding: 207 207 39
Width: 665
Flags: MW
HStem: 0 72<152 156 156 168> 1151 72<152 152 499 510 510 514> 1395 258<69 160 69 161 501 592>
VStem: -43 315<1484 1563> 190 283<117 1108> 389 315<1484 1563>
LayerCount: 2
UndoRedoHistory
Layer: 1
Undoes
EndUndoes
Redoes
EndRedoes
EndUndoRedoHistory
Fore
SplineSet
1 1430 m 128,-1,1
 -43 1465 -43 1465 -43 1523.5 c 128,-1,2
 -43 1582 -43 1582 1 1617.5 c 128,-1,3
 45 1653 45 1653 114 1653 c 128,-1,4
 183 1653 183 1653 227.5 1617.5 c 128,-1,5
 272 1582 272 1582 272 1523.5 c 128,-1,6
 272 1465 272 1465 228.5 1430 c 128,-1,7
 185 1395 185 1395 115 1395 c 128,-1,0
 45 1395 45 1395 1 1430 c 128,-1,1
433 1430 m 128,-1,9
 389 1465 389 1465 389 1523.5 c 128,-1,10
 389 1582 389 1582 433 1617.5 c 128,-1,11
 477 1653 477 1653 546 1653 c 128,-1,12
 615 1653 615 1653 660 1617.5 c 128,-1,13
 705 1582 705 1582 705 1523.5 c 128,-1,14
 705 1465 705 1465 661 1430 c 128,-1,15
 617 1395 617 1395 547 1395 c 128,-1,8
 477 1395 477 1395 433 1430 c 128,-1,9
190 1108 m 2,16,17
 190 1153 190 1153 152 1151 c 2,18,-1
 80 1147 l 1,19,-1
 80 1223 l 1,20,-1
 586 1223 l 1,21,-1
 586 1147 l 1,22,-1
 514 1151 l 1,23,-1
 510 1151 l 2,24,25
 493 1151 493 1151 483 1138.5 c 128,-1,26
 473 1126 473 1126 473 1108 c 2,27,-1
 473 117 l 2,28,29
 473 69 473 69 514 72 c 2,30,-1
 586 76 l 1,31,-1
 586 0 l 1,32,-1
 80 0 l 1,33,-1
 80 76 l 1,34,-1
 152 72 l 1,35,-1
 156 72 l 2,36,37
 190 72 190 72 190 117 c 2,38,-1
 190 1108 l 2,16,17
EndSplineSet
Position2: "'cpsp' Capital Spacing lookup 0 per glyph data 2" dx=10 dy=0 dh=20 dv=0
EndChar

StartChar: Idotaccent
Encoding: 304 304 40
Width: 665
Flags: MW
HStem: 0 72<152 156 156 168> 1151 72<152 152 499 510 510 514> 1395 258<286 377 286 378>
VStem: 174 315<1484 1563> 190 283<117 1108>
LayerCount: 2
UndoRedoHistory
Layer: 1
Undoes
EndUndoes
Redoes
EndRedoes
EndUndoRedoHistory
Fore
SplineSet
218 1430 m 128,-1,1
 174 1465 174 1465 174 1523.5 c 128,-1,2
 174 1582 174 1582 218 1617.5 c 128,-1,3
 262 1653 262 1653 331 1653 c 128,-1,4
 400 1653 400 1653 444.5 1617.5 c 128,-1,5
 489 1582 489 1582 489 1523.5 c 128,-1,6
 489 1465 489 1465 445.5 1430 c 128,-1,7
 402 1395 402 1395 332 1395 c 128,-1,0
 262 1395 262 1395 218 1430 c 128,-1,1
190 1108 m 2,8,9
 190 1153 190 1153 152 1151 c 2,10,-1
 80 1147 l 1,11,-1
 80 1223 l 1,12,-1
 586 1223 l 1,13,-1
 586 1147 l 1,14,-1
 514 1151 l 1,15,-1
 510 1151 l 2,16,17
 493 1151 493 1151 483 1138.5 c 128,-1,18
 473 1126 473 1126 473 1108 c 2,19,-1
 473 117 l 2,20,21
 473 69 473 69 514 72 c 2,22,-1
 586 76 l 1,23,-1
 586 0 l 1,24,-1
 80 0 l 1,25,-1
 80 76 l 1,26,-1
 152 72 l 1,27,-1
 156 72 l 2,28,29
 190 72 190 72 190 117 c 2,30,-1
 190 1108 l 2,8,9
EndSplineSet
EndChar

StartChar: Igrave
Encoding: 204 204 41
Width: 665
Flags: MW
HStem: 0 72<152 156 156 168> 1151 72<152 152 499 510 510 514>
VStem: 190 283<117 1108>
LayerCount: 2
UndoRedoHistory
Layer: 1
Undoes
EndUndoes
Redoes
EndRedoes
EndUndoRedoHistory
Fore
SplineSet
242 1640 m 2,0,1
 232 1650 232 1650 226 1657.5 c 128,-1,2
 220 1665 220 1665 214.5 1670.5 c 0,3,4
 200.5 1684.5 200.5 1684.5 195.25 1686.25 c 128,-1,5
 190 1688 190 1688 186 1689.5 c 0,6,7
 179.333333333 1692 179.333333333 1692 155.166666667 1692 c 128,-1,8
 131 1692 131 1692 80 1664.5 c 128,-1,9
 29 1637 29 1637 29 1617.5 c 128,-1,10
 29 1598 29 1598 55 1579 c 1,11,-1
 397 1370 l 1,12,13
 424 1352 424 1352 446.5 1352 c 128,-1,14
 469 1352 469 1352 469 1371.5 c 128,-1,15
 469 1391 469 1391 436 1427 c 2,16,-1
 242 1640 l 2,0,1
190 1108 m 2,17,18
 190 1153 190 1153 152 1151 c 2,19,-1
 80 1147 l 1,20,-1
 80 1223 l 1,21,-1
 586 1223 l 1,22,-1
 586 1147 l 1,23,-1
 514 1151 l 1,24,-1
 510 1151 l 2,25,26
 493 1151 493 1151 483 1138.5 c 128,-1,27
 473 1126 473 1126 473 1108 c 2,28,-1
 473 117 l 2,29,30
 473 69 473 69 514 72 c 2,31,-1
 586 76 l 1,32,-1
 586 0 l 1,33,-1
 80 0 l 1,34,-1
 80 76 l 1,35,-1
 152 72 l 1,36,-1
 156 72 l 2,37,38
 190 72 190 72 190 117 c 2,39,-1
 190 1108 l 2,17,18
EndSplineSet
Position2: "'cpsp' Capital Spacing lookup 0 per glyph data 2" dx=10 dy=0 dh=20 dv=0
EndChar

StartChar: Imacron
Encoding: 298 298 42
Width: 665
Flags: MW
HStem: 0 72<152 156 156 168> 1151 72<152 152 499 510 510 514> 1432 96<86 575 86 575>
VStem: 86 489<1432 1528 1432 1528> 190 283<117 1108>
LayerCount: 2
UndoRedoHistory
Layer: 1
Undoes
EndUndoes
Redoes
EndRedoes
EndUndoRedoHistory
Fore
SplineSet
86 1528 m 1,0,-1
 575 1528 l 1,1,-1
 575 1432 l 1,2,-1
 86 1432 l 1,3,-1
 86 1528 l 1,0,-1
190 1108 m 2,4,5
 190 1153 190 1153 152 1151 c 2,6,-1
 80 1147 l 1,7,-1
 80 1223 l 1,8,-1
 586 1223 l 1,9,-1
 586 1147 l 1,10,-1
 514 1151 l 1,11,-1
 510 1151 l 2,12,13
 493 1151 493 1151 483 1138.5 c 128,-1,14
 473 1126 473 1126 473 1108 c 2,15,-1
 473 117 l 2,16,17
 473 69 473 69 514 72 c 2,18,-1
 586 76 l 1,19,-1
 586 0 l 1,20,-1
 80 0 l 1,21,-1
 80 76 l 1,22,-1
 152 72 l 1,23,-1
 156 72 l 2,24,25
 190 72 190 72 190 117 c 2,26,-1
 190 1108 l 2,4,5
EndSplineSet
EndChar

StartChar: Iogonek
Encoding: 302 302 43
Width: 665
Flags: MW
HStem: -332 119<488 495> 0 72<152 156 156 168 152 397> 1151 72<152 152 499 510 510 514>
VStem: 190 283<117 1108> 285 137<-233 -95>
LayerCount: 2
UndoRedoHistory
Layer: 1
Undoes
EndUndoes
Redoes
EndRedoes
EndUndoRedoHistory
Fore
SplineSet
190 1108 m 2,0,1
 190 1153 190 1153 152 1151 c 2,2,-1
 80 1147 l 1,3,-1
 80 1223 l 1,4,-1
 586 1223 l 1,5,-1
 586 1147 l 1,6,-1
 514 1151 l 1,7,-1
 510 1151 l 2,8,9
 493 1151 493 1151 483 1138.5 c 128,-1,10
 473 1126 473 1126 473 1108 c 2,11,-1
 473 117 l 2,12,13
 473 69 473 69 514 72 c 2,14,-1
 586 76 l 1,15,-1
 586 0 l 1,16,-1
 475 0 l 1,17,18
 422 -44 422 -44 422 -119 c 0,19,20
 422 -160 422 -160 447.5 -186.5 c 128,-1,21
 473 -213 473 -213 534.5 -213 c 128,-1,22
 596 -213 596 -213 668 -170 c 1,23,-1
 692 -209 l 1,24,25
 585 -332 585 -332 451 -332 c 0,26,27
 383 -332 383 -332 334 -293 c 128,-1,28
 285 -254 285 -254 285 -184 c 0,29,30
 285 -69 285 -69 397 0 c 1,31,-1
 80 0 l 1,32,-1
 80 76 l 1,33,-1
 152 72 l 1,34,-1
 156 72 l 2,35,36
 190 72 190 72 190 117 c 2,37,-1
 190 1108 l 2,0,1
EndSplineSet
EndChar

StartChar: J
Encoding: 74 74 44
Width: 940
Flags: MW
HStem: -20 70<306 372 245 492> 10 342<94 108 104 121> 1151 72<438 438 784 798 797 801>
VStem: 49 90<295 352 295 352 295 352> 477 283<367 1108 1108 1110>
LayerCount: 2
UndoRedoHistory
Layer: 1
Undoes
EndUndoes
Redoes
EndRedoes
EndUndoRedoHistory
Fore
SplineSet
49 352 m 5,0,-1
 139 352 l 5,1,2
 139 252.805555556 139 252.805555556 165.5 181.402777778 c 4,3,4
 214.639175258 49 214.639175258 49 308.319587629 49 c 132,-1,5
 402 49 402 49 439.5 120.5 c 132,-1,6
 477 192 477 192 477 367 c 6,7,-1
 477 1108 l 6,8,9
 477 1127 477 1127 466 1139.5 c 132,-1,10
 455 1152 455 1152 438 1151 c 6,11,-1
 297 1147 l 5,12,-1
 297 1223 l 5,13,-1
 870 1223 l 5,14,-1
 870 1147 l 5,15,-1
 801 1151 l 5,16,-1
 797 1151 l 6,17,18
 779 1151 779 1151 769.5 1138.5 c 132,-1,19
 760 1126 760 1126 760 1110 c 6,20,-1
 760 367 l 6,21,22
 760 -20 760 -20 360 -20 c 4,23,24
 299 -20 299 -20 220.5 -5 c 132,-1,25
 142 10 142 10 121 10 c 6,26,-1
 104 10 l 6,27,28
 61 10 61 10 49 -2 c 5,29,-1
 49 352 l 5,0,-1
EndSplineSet
Position2: "'cpsp' Capital Spacing lookup 0 per glyph data 2" dx=10 dy=0 dh=20 dv=0
EndChar

StartChar: K
Encoding: 75 75 45
Width: 1308
Flags: MW
HStem: 0 70<801 807 807 822 1226 1245> 1151 72<152 152 501 514 915 923 1141 1141>
VStem: 190 283<117 459 569 1106> 842 369<1147 1223 1147 1223>
LayerCount: 2
UndoRedoHistory
Layer: 1
Undoes
EndUndoes
Redoes
EndRedoes
EndUndoRedoHistory
Fore
SplineSet
190 1108 m 2,0,1
 190 1153 190 1153 152 1151 c 2,2,-1
 80 1147 l 1,3,-1
 80 1223 l 1,4,-1
 614 1223 l 1,5,-1
 614 1147 l 1,6,-1
 514 1151 l 1,7,8
 473 1151 473 1151 473 1106 c 2,9,-1
 473 569 l 1,10,-1
 901 1077 l 2,11,12
 936 1118 936 1118 936 1134.5 c 128,-1,13
 936 1151 936 1151 915 1151 c 1,14,-1
 842 1147 l 1,15,-1
 842 1223 l 1,16,-1
 1210 1223 l 1,17,-1
 1210 1147 l 1,18,-1
 1141 1151 l 2,19,20
 1077.84664537 1154.82747604 1077.84664537 1154.82747604 1022 1092 c 1,21,-1
 737 762 l 1,22,-1
 1186 98 l 2,23,24
 1205 70 1205 70 1237 70 c 128,-1,25
 1269 70 1269 70 1296 76 c 1,26,-1
 1296 0 l 1,27,-1
 713 0 l 1,28,-1
 713 76 l 1,29,-1
 801 70 l 1,30,-1
 807 70 l 2,31,32
 863 70 863 70 831 121 c 1,33,-1
 547 545 l 1,34,-1
 473 459 l 1,35,-1
 473 117 l 2,36,37
 473 69 473 69 514 72 c 1,38,-1
 606 76 l 1,39,-1
 606 0 l 1,40,-1
 80 0 l 1,41,-1
 80 76 l 1,42,-1
 152 72 l 1,43,-1
 156 72 l 2,44,45
 190 72 190 72 190 117 c 2,46,-1
 190 1108 l 2,0,1
EndSplineSet
Position2: "'cpsp' Capital Spacing lookup 0 per glyph data 2" dx=10 dy=0 dh=20 dv=0
EndChar

StartChar: Kcommaaccent
Encoding: 310 310 46
Width: 1308
Flags: MW
HStem: -289 219<627 641> 0 70<801 807 807 817 1226 1245> 1151 72<152 152 501 514 915 923 1141 1141>
VStem: 190 283<117 459 569 1106> 684 150<-367 -187> 842 369<1147 1223 1147 1223>
LayerCount: 2
UndoRedoHistory
Layer: 1
Undoes
EndUndoes
Redoes
EndRedoes
EndUndoRedoHistory
Fore
SplineSet
190 1108 m 2,0,1
 190 1153 190 1153 152 1151 c 2,2,-1
 80 1147 l 1,3,-1
 80 1223 l 1,4,-1
 614 1223 l 1,5,-1
 614 1147 l 1,6,-1
 514 1151 l 1,7,8
 473 1151 473 1151 473 1106 c 2,9,-1
 473 569 l 1,10,-1
 901 1077 l 2,11,12
 936 1118 936 1118 936 1134.5 c 128,-1,13
 936 1151 936 1151 915 1151 c 1,14,-1
 842 1147 l 1,15,-1
 842 1223 l 1,16,-1
 1210 1223 l 1,17,-1
 1210 1147 l 1,18,-1
 1141 1151 l 2,19,20
 1077.84664537 1154.82747604 1077.84664537 1154.82747604 1022 1092 c 1,21,-1
 737 762 l 1,22,-1
 1186 98 l 2,23,24
 1205 70 1205 70 1237 70 c 128,-1,25
 1269 70 1269 70 1296 76 c 1,26,-1
 1296 0 l 1,27,-1
 713 0 l 1,28,-1
 713 76 l 1,29,-1
 801 70 l 1,30,-1
 807 70 l 2,31,32
 842 70 842 70 842 92 c 0,33,34
 842 104 842 104 831 121 c 2,35,-1
 547 545 l 1,36,-1
 473 459 l 1,37,-1
 473 117 l 2,38,39
 473 69 473 69 514 72 c 1,40,-1
 606 76 l 1,41,-1
 606 0 l 1,42,-1
 80 0 l 1,43,-1
 80 76 l 1,44,-1
 152 72 l 1,45,-1
 156 72 l 2,46,47
 190 72 190 72 190 117 c 2,48,-1
 190 1108 l 2,0,1
586 -469 m 1,49,50
 626 -445 626 -445 655 -410 c 128,-1,51
 684 -375 684 -375 684 -348 c 0,52,53
 684 -289 684 -289 627 -289 c 0,54,55
 589 -289 589 -289 566 -259 c 128,-1,56
 543 -229 543 -229 543 -184.5 c 128,-1,57
 543 -140 543 -140 576 -105 c 128,-1,58
 609 -70 609 -70 676.5 -70 c 128,-1,59
 744 -70 744 -70 789 -117 c 128,-1,60
 834 -164 834 -164 834 -241.5 c 128,-1,61
 834 -319 834 -319 774.5 -395.5 c 128,-1,62
 715 -472 715 -472 631 -514 c 1,63,-1
 586 -469 l 1,49,50
EndSplineSet
EndChar

StartChar: L
Encoding: 76 76 47
Width: 1052
Flags: MW
HStem: 0 74<498 668 668 754> 1151 72<152 152 499 511 510 514>
VStem: 190 283<117 1108> 940 68<260 350>
LayerCount: 2
UndoRedoHistory
Layer: 1
Undoes
EndUndoes
Redoes
EndRedoes
EndUndoRedoHistory
Fore
SplineSet
80 78 m 1,0,-1
 160 72 l 1,1,2
 190 72 190 72 190 117 c 2,3,-1
 190 1108 l 2,4,5
 190 1126 190 1126 179.5 1139 c 128,-1,6
 169 1152 169 1152 152 1151 c 2,7,-1
 80 1147 l 1,8,-1
 80 1223 l 1,9,-1
 614 1223 l 1,10,-1
 614 1147 l 1,11,-1
 514 1151 l 1,12,-1
 510 1151 l 2,13,14
 493 1151 493 1151 483 1138.5 c 128,-1,15
 473 1126 473 1126 473 1108 c 2,16,-1
 473 100 l 2,17,18
 473 74 473 74 498 74 c 2,19,-1
 668 74 l 2,20,21
 801 74 801 74 870.5 144.5 c 128,-1,22
 940 215 940 215 940 350 c 1,23,-1
 1008 350 l 1,24,-1
 1008 -6 l 1,25,26
 970 0 970 0 754 0 c 2,27,-1
 80 0 l 1,28,-1
 80 78 l 1,0,-1
EndSplineSet
Position2: "Single Positioning lookup 3 subtable" dx=0 dy=0 dh=-82 dv=0
Position2: "'cpsp' Capital Spacing lookup 0 per glyph data 2" dx=10 dy=0 dh=20 dv=0
EndChar

StartChar: Lacute
Encoding: 313 313 48
Width: 1052
Flags: MW
HStem: 0 74<498 668 668 754> 1151 72<152 152 499 510 510 514>
VStem: 190 283<117 1108> 940 68<260 350>
LayerCount: 2
UndoRedoHistory
Layer: 1
Undoes
EndUndoes
Redoes
EndRedoes
EndUndoRedoHistory
Fore
SplineSet
455 1640 m 1,0,1
 486.764705882 1679.70588235 486.764705882 1679.70588235 493.382352941 1682.35294118 c 128,-1,2
 500 1685 500 1685 505.5 1688 c 0,3,4
 512.833333333 1692 512.833333333 1692 538.916666667 1692 c 128,-1,5
 565 1692 565 1692 616.5 1664.5 c 128,-1,6
 668 1637 668 1637 668 1618 c 128,-1,7
 668 1599 668 1599 641 1579 c 1,8,-1
 299 1370 l 1,9,10
 272 1352 272 1352 249.5 1352 c 128,-1,11
 227 1352 227 1352 227 1371.5 c 128,-1,12
 227 1391 227 1391 260 1427 c 2,13,-1
 455 1640 l 1,0,1
160 72 m 1,14,15
 190 72 190 72 190 117 c 2,16,-1
 190 1108 l 2,17,18
 190 1126 190 1126 179.5 1139 c 128,-1,19
 169 1152 169 1152 152 1151 c 2,20,-1
 80 1147 l 1,21,-1
 80 1223 l 1,22,-1
 614 1223 l 1,23,-1
 614 1147 l 1,24,-1
 514 1151 l 1,25,-1
 510 1151 l 2,26,27
 493 1151 493 1151 483 1138.5 c 128,-1,28
 473 1126 473 1126 473 1108 c 2,29,-1
 473 100 l 2,30,31
 473 74 473 74 498 74 c 2,32,-1
 668 74 l 2,33,34
 801 74 801 74 870.5 144.5 c 128,-1,35
 940 215 940 215 940 350 c 1,36,-1
 1008 350 l 1,37,-1
 1008 -6 l 1,38,39
 970 0 970 0 754 0 c 2,40,-1
 80 0 l 1,41,-1
 80 78 l 1,42,-1
 160 72 l 1,14,15
EndSplineSet
EndChar

StartChar: Lcaron
Encoding: 317 317 49
Width: 1052
Flags: MW
HStem: 0 74<498 668 668 754> 1077 199<828 942> 1151 72<152 152 499 510 510 514>
VStem: 190 283<117 1108> 895 150<1014 1175> 940 68<260 350>
LayerCount: 2
UndoRedoHistory
Layer: 1
Undoes
EndUndoes
Redoes
EndRedoes
EndUndoRedoHistory
Fore
SplineSet
819 928 m 1,0,1
 895 979 895 979 895 1028 c 0,2,3
 895 1077 895 1077 852 1077 c 0,4,5
 817 1077 817 1077 795.5 1101 c 128,-1,6
 774 1125 774 1125 774 1169.5 c 0,7,8
 774 1214 774 1214 810 1245 c 128,-1,9
 846 1276 846 1276 904.5 1276 c 0,10,11
 963 1276 963 1276 1003.5 1236 c 128,-1,12
 1044 1196 1044 1196 1044 1125.5 c 0,13,14
 1044 1055 1044 1055 989.5 987 c 128,-1,15
 935 919 935 919 862 883 c 1,16,-1
 819 928 l 1,0,1
160 72 m 1,17,18
 190 72 190 72 190 117 c 2,19,-1
 190 1108 l 2,20,21
 190 1126 190 1126 179.5 1139 c 128,-1,22
 169 1152 169 1152 152 1151 c 2,23,-1
 80 1147 l 1,24,-1
 80 1223 l 1,25,-1
 614 1223 l 1,26,-1
 614 1147 l 1,27,-1
 514 1151 l 1,28,-1
 510 1151 l 2,29,30
 493 1151 493 1151 483 1138.5 c 128,-1,31
 473 1126 473 1126 473 1108 c 2,32,-1
 473 100 l 2,33,34
 473 74 473 74 498 74 c 2,35,-1
 668 74 l 2,36,37
 801 74 801 74 870.5 144.5 c 128,-1,38
 940 215 940 215 940 350 c 1,39,-1
 1008 350 l 1,40,-1
 1008 -6 l 1,41,42
 970 0 970 0 754 0 c 2,43,-1
 80 0 l 1,44,-1
 80 78 l 1,45,-1
 160 72 l 1,17,18
EndSplineSet
EndChar

StartChar: Lcommaaccent
Encoding: 315 315 50
Width: 1052
Flags: MW
HStem: -289 219<492 506> 0 74<498 668 668 754> 1151 72<152 152 499 510 510 514>
VStem: 190 283<117 1108> 549 150<-367 -187> 940 68<260 350>
LayerCount: 2
UndoRedoHistory
Layer: 1
Undoes
EndUndoes
Redoes
EndRedoes
EndUndoRedoHistory
Fore
SplineSet
160 72 m 1,0,1
 190 72 190 72 190 117 c 2,2,-1
 190 1108 l 2,3,4
 190 1126 190 1126 179.5 1139 c 128,-1,5
 169 1152 169 1152 152 1151 c 2,6,-1
 80 1147 l 1,7,-1
 80 1223 l 1,8,-1
 614 1223 l 1,9,-1
 614 1147 l 1,10,-1
 514 1151 l 1,11,-1
 510 1151 l 2,12,13
 493 1151 493 1151 483 1138.5 c 128,-1,14
 473 1126 473 1126 473 1108 c 2,15,-1
 473 100 l 2,16,17
 473 74 473 74 498 74 c 2,18,-1
 668 74 l 2,19,20
 801 74 801 74 870.5 144.5 c 128,-1,21
 940 215 940 215 940 350 c 1,22,-1
 1008 350 l 1,23,-1
 1008 -6 l 1,24,25
 970 0 970 0 754 0 c 2,26,-1
 80 0 l 1,27,-1
 80 78 l 1,28,-1
 160 72 l 1,0,1
451 -469 m 1,29,30
 491 -445 491 -445 520 -410 c 128,-1,31
 549 -375 549 -375 549 -348 c 0,32,33
 549 -289 549 -289 492 -289 c 0,34,35
 454 -289 454 -289 431 -259 c 128,-1,36
 408 -229 408 -229 408 -184.5 c 0,37,38
 408 -140 408 -140 441 -105 c 128,-1,39
 474 -70 474 -70 541.5 -70 c 0,40,41
 609 -70 609 -70 653.5 -117 c 128,-1,42
 698 -164 698 -164 698 -241.5 c 0,43,44
 698 -319 698 -319 639 -395.5 c 128,-1,45
 580 -472 580 -472 496 -514 c 1,46,-1
 451 -469 l 1,29,30
EndSplineSet
EndChar

StartChar: Ldot
Encoding: 319 319 51
Width: 1052
Flags: MW
HStem: 0 74<498 668 668 754> 551 307<800 909> 1151 72<152 152 499 510 510 514>
VStem: 190 283<117 1108> 940 68<260 350>
LayerCount: 2
UndoRedoHistory
Layer: 1
Undoes
EndUndoes
Redoes
EndRedoes
EndUndoRedoHistory
Fore
SplineSet
160 72 m 1,0,1
 190 72 190 72 190 117 c 2,2,-1
 190 1108 l 2,3,4
 190 1126 190 1126 179.5 1139 c 128,-1,5
 169 1152 169 1152 152 1151 c 2,6,-1
 80 1147 l 1,7,-1
 80 1223 l 1,8,-1
 614 1223 l 1,9,-1
 614 1147 l 1,10,-1
 514 1151 l 1,11,-1
 510 1151 l 2,12,13
 493 1151 493 1151 483 1138.5 c 128,-1,14
 473 1126 473 1126 473 1108 c 2,15,-1
 473 100 l 2,16,17
 473 74 473 74 498 74 c 2,18,-1
 668 74 l 2,19,20
 801 74 801 74 870.5 144.5 c 128,-1,21
 940 215 940 215 940 350 c 1,22,-1
 1008 350 l 1,23,-1
 1008 -6 l 1,24,25
 970 0 970 0 754 0 c 2,26,-1
 80 0 l 1,27,-1
 80 78 l 1,28,-1
 160 72 l 1,0,1
718.5 592.5 m 128,-1,30
 666 634 666 634 666 704.5 c 128,-1,31
 666 775 666 775 718.5 816.5 c 128,-1,32
 771 858 771 858 854.5 858 c 128,-1,33
 938 858 938 858 991 816.5 c 128,-1,34
 1044 775 1044 775 1044 704.5 c 128,-1,35
 1044 634 1044 634 991.5 592.5 c 128,-1,36
 939 551 939 551 855 551 c 128,-1,29
 771 551 771 551 718.5 592.5 c 128,-1,30
EndSplineSet
Ligature2: "Ligature Substitution lookup 16 subtable" L periodcentered
EndChar

StartChar: Lslash
Encoding: 321 321 52
Width: 1052
Flags: MW
HStem: 0 74<498 668 668 754> 1151 72<152 152 499 510 510 514>
VStem: 190 283<117 418 418 418 524 639 748 1108> 940 68<260 350>
LayerCount: 2
UndoRedoHistory
Layer: 1
Undoes
EndUndoes
Redoes
EndRedoes
EndUndoRedoHistory
Fore
SplineSet
1008 350 m 1,0,-1
 1008 -6 l 1,1,2
 970 0 970 0 754 0 c 2,3,-1
 80 0 l 1,4,-1
 80 78 l 1,5,-1
 160 72 l 1,6,7
 190 72 190 72 190 117 c 2,8,-1
 190 418 l 1,9,-1
 102 344 l 1,10,-1
 102 451 l 1,11,-1
 190 524 l 1,12,-1
 190 1108 l 2,13,14
 190 1126 190 1126 179.5 1139 c 128,-1,15
 169 1152 169 1152 152 1151 c 2,16,-1
 80 1147 l 1,17,-1
 80 1223 l 1,18,-1
 614 1223 l 1,19,-1
 614 1147 l 1,20,-1
 514 1151 l 1,21,-1
 510 1151 l 2,22,23
 493 1151 493 1151 483 1138.5 c 128,-1,24
 473 1126 473 1126 473 1108 c 2,25,-1
 473 748 l 1,26,-1
 690 930 l 1,27,-1
 690 817 l 1,28,-1
 473 639 l 1,29,-1
 473 100 l 2,30,31
 473 74 473 74 498 74 c 2,32,-1
 668 74 l 2,33,34
 801 74 801 74 870.5 144.5 c 128,-1,35
 940 215 940 215 940 350 c 1,36,-1
 1008 350 l 1,0,-1
EndSplineSet
Position2: "'cpsp' Capital Spacing lookup 0 per glyph data 2" dx=10 dy=0 dh=20 dv=0
EndChar

StartChar: M
Encoding: 77 77 53
Width: 1810
Flags: MW
HStem: 0 72<150 163 300 313 1296 1310> 1151 72<170 170 1644 1656 1655 1659>
VStem: 190 84<117 1079> 1337 281<117 1026 1026 1026>
LayerCount: 2
UndoRedoHistory
Layer: 1
Undoes
EndUndoes
Redoes
EndRedoes
EndUndoRedoHistory
Fore
SplineSet
1733 76 m 1,0,-1
 1733 0 l 1,1,-1
 1196 0 l 1,2,-1
 1196 76 l 1,3,-1
 1296 72 l 1,4,5
 1337 72 1337 72 1337 117 c 2,6,-1
 1337 1026 l 1,7,-1
 866 -20 l 1,8,-1
 801 -20 l 1,9,-1
 274 1079 l 1,10,-1
 274 117 l 2,11,12
 274 72 274 72 313 72 c 1,13,-1
 414 76 l 1,14,-1
 414 0 l 1,15,-1
 70 0 l 1,16,-1
 70 76 l 1,17,-1
 150 72 l 1,18,19
 190 72 190 72 190 117 c 2,20,-1
 190 1139 l 2,21,22
 190 1154 190 1154 170 1151 c 1,23,-1
 84 1147 l 1,24,-1
 84 1223 l 1,25,-1
 506 1223 l 1,26,-1
 936 330 l 1,27,-1
 1339 1223 l 1,28,-1
 1722 1223 l 1,29,-1
 1722 1147 l 1,30,-1
 1659 1151 l 1,31,-1
 1655 1151 l 2,32,33
 1639 1151 1639 1151 1628.5 1138.5 c 128,-1,34
 1618 1126 1618 1126 1618 1110 c 2,35,-1
 1618 117 l 2,36,37
 1618 69 1618 69 1659 72 c 2,38,-1
 1733 76 l 1,0,-1
EndSplineSet
Position2: "'cpsp' Capital Spacing lookup 0 per glyph data 2" dx=10 dy=0 dh=20 dv=0
EndChar

StartChar: N
Encoding: 78 78 54
Width: 1386
Flags: MW
HStem: 0 55<150 163 300 313> 1165 57<150 150 1073 1073 1073 1079 1222 1233 1233 1237>
VStem: 190 84<100 1075> 1114 84<375 1122 -12 1124 -12 1138>
LayerCount: 2
UndoRedoHistory
Layer: 1
Undoes
EndUndoes
Redoes
EndRedoes
EndUndoRedoHistory
Fore
SplineSet
1317 1223 m 1,0,-1
 1317 1161 l 1,1,-1
 1237 1165 l 1,2,-1
 1233 1165 l 2,3,4
 1198 1165 1198 1165 1198 1122 c 2,5,-1
 1198 -12 l 1,6,-1
 1075 -12 l 1,7,-1
 274 1075 l 1,8,-1
 274 100 l 2,9,10
 274 55 274 55 313 55 c 1,11,-1
 414 59 l 1,12,-1
 414 0 l 1,13,-1
 70 0 l 1,14,-1
 70 59 l 1,15,-1
 150 55 l 1,16,17
 190 55 190 55 190 100 c 2,18,-1
 190 1122 l 2,19,20
 190 1141 190 1141 179.5 1153.5 c 128,-1,21
 169 1166 169 1166 150 1165 c 2,22,-1
 70 1161 l 1,23,-1
 70 1223 l 1,24,-1
 492 1223 l 1,25,-1
 1114 375 l 1,26,-1
 1114 1124 l 2,27,28
 1114 1165 1114 1165 1079 1165 c 2,29,-1
 1073 1165 l 1,30,-1
 973 1161 l 1,31,-1
 973 1223 l 1,32,-1
 1317 1223 l 1,0,-1
EndSplineSet
Position2: "'cpsp' Capital Spacing lookup 0 per glyph data 2" dx=10 dy=0 dh=20 dv=0
EndChar

StartChar: Nacute
Encoding: 323 323 55
Width: 1386
Flags: MW
HStem: 0 55<150 163 300 313> 1165 57<150 150 1073 1073 1073 1079 1222 1233 1233 1237>
VStem: 190 84<100 1075> 1114 84<375 1122 -12 1124 -12 1138>
LayerCount: 2
UndoRedoHistory
Layer: 1
Undoes
EndUndoes
Redoes
EndRedoes
EndUndoRedoHistory
Fore
SplineSet
793 1640 m 1,0,1
 824.764705882 1679.70588235 824.764705882 1679.70588235 831.382352941 1682.35294118 c 128,-1,2
 838 1685 838 1685 843.5 1688 c 0,3,4
 850.833333333 1692 850.833333333 1692 876.916666667 1692 c 128,-1,5
 903 1692 903 1692 954.5 1664.5 c 128,-1,6
 1006 1637 1006 1637 1006 1618 c 128,-1,7
 1006 1599 1006 1599 979 1579 c 1,8,-1
 637 1370 l 1,9,10
 610 1352 610 1352 587.5 1352 c 128,-1,11
 565 1352 565 1352 565 1371.5 c 128,-1,12
 565 1391 565 1391 598 1427 c 2,13,-1
 793 1640 l 1,0,1
1317 1161 m 1,14,-1
 1237 1165 l 1,15,-1
 1233 1165 l 2,16,17
 1198 1165 1198 1165 1198 1122 c 2,18,-1
 1198 -12 l 1,19,-1
 1075 -12 l 1,20,-1
 274 1075 l 1,21,-1
 274 100 l 2,22,23
 274 55 274 55 313 55 c 1,24,-1
 414 59 l 1,25,-1
 414 0 l 1,26,-1
 70 0 l 1,27,-1
 70 59 l 1,28,-1
 150 55 l 1,29,30
 190 55 190 55 190 100 c 2,31,-1
 190 1122 l 2,32,33
 190 1141 190 1141 179.5 1153.5 c 128,-1,34
 169 1166 169 1166 150 1165 c 2,35,-1
 70 1161 l 1,36,-1
 70 1223 l 1,37,-1
 492 1223 l 1,38,-1
 1114 375 l 1,39,-1
 1114 1124 l 2,40,41
 1114 1165 1114 1165 1079 1165 c 2,42,-1
 1073 1165 l 1,43,-1
 973 1161 l 1,44,-1
 973 1223 l 1,45,-1
 1317 1223 l 1,46,-1
 1317 1161 l 1,14,-1
EndSplineSet
EndChar

StartChar: Ncaron
Encoding: 327 327 56
Width: 1386
Flags: MW
HStem: 0 55<150 163 300 313> 1165 57<150 150 1073 1073 1073 1079 1222 1233 1233 1237> 1405 123<633 700 700 768>
VStem: 190 84<100 1075> 1114 84<375 1122 -12 1124 -12 1138>
LayerCount: 2
UndoRedoHistory
Layer: 1
Undoes
EndUndoes
Redoes
EndRedoes
EndUndoRedoHistory
Fore
SplineSet
537 1503 m 1,0,1
 504 1540 504 1540 462 1581 c 0,2,3
 381 1660.07142857 381 1660.07142857 381 1674.03571429 c 128,-1,4
 381 1688 381 1688 407 1688 c 128,-1,5
 433 1688 433 1688 473 1663 c 1,6,-1
 700 1528 l 1,7,-1
 930 1663 l 1,8,9
 970 1688 970 1688 995 1688 c 128,-1,10
 1020 1688 1020 1688 1020 1671 c 0,11,12
 1020 1660.07142857 1020 1660.07142857 958.5 1600.03571429 c 128,-1,13
 897 1540 897 1540 864 1503 c 1,14,-1
 768 1405 l 1,15,16
 734 1368 734 1368 702 1368 c 128,-1,17
 670 1368 670 1368 633 1405 c 2,18,-1
 537 1503 l 1,0,1
1317 1161 m 1,19,-1
 1237 1165 l 1,20,-1
 1233 1165 l 2,21,22
 1198 1165 1198 1165 1198 1122 c 2,23,-1
 1198 -12 l 1,24,-1
 1075 -12 l 1,25,-1
 274 1075 l 1,26,-1
 274 100 l 2,27,28
 274 55 274 55 313 55 c 1,29,-1
 414 59 l 1,30,-1
 414 0 l 1,31,-1
 70 0 l 1,32,-1
 70 59 l 1,33,-1
 150 55 l 1,34,35
 190 55 190 55 190 100 c 2,36,-1
 190 1122 l 2,37,38
 190 1141 190 1141 179.5 1153.5 c 128,-1,39
 169 1166 169 1166 150 1165 c 2,40,-1
 70 1161 l 1,41,-1
 70 1223 l 1,42,-1
 492 1223 l 1,43,-1
 1114 375 l 1,44,-1
 1114 1124 l 2,45,46
 1114 1165 1114 1165 1079 1165 c 2,47,-1
 1073 1165 l 1,48,-1
 973 1161 l 1,49,-1
 973 1223 l 1,50,-1
 1317 1223 l 1,51,-1
 1317 1161 l 1,19,-1
EndSplineSet
EndChar

StartChar: Ncommaaccent
Encoding: 325 325 57
Width: 1386
Flags: MW
HStem: -289 219<666 680> 0 55<150 163 300 313> 1165 57<150 150 1073 1073 1073 1079 1222 1233 1233 1237>
VStem: 190 84<100 1075> 723 150<-367 -187> 1114 84<375 1122 -12 1124 -12 1138>
LayerCount: 2
UndoRedoHistory
Layer: 1
Undoes
EndUndoes
Redoes
EndRedoes
EndUndoRedoHistory
Fore
SplineSet
1317 1161 m 1,0,-1
 1237 1165 l 1,1,-1
 1233 1165 l 2,2,3
 1198 1165 1198 1165 1198 1122 c 2,4,-1
 1198 -12 l 1,5,-1
 1075 -12 l 1,6,-1
 274 1075 l 1,7,-1
 274 100 l 2,8,9
 274 55 274 55 313 55 c 1,10,-1
 414 59 l 1,11,-1
 414 0 l 1,12,-1
 70 0 l 1,13,-1
 70 59 l 1,14,-1
 150 55 l 1,15,16
 190 55 190 55 190 100 c 2,17,-1
 190 1122 l 2,18,19
 190 1141 190 1141 179.5 1153.5 c 128,-1,20
 169 1166 169 1166 150 1165 c 2,21,-1
 70 1161 l 1,22,-1
 70 1223 l 1,23,-1
 492 1223 l 1,24,-1
 1114 375 l 1,25,-1
 1114 1124 l 2,26,27
 1114 1165 1114 1165 1079 1165 c 2,28,-1
 1073 1165 l 1,29,-1
 973 1161 l 1,30,-1
 973 1223 l 1,31,-1
 1317 1223 l 1,32,-1
 1317 1161 l 1,0,-1
625 -469 m 1,33,34
 665 -445 665 -445 694 -410 c 128,-1,35
 723 -375 723 -375 723 -348 c 0,36,37
 723 -289 723 -289 666 -289 c 0,38,39
 628 -289 628 -289 605 -259 c 128,-1,40
 582 -229 582 -229 582 -184.5 c 0,41,42
 582 -140 582 -140 615 -105 c 128,-1,43
 648 -70 648 -70 715.5 -70 c 0,44,45
 783 -70 783 -70 827.5 -117 c 128,-1,46
 872 -164 872 -164 872 -241.5 c 0,47,48
 872 -319 872 -319 813 -395.5 c 128,-1,49
 754 -472 754 -472 670 -514 c 1,50,-1
 625 -469 l 1,33,34
EndSplineSet
EndChar

StartChar: Ntilde
Encoding: 209 209 58
Width: 1386
Flags: MW
HStem: 0 55<150 163 300 313> 1165 57<150 150 1073 1073 1073 1079 1222 1233 1233 1237> 1374 125<831 890 831 908> 1456 123<513 571>
VStem: 190 84<100 1075> 408 57<1376 1401 1376 1435> 938 55<1553 1577> 1114 84<375 1122 -12 1124 -12 1138>
LayerCount: 2
UndoRedoHistory
Layer: 1
Undoes
EndUndoes
Redoes
EndRedoes
EndUndoRedoHistory
Fore
SplineSet
408 1376 m 1,0,1
 408 1468 408 1468 441 1523.5 c 128,-1,2
 474 1579 474 1579 532 1579 c 0,3,4
 590 1579 590 1579 712 1539 c 128,-1,5
 834 1499 834 1499 867 1499 c 0,6,7
 900 1499 900 1499 919 1520.5 c 128,-1,8
 938 1542 938 1542 938 1577 c 1,9,-1
 993 1577 l 1,10,11
 993 1484 993 1484 960.5 1429 c 128,-1,12
 928 1374 928 1374 868.5 1374 c 0,13,14
 809 1374 809 1374 688.5 1415 c 128,-1,15
 568 1456 568 1456 535 1456 c 0,16,17
 502 1456 502 1456 483.5 1434 c 128,-1,18
 465 1412 465 1412 465 1376 c 1,19,-1
 408 1376 l 1,0,1
1317 1161 m 1,20,-1
 1237 1165 l 1,21,-1
 1233 1165 l 2,22,23
 1198 1165 1198 1165 1198 1122 c 2,24,-1
 1198 -12 l 1,25,-1
 1075 -12 l 1,26,-1
 274 1075 l 1,27,-1
 274 100 l 2,28,29
 274 55 274 55 313 55 c 1,30,-1
 414 59 l 1,31,-1
 414 0 l 1,32,-1
 70 0 l 1,33,-1
 70 59 l 1,34,-1
 150 55 l 1,35,36
 190 55 190 55 190 100 c 2,37,-1
 190 1122 l 2,38,39
 190 1141 190 1141 179.5 1153.5 c 128,-1,40
 169 1166 169 1166 150 1165 c 2,41,-1
 70 1161 l 1,42,-1
 70 1223 l 1,43,-1
 492 1223 l 1,44,-1
 1114 375 l 1,45,-1
 1114 1124 l 2,46,47
 1114 1165 1114 1165 1079 1165 c 2,48,-1
 1073 1165 l 1,49,-1
 973 1161 l 1,50,-1
 973 1223 l 1,51,-1
 1317 1223 l 1,52,-1
 1317 1161 l 1,20,-1
EndSplineSet
Position2: "'cpsp' Capital Spacing lookup 0 per glyph data 2" dx=10 dy=0 dh=20 dv=0
EndChar

StartChar: O
Encoding: 79 79 59
Width: 1388
Flags: MW
HStem: -20 72<585 804 585 895> 1174 70<585 804>
VStem: 61 309<412 817> 1018 309<412 811 412 828>
LayerCount: 2
UndoRedoHistory
Layer: 1
Undoes
EndUndoes
Redoes
EndRedoes
EndUndoRedoHistory
Fore
SplineSet
227 145.5 m 128,-1,1
 61 311 61 311 61 614 c 128,-1,2
 61 917 61 917 227.5 1080 c 128,-1,3
 394 1243 394 1243 696.5 1243 c 128,-1,4
 999 1243 999 1243 1163 1077.5 c 128,-1,5
 1327 912 1327 912 1327 611.5 c 128,-1,6
 1327 311 1327 311 1161 145.5 c 128,-1,7
 995 -20 995 -20 694 -20 c 128,-1,0
 393 -20 393 -20 227 145.5 c 128,-1,1
371 612 m 128,-1,9
 371 398 371 398 407 273.5 c 128,-1,10
 443 149 443 149 511.5 100 c 128,-1,11
 580 51 580 51 694 51 c 128,-1,12
 808 51 808 51 876.5 100 c 0,13,14
 1018 201.218978102 1018 201.218978102 1018 612 c 0,15,16
 1018 1020.71532847 1018 1020.71532847 876.5 1124 c 0,17,18
 808 1174 808 1174 694 1174 c 128,-1,19
 580 1174 580 1174 511.5 1124 c 128,-1,20
 443 1074 443 1074 407 950 c 128,-1,8
 371 826 371 826 371 612 c 128,-1,9
EndSplineSet
Substitution2: "Single Substitution lookup 17 subtable" ordmasculine
Substitution2: "'aalt' Access All Alternates lookup 0 subtable" ordmasculine
Position2: "'cpsp' Capital Spacing lookup 0 per glyph data 2" dx=10 dy=0 dh=20 dv=0
EndChar

StartChar: Oacute
Encoding: 211 211 60
Width: 1388
Flags: MW
HStem: -20 72<585 804 585 895> 1174 70<585 804>
VStem: 61 309<412 817> 1018 309<412 811 412 828>
LayerCount: 2
UndoRedoHistory
Layer: 1
Undoes
EndUndoes
Redoes
EndRedoes
EndUndoRedoHistory
Fore
SplineSet
786 1640 m 2,0,1
 796 1650 796 1650 802 1657.5 c 128,-1,2
 808 1665 808 1665 813.5 1670.5 c 0,3,4
 827.5 1684.5 827.5 1684.5 832.75 1686.25 c 128,-1,5
 838 1688 838 1688 842 1689.5 c 0,6,7
 848.666666667 1692 848.666666667 1692 872.833333333 1692 c 128,-1,8
 897 1692 897 1692 948 1664.5 c 128,-1,9
 999 1637 999 1637 999 1617.5 c 128,-1,10
 999 1598 999 1598 973 1579 c 1,11,-1
 631 1370 l 1,12,13
 604 1352 604 1352 581.5 1352 c 128,-1,14
 559 1352 559 1352 559 1371.5 c 128,-1,15
 559 1391 559 1391 592 1427 c 2,16,-1
 786 1640 l 2,0,1
227 145.5 m 128,-1,18
 61 311 61 311 61 614 c 128,-1,19
 61 917 61 917 227.5 1080 c 128,-1,20
 394 1243 394 1243 696.5 1243 c 128,-1,21
 999 1243 999 1243 1163 1077.5 c 128,-1,22
 1327 912 1327 912 1327 611.5 c 128,-1,23
 1327 311 1327 311 1161 145.5 c 128,-1,24
 995 -20 995 -20 694 -20 c 128,-1,17
 393 -20 393 -20 227 145.5 c 128,-1,18
371 612 m 128,-1,26
 371 398 371 398 407 273.5 c 128,-1,27
 443 149 443 149 511.5 100 c 128,-1,28
 580 51 580 51 694 51 c 128,-1,29
 808 51 808 51 876.5 100 c 0,30,31
 1018 201.218978102 1018 201.218978102 1018 612 c 0,32,33
 1018 1020.71532847 1018 1020.71532847 876.5 1124 c 0,34,35
 808 1174 808 1174 694 1174 c 128,-1,36
 580 1174 580 1174 511.5 1124 c 128,-1,37
 443 1074 443 1074 407 950 c 128,-1,25
 371 826 371 826 371 612 c 128,-1,26
EndSplineSet
Position2: "'cpsp' Capital Spacing lookup 0 per glyph data 2" dx=10 dy=0 dh=20 dv=0
EndChar

StartChar: Ocircumflex
Encoding: 212 212 61
Width: 1388
Flags: MW
HStem: -20 72<585 804 585 895> 1174 70<585 804> 1524 123<627 694>
VStem: 61 309<412 817> 1018 309<412 811 412 828>
LayerCount: 2
UndoRedoHistory
Layer: 1
Undoes
EndUndoes
Redoes
EndRedoes
EndUndoRedoHistory
Fore
SplineSet
858 1548 m 1,0,1
 891 1511 891 1511 933 1470 c 0,2,3
 1014 1390.92857143 1014 1390.92857143 1014 1377.46428571 c 128,-1,4
 1014 1364 1014 1364 988 1364 c 128,-1,5
 962 1364 962 1364 922 1389 c 1,6,-1
 694 1524 l 1,7,-1
 465 1389 l 1,8,9
 425 1364 425 1364 400 1364 c 128,-1,10
 375 1364 375 1364 375 1380 c 0,11,12
 375 1391.9047619 375 1391.9047619 436 1451.45238095 c 128,-1,13
 497 1511 497 1511 530 1548 c 1,14,-1
 627 1647 l 1,15,16
 660 1683 660 1683 693 1683 c 128,-1,17
 726 1683 726 1683 762 1647 c 2,18,-1
 858 1548 l 1,0,1
227 145.5 m 128,-1,20
 61 311 61 311 61 614 c 128,-1,21
 61 917 61 917 227.5 1080 c 128,-1,22
 394 1243 394 1243 696.5 1243 c 128,-1,23
 999 1243 999 1243 1163 1077.5 c 128,-1,24
 1327 912 1327 912 1327 611.5 c 128,-1,25
 1327 311 1327 311 1161 145.5 c 128,-1,26
 995 -20 995 -20 694 -20 c 128,-1,19
 393 -20 393 -20 227 145.5 c 128,-1,20
371 612 m 128,-1,28
 371 398 371 398 407 273.5 c 128,-1,29
 443 149 443 149 511.5 100 c 128,-1,30
 580 51 580 51 694 51 c 128,-1,31
 808 51 808 51 876.5 100 c 0,32,33
 1018 201.218978102 1018 201.218978102 1018 612 c 0,34,35
 1018 1020.71532847 1018 1020.71532847 876.5 1124 c 0,36,37
 808 1174 808 1174 694 1174 c 128,-1,38
 580 1174 580 1174 511.5 1124 c 128,-1,39
 443 1074 443 1074 407 950 c 128,-1,27
 371 826 371 826 371 612 c 128,-1,28
EndSplineSet
Position2: "'cpsp' Capital Spacing lookup 0 per glyph data 2" dx=10 dy=0 dh=20 dv=0
EndChar

StartChar: Odieresis
Encoding: 214 214 62
Width: 1388
Flags: MW
HStem: -20 72<585 804 585 895> 1174 70<585 804> 1395 258<433 524 433 525 863 954>
VStem: 61 309<412 817> 322 315<1484 1563> 752 315<1484 1563> 1018 309<412 811 412 828>
LayerCount: 2
UndoRedoHistory
Layer: 1
Undoes
EndUndoes
Redoes
EndRedoes
EndUndoRedoHistory
Fore
SplineSet
365.5 1430 m 128,-1,1
 322 1465 322 1465 322 1523.5 c 128,-1,2
 322 1582 322 1582 365.5 1617.5 c 128,-1,3
 409 1653 409 1653 478 1653 c 128,-1,4
 547 1653 547 1653 592 1617.5 c 128,-1,5
 637 1582 637 1582 637 1523.5 c 128,-1,6
 637 1465 637 1465 593 1430 c 128,-1,7
 549 1395 549 1395 479 1395 c 128,-1,0
 409 1395 409 1395 365.5 1430 c 128,-1,1
795.5 1430 m 128,-1,9
 752 1465 752 1465 752 1523.5 c 128,-1,10
 752 1582 752 1582 795.5 1617.5 c 128,-1,11
 839 1653 839 1653 908 1653 c 128,-1,12
 977 1653 977 1653 1022 1617.5 c 128,-1,13
 1067 1582 1067 1582 1067 1523.5 c 128,-1,14
 1067 1465 1067 1465 1023 1430 c 128,-1,15
 979 1395 979 1395 909 1395 c 128,-1,8
 839 1395 839 1395 795.5 1430 c 128,-1,9
227 145.5 m 128,-1,17
 61 311 61 311 61 614 c 128,-1,18
 61 917 61 917 227.5 1080 c 128,-1,19
 394 1243 394 1243 696.5 1243 c 128,-1,20
 999 1243 999 1243 1163 1077.5 c 128,-1,21
 1327 912 1327 912 1327 611.5 c 128,-1,22
 1327 311 1327 311 1161 145.5 c 128,-1,23
 995 -20 995 -20 694 -20 c 128,-1,16
 393 -20 393 -20 227 145.5 c 128,-1,17
371 612 m 128,-1,25
 371 398 371 398 407 273.5 c 128,-1,26
 443 149 443 149 511.5 100 c 128,-1,27
 580 51 580 51 694 51 c 128,-1,28
 808 51 808 51 876.5 100 c 0,29,30
 1018 201.218978102 1018 201.218978102 1018 612 c 0,31,32
 1018 1020.71532847 1018 1020.71532847 876.5 1124 c 0,33,34
 808 1174 808 1174 694 1174 c 128,-1,35
 580 1174 580 1174 511.5 1124 c 128,-1,36
 443 1074 443 1074 407 950 c 128,-1,24
 371 826 371 826 371 612 c 128,-1,25
EndSplineSet
Position2: "'cpsp' Capital Spacing lookup 0 per glyph data 2" dx=10 dy=0 dh=20 dv=0
EndChar

StartChar: Ograve
Encoding: 210 210 63
Width: 1388
Flags: MW
HStem: -20 72<585 804 585 895> 1174 70<585 804>
VStem: 61 309<412 817> 1018 309<412 811 412 828>
LayerCount: 2
UndoRedoHistory
Layer: 1
Undoes
EndUndoes
Redoes
EndRedoes
EndUndoRedoHistory
Fore
SplineSet
604 1640 m 2,0,1
 594 1650 594 1650 588 1657.5 c 128,-1,2
 582 1665 582 1665 576.5 1670.5 c 0,3,4
 562.5 1684.5 562.5 1684.5 557.25 1686.25 c 128,-1,5
 552 1688 552 1688 548 1689.5 c 0,6,7
 541.333333333 1692 541.333333333 1692 517.166666667 1692 c 128,-1,8
 493 1692 493 1692 442 1664.5 c 128,-1,9
 391 1637 391 1637 391 1618 c 128,-1,10
 391 1599 391 1599 418 1579 c 1,11,-1
 760 1370 l 1,12,13
 787 1352 787 1352 809 1352 c 128,-1,14
 831 1352 831 1352 831 1372 c 128,-1,15
 831 1392 831 1392 799 1427 c 2,16,-1
 604 1640 l 2,0,1
227 145.5 m 128,-1,18
 61 311 61 311 61 614 c 128,-1,19
 61 917 61 917 227.5 1080 c 128,-1,20
 394 1243 394 1243 696.5 1243 c 128,-1,21
 999 1243 999 1243 1163 1077.5 c 128,-1,22
 1327 912 1327 912 1327 611.5 c 128,-1,23
 1327 311 1327 311 1161 145.5 c 128,-1,24
 995 -20 995 -20 694 -20 c 128,-1,17
 393 -20 393 -20 227 145.5 c 128,-1,18
371 612 m 128,-1,26
 371 398 371 398 407 273.5 c 128,-1,27
 443 149 443 149 511.5 100 c 128,-1,28
 580 51 580 51 694 51 c 128,-1,29
 808 51 808 51 876.5 100 c 0,30,31
 1018 201.218978102 1018 201.218978102 1018 612 c 0,32,33
 1018 1020.71532847 1018 1020.71532847 876.5 1124 c 0,34,35
 808 1174 808 1174 694 1174 c 128,-1,36
 580 1174 580 1174 511.5 1124 c 128,-1,37
 443 1074 443 1074 407 950 c 128,-1,25
 371 826 371 826 371 612 c 128,-1,26
EndSplineSet
Position2: "'cpsp' Capital Spacing lookup 0 per glyph data 2" dx=10 dy=0 dh=20 dv=0
EndChar

StartChar: Ohungarumlaut
Encoding: 336 336 64
Width: 1388
Flags: MW
HStem: -20 72<585 804 585 895> 1174 70<585 804>
VStem: 61 309<412 817> 1018 309<412 811 412 828>
LayerCount: 2
UndoRedoHistory
Layer: 1
Undoes
EndUndoes
Redoes
EndRedoes
EndUndoRedoHistory
Fore
SplineSet
518 1386 m 1,0,1
 490 1362 490 1362 468 1362 c 128,-1,2
 446 1362 446 1362 446 1380 c 0,3,4
 446 1389 446 1389 453 1403 c 0,5,6
 595 1665 595 1665 605.5 1678.5 c 128,-1,7
 616 1692 616 1692 634.5 1692 c 128,-1,8
 653 1692 653 1692 748 1659 c 0,9,10
 766 1652 766 1652 766 1638.5 c 128,-1,11
 766 1625 766 1625 751.5 1608 c 128,-1,12
 737 1591 737 1591 518 1386 c 1,0,1
778 1386 m 1,13,14
 750 1362 750 1362 729.5 1362 c 128,-1,15
 709 1362 709 1362 709 1380 c 0,16,17
 709 1391 709 1391 715 1403 c 0,18,19
 860 1671 860 1671 868 1681.5 c 128,-1,20
 876 1692 876 1692 895.5 1692 c 128,-1,21
 915 1692 915 1692 1010 1659 c 0,22,23
 1028 1652 1028 1652 1028 1638.5 c 128,-1,24
 1028 1625 1028 1625 1011.5 1607 c 128,-1,25
 995 1589 995 1589 778 1386 c 1,13,14
227 145.5 m 128,-1,27
 61 311 61 311 61 614 c 128,-1,28
 61 917 61 917 227.5 1080 c 128,-1,29
 394 1243 394 1243 696.5 1243 c 128,-1,30
 999 1243 999 1243 1163 1077.5 c 128,-1,31
 1327 912 1327 912 1327 611.5 c 128,-1,32
 1327 311 1327 311 1161 145.5 c 128,-1,33
 995 -20 995 -20 694 -20 c 128,-1,26
 393 -20 393 -20 227 145.5 c 128,-1,27
371 612 m 128,-1,35
 371 398 371 398 407 273.5 c 128,-1,36
 443 149 443 149 511.5 100 c 128,-1,37
 580 51 580 51 694 51 c 128,-1,38
 808 51 808 51 876.5 100 c 0,39,40
 1018 201.218978102 1018 201.218978102 1018 612 c 0,41,42
 1018 1020.71532847 1018 1020.71532847 876.5 1124 c 0,43,44
 808 1174 808 1174 694 1174 c 128,-1,45
 580 1174 580 1174 511.5 1124 c 128,-1,46
 443 1074 443 1074 407 950 c 128,-1,34
 371 826 371 826 371 612 c 128,-1,35
EndSplineSet
EndChar

StartChar: Omacron
Encoding: 332 332 65
Width: 1388
Flags: MW
HStem: -20 72<585 804 585 895> 1174 70<585 804> 1432 96<449 938 449 938>
VStem: 61 309<412 817> 449 489<1432 1528 1432 1528> 1018 309<412 811 412 828>
LayerCount: 2
UndoRedoHistory
Layer: 1
Undoes
EndUndoes
Redoes
EndRedoes
EndUndoRedoHistory
Fore
SplineSet
449 1528 m 1,0,-1
 938 1528 l 1,1,-1
 938 1432 l 1,2,-1
 449 1432 l 1,3,-1
 449 1528 l 1,0,-1
227 145.5 m 128,-1,5
 61 311 61 311 61 614 c 128,-1,6
 61 917 61 917 227.5 1080 c 128,-1,7
 394 1243 394 1243 696.5 1243 c 128,-1,8
 999 1243 999 1243 1163 1077.5 c 128,-1,9
 1327 912 1327 912 1327 611.5 c 128,-1,10
 1327 311 1327 311 1161 145.5 c 128,-1,11
 995 -20 995 -20 694 -20 c 128,-1,4
 393 -20 393 -20 227 145.5 c 128,-1,5
371 612 m 128,-1,13
 371 398 371 398 407 273.5 c 128,-1,14
 443 149 443 149 511.5 100 c 128,-1,15
 580 51 580 51 694 51 c 128,-1,16
 808 51 808 51 876.5 100 c 0,17,18
 1018 201.218978102 1018 201.218978102 1018 612 c 0,19,20
 1018 1020.71532847 1018 1020.71532847 876.5 1124 c 0,21,22
 808 1174 808 1174 694 1174 c 128,-1,23
 580 1174 580 1174 511.5 1124 c 128,-1,24
 443 1074 443 1074 407 950 c 128,-1,12
 371 826 371 826 371 612 c 128,-1,13
EndSplineSet
EndChar

StartChar: Oslash
Encoding: 216 216 66
Width: 1384
Flags: MW
HStem: -20 72<645 804 645 895> 1059 41G<905 905> 1174 70<585 738>
VStem: 61 309<536 817> 1018 309<412 698>
LayerCount: 2
UndoRedoHistory
Layer: 1
Undoes
EndUndoes
Redoes
EndRedoes
EndUndoRedoHistory
Fore
SplineSet
1063 1155 m 1,0,1
 1192 1080 1192 1080 1259.5 941 c 128,-1,2
 1327 802 1327 802 1327 612 c 0,3,4
 1327 311 1327 311 1161 145.5 c 128,-1,5
 995 -20 995 -20 694 -20 c 0,6,7
 526 -20 526 -20 399 33 c 1,8,-1
 266 -195 l 1,9,-1
 174 -145 l 1,10,-1
 307 80 l 1,11,12
 61 240 61 240 61 612 c 0,13,14
 61 917 61 917 227.5 1080 c 128,-1,15
 394 1243 394 1243 694 1243 c 0,16,17
 849 1243 849 1243 965 1200 c 1,18,-1
 1087 1411 l 1,19,-1
 1180 1356 l 1,20,-1
 1063 1155 l 1,0,1
905 1100 m 1,21,22
 831 1174 831 1174 705.5 1174 c 128,-1,23
 580 1174 580 1174 511.5 1124 c 0,24,25
 371 1021.44525547 371 1021.44525547 371 612 c 0,26,27
 371 377 371 377 412 258 c 1,28,-1
 905 1100 l 1,21,22
467 145 m 1,29,30
 540 51 540 51 694 51 c 0,31,32
 808 51 808 51 876.5 100 c 0,33,34
 1018 201.218978102 1018 201.218978102 1018 612 c 0,35,36
 1018 870 1018 870 967 995 c 1,37,-1
 467 145 l 1,29,30
EndSplineSet
Position2: "'cpsp' Capital Spacing lookup 0 per glyph data 2" dx=10 dy=0 dh=20 dv=0
EndChar

StartChar: Otilde
Encoding: 213 213 67
Width: 1388
Flags: MW
HStem: -20 72<585 804 585 895> 1174 70<585 804> 1374 125<825 884 825 902> 1456 123<507 565>
VStem: 61 309<412 817> 401 57<1376 1401 1376 1435> 932 55<1553 1577> 1018 309<412 811 412 828>
LayerCount: 2
UndoRedoHistory
Layer: 1
Undoes
EndUndoes
Redoes
EndRedoes
EndUndoRedoHistory
Fore
SplineSet
401 1376 m 1,0,1
 401 1468 401 1468 434 1523.5 c 128,-1,2
 467 1579 467 1579 525.5 1579 c 128,-1,3
 584 1579 584 1579 705.5 1539 c 128,-1,4
 827 1499 827 1499 860.5 1499 c 128,-1,5
 894 1499 894 1499 913 1520.5 c 128,-1,6
 932 1542 932 1542 932 1577 c 1,7,-1
 987 1577 l 1,8,9
 987 1484 987 1484 954.5 1429 c 128,-1,10
 922 1374 922 1374 862.5 1374 c 128,-1,11
 803 1374 803 1374 682.5 1415 c 128,-1,12
 562 1456 562 1456 529 1456 c 128,-1,13
 496 1456 496 1456 477.5 1434 c 128,-1,14
 459 1412 459 1412 459 1376 c 1,15,-1
 401 1376 l 1,0,1
227 145.5 m 128,-1,17
 61 311 61 311 61 614 c 128,-1,18
 61 917 61 917 227.5 1080 c 128,-1,19
 394 1243 394 1243 696.5 1243 c 128,-1,20
 999 1243 999 1243 1163 1077.5 c 128,-1,21
 1327 912 1327 912 1327 611.5 c 128,-1,22
 1327 311 1327 311 1161 145.5 c 128,-1,23
 995 -20 995 -20 694 -20 c 128,-1,16
 393 -20 393 -20 227 145.5 c 128,-1,17
371 612 m 128,-1,25
 371 398 371 398 407 273.5 c 128,-1,26
 443 149 443 149 511.5 100 c 128,-1,27
 580 51 580 51 694 51 c 128,-1,28
 808 51 808 51 876.5 100 c 0,29,30
 1018 201.218978102 1018 201.218978102 1018 612 c 0,31,32
 1018 1020.71532847 1018 1020.71532847 876.5 1124 c 0,33,34
 808 1174 808 1174 694 1174 c 128,-1,35
 580 1174 580 1174 511.5 1124 c 128,-1,36
 443 1074 443 1074 407 950 c 128,-1,24
 371 826 371 826 371 612 c 128,-1,25
EndSplineSet
Position2: "'cpsp' Capital Spacing lookup 0 per glyph data 2" dx=10 dy=0 dh=20 dv=0
EndChar

StartChar: OE
Encoding: 338 338 68
Width: 1853
Flags: MW
HStem: -20 74<572 697> 0 72<1198 1407 1407 1502> 594 72<1171 1307 1171 1307> 831 41G<1464 1534 1534 1534> 907 315<1638 1708 1638 1638> 1151 72<1189 1198 1198 1348> 1176 68<573 742>
VStem: 61 307<407 797> 889 283<184 594 666 1077 1077 1105> 1464 70<391 450 808 872> 1638 70<907 995> 1694 70<272 367>
LayerCount: 2
UndoRedoHistory
Layer: 1
Undoes
EndUndoes
Redoes
EndRedoes
EndUndoRedoHistory
Fore
SplineSet
981 0 m 2,0,1
 860 0 860 0 777.5 -10 c 128,-1,2
 695 -20 695 -20 694 -20 c 0,3,4
 392 -20 392 -20 226.5 144 c 128,-1,5
 61 308 61 308 61 606.5 c 128,-1,6
 61 905 61 905 219.5 1074 c 128,-1,7
 378 1243 378 1243 700 1243 c 0,8,9
 756 1243 756 1243 837.5 1233 c 128,-1,10
 919 1223 919 1223 965 1223 c 2,11,-1
 1708 1223 l 1,12,-1
 1708 907 l 1,13,-1
 1638 907 l 1,14,15
 1638 1038 1638 1038 1569.5 1094.5 c 128,-1,16
 1501 1151 1501 1151 1348 1151 c 2,17,-1
 1198 1151 l 2,18,19
 1171 1151 1171 1151 1171 1122 c 2,20,-1
 1171 666 l 1,21,-1
 1307 666 l 2,22,23
 1377 666 1377 666 1420.5 721.5 c 128,-1,24
 1464 777 1464 777 1464 872 c 1,25,-1
 1534 872 l 1,26,-1
 1534 391 l 1,27,-1
 1464 391 l 1,28,29
 1464 477 1464 477 1417.5 535.5 c 128,-1,30
 1371 594 1371 594 1307 594 c 2,31,-1
 1171 594 l 1,32,-1
 1171 98 l 2,33,34
 1171 72 1171 72 1198 72 c 2,35,-1
 1407 72 l 2,36,37
 1548 72 1548 72 1621 148.5 c 128,-1,38
 1694 225 1694 225 1694 367 c 1,39,-1
 1763 367 l 1,40,-1
 1763 -6 l 1,41,42
 1710 0 1710 0 1569 0 c 2,43,-1
 981 0 l 2,0,1
889 1077 m 2,44,45
 889 1118 889 1118 830 1147 c 128,-1,46
 771 1176 771 1176 686 1176 c 0,47,48
 516 1176 516 1176 442.5 1045.5 c 128,-1,49
 369 915 369 915 369 608.5 c 128,-1,50
 369 302 369 302 441.5 177.5 c 128,-1,51
 514 53 514 53 686 53 c 0,52,53
 798 53 798 53 843.5 91 c 128,-1,54
 889 129 889 129 889 184 c 2,55,-1
 889 1077 l 2,44,45
EndSplineSet
Position2: "'cpsp' Capital Spacing lookup 0 per glyph data 2" dx=10 dy=0 dh=20 dv=0
EndChar

StartChar: P
Encoding: 80 80 69
Width: 1120
Flags: MW
HStem: 0 72<152 156 156 168 501 514> 508 74<473 586 586 640 473 674 473 586> 1151 72<143 143 493 498 498 580>
VStem: 190 283<117 508 582 1106 1106 1121> 776 295<793 959>
LayerCount: 2
UndoRedoHistory
Layer: 1
Undoes
EndUndoes
Redoes
EndRedoes
EndUndoRedoHistory
Fore
SplineSet
80 76 m 1,0,-1
 152 72 l 1,1,-1
 156 72 l 2,2,3
 190 72 190 72 190 117 c 2,4,-1
 190 1106 l 2,5,6
 190 1131 190 1131 180.5 1141.5 c 128,-1,7
 171 1152 171 1152 143 1151 c 2,8,-1
 80 1147 l 1,9,-1
 80 1223 l 1,10,-1
 618 1223 l 2,11,12
 850 1223 850 1223 960.5 1138 c 128,-1,13
 1071 1053 1071 1053 1071 882 c 0,14,15
 1071 711 1071 711 963.5 609.5 c 128,-1,16
 856 508 856 508 674 508 c 2,17,-1
 473 508 l 1,18,-1
 473 117 l 2,19,20
 473 72 473 72 514 72 c 1,21,-1
 614 76 l 1,22,-1
 614 0 l 1,23,-1
 80 0 l 1,24,-1
 80 76 l 1,0,-1
586 582 m 2,25,26
 668 582 668 582 722 666 c 128,-1,27
 776 750 776 750 776 875.5 c 0,28,29
 776 1001 776 1001 722.5 1076 c 128,-1,30
 669 1151 669 1151 580 1151 c 2,31,-1
 498 1151 l 2,32,33
 490 1151 490 1151 481.5 1143.5 c 128,-1,34
 473 1136 473 1136 473 1126 c 2,35,-1
 473 582 l 1,36,-1
 586 582 l 2,25,26
EndSplineSet
Position2: "'cpsp' Capital Spacing lookup 0 per glyph data 2" dx=10 dy=0 dh=20 dv=0
EndChar

StartChar: Thorn
Encoding: 222 222 70
Width: 1112
Flags: MW
HStem: 0 55<152 156 156 168> 332 53<500 596 596 644 500 670 473 596> 965 51<473 563 473 627> 1165 57<152 152 502 514>
VStem: 190 283<100 332 404 412 412 965 1016 1122> 774 289<593 775>
LayerCount: 2
UndoRedoHistory
Layer: 1
Undoes
EndUndoes
Redoes
EndRedoes
EndUndoRedoHistory
Fore
SplineSet
190 1122 m 2,0,1
 190 1167 190 1167 152 1165 c 2,2,-1
 80 1161 l 1,3,-1
 80 1223 l 1,4,-1
 614 1223 l 1,5,-1
 614 1161 l 1,6,-1
 514 1165 l 2,7,8
 496 1165 496 1165 484.5 1152.5 c 128,-1,9
 473 1140 473 1140 473 1122 c 2,10,-1
 473 1016 l 1,11,-1
 627 1016 l 2,12,13
 856 1016 856 1016 959.5 940.5 c 128,-1,14
 1063 865 1063 865 1063 690 c 128,-1,15
 1063 515 1063 515 960 423.5 c 128,-1,16
 857 332 857 332 670 332 c 2,17,-1
 473 332 l 1,18,-1
 473 100 l 2,19,20
 473 52 473 52 514 55 c 1,21,-1
 614 59 l 1,22,-1
 614 0 l 1,23,-1
 80 0 l 1,24,-1
 80 59 l 1,25,-1
 152 55 l 1,26,-1
 156 55 l 2,27,28
 190 55 190 55 190 100 c 2,29,-1
 190 1122 l 2,0,1
473 412 m 2,30,31
 473 402 473 402 481.5 393.5 c 128,-1,32
 490 385 490 385 500 385 c 2,33,-1
 596 385 l 2,34,35
 670 385 670 385 722 468 c 128,-1,36
 774 551 774 551 774 685.5 c 128,-1,37
 774 820 774 820 718.5 892.5 c 128,-1,38
 663 965 663 965 563 965 c 2,39,-1
 473 965 l 1,40,-1
 473 412 l 2,30,31
EndSplineSet
Position2: "'cpsp' Capital Spacing lookup 0 per glyph data 2" dx=10 dy=0 dh=20 dv=0
EndChar

StartChar: Q
Encoding: 81 81 71
Width: 1370
Flags: MW
HStem: -401 74<1037 1108> -10 61 1174 70<585 804>
VStem: 61 309<439 817> 1018 309<436 811 436 828>
LayerCount: 2
UndoRedoHistory
Layer: 1
Undoes
EndUndoes
Redoes
EndRedoes
EndUndoRedoHistory
Fore
SplineSet
1108 -401 m 1,0,1
 847 -401 847 -401 689.5 -290.5 c 128,-1,2
 532 -180 532 -180 537 -6 c 1,3,4
 309 34 309 34 185 194 c 128,-1,5
 61 354 61 354 61 612 c 0,6,7
 61 917 61 917 227.5 1080 c 128,-1,8
 394 1243 394 1243 696.5 1243 c 128,-1,9
 999 1243 999 1243 1163 1077.5 c 128,-1,10
 1327 912 1327 912 1327 630.5 c 128,-1,11
 1327 349 1327 349 1199 188 c 128,-1,12
 1071 27 1071 27 836 -10 c 1,13,14
 833 -149 833 -149 913 -238.5 c 128,-1,15
 993 -328 993 -328 1128 -328 c 1,16,-1
 1108 -401 l 1,0,1
371 612 m 128,-1,18
 371 398 371 398 407 273.5 c 128,-1,19
 443 149 443 149 511.5 100 c 128,-1,20
 580 51 580 51 694 51 c 128,-1,21
 808 51 808 51 876.5 100 c 0,22,23
 1018 201.218978102 1018 201.218978102 1018 612 c 0,24,25
 1018 1020.71532847 1018 1020.71532847 876.5 1124 c 0,26,27
 808 1174 808 1174 694 1174 c 128,-1,28
 580 1174 580 1174 511.5 1124 c 128,-1,29
 443 1074 443 1074 407 950 c 128,-1,17
 371 826 371 826 371 612 c 128,-1,18
EndSplineSet
Position2: "'cpsp' Capital Spacing lookup 0 per glyph data 2" dx=10 dy=0 dh=20 dv=0
EndChar

StartChar: R
Encoding: 82 82 72
Width: 1222
Flags: MW
HStem: 0 72<152 156 156 168 501 514> 555 72<473 528 473 602> 1151 72<145 145 489 498 498 563>
VStem: 190 283<117 555 627 1108 1108 1119> 764 279<831 982> 795 276<216 281 281 361 216 381>
LayerCount: 2
UndoRedoHistory
Layer: 1
Undoes
EndUndoes
Redoes
EndRedoes
EndUndoRedoHistory
Fore
SplineSet
827 0 m 1,0,1
 795 65.28 795 65.28 795 213 c 2,2,-1
 795 281 l 2,3,4
 795 484.120879121 795 484.120879121 625.5 540 c 0,5,6
 580 555 580 555 528 555 c 2,7,-1
 473 555 l 1,8,-1
 473 117 l 2,9,10
 473 72 473 72 514 72 c 1,11,-1
 614 76 l 1,12,-1
 614 0 l 1,13,-1
 80 0 l 1,14,-1
 80 76 l 1,15,-1
 152 72 l 1,16,-1
 156 72 l 2,17,18
 190 72 190 72 190 117 c 2,19,-1
 190 1108 l 2,20,21
 190 1127 190 1127 179 1139.5 c 128,-1,22
 168 1152 168 1152 145 1151 c 2,23,-1
 80 1147 l 1,24,-1
 80 1223 l 1,25,-1
 610 1223 l 2,26,27
 830 1223 830 1223 936 1148 c 128,-1,28
 1042 1073 1042 1073 1042 915 c 0,29,30
 1042 791 1042 791 963 707.5 c 128,-1,31
 884 624 884 624 745 594 c 1,32,33
 835.482758621 594 835.482758621 594 920 537 c 0,34,35
 1071 435.162790698 1071 435.162790698 1071 250 c 0,36,37
 1071 191 1071 191 1087.5 127.5 c 128,-1,38
 1104 64 1104 64 1130 57 c 0,39,40
 1142 53 1142 53 1159.5 53 c 128,-1,41
 1177 53 1177 53 1190 61 c 1,42,-1
 1190 0 l 1,43,-1
 827 0 l 1,0,1
602 627 m 2,44,45
 675 627 675 627 719.5 697.5 c 128,-1,46
 764 768 764 768 764 897.5 c 128,-1,47
 764 1027 764 1027 715 1089 c 128,-1,48
 666 1151 666 1151 563 1151 c 2,49,-1
 498 1151 l 2,50,51
 473 1151 473 1151 473 1130 c 2,52,-1
 473 627 l 1,53,-1
 602 627 l 2,44,45
EndSplineSet
Position2: "'cpsp' Capital Spacing lookup 0 per glyph data 2" dx=10 dy=0 dh=20 dv=0
EndChar

StartChar: Racute
Encoding: 340 340 73
Width: 1222
Flags: MW
HStem: 0 72<152 156 156 168 501 514> 555 72<473 528 473 602> 1151 72<145 145 489 498 498 563>
VStem: 190 283<117 555 627 1108 1108 1119> 764 279<831 982> 795 276<216 281 281 361 216 381>
LayerCount: 2
UndoRedoHistory
Layer: 1
Undoes
EndUndoes
Redoes
EndRedoes
EndUndoRedoHistory
Fore
SplineSet
688 1640 m 2,0,1
 698 1650 698 1650 704 1657.5 c 128,-1,2
 710 1665 710 1665 715.5 1670.5 c 0,3,4
 729.5 1684.5 729.5 1684.5 734.75 1686.25 c 128,-1,5
 740 1688 740 1688 744 1689.5 c 0,6,7
 750.666666667 1692 750.666666667 1692 774.833333333 1692 c 128,-1,8
 799 1692 799 1692 850 1664.5 c 128,-1,9
 901 1637 901 1637 901 1618 c 128,-1,10
 901 1599 901 1599 874 1579 c 1,11,-1
 532 1370 l 1,12,13
 505 1352 505 1352 483 1352 c 128,-1,14
 461 1352 461 1352 461 1371.5 c 128,-1,15
 461 1391 461 1391 494 1427 c 2,16,-1
 688 1640 l 2,0,1
827 0 m 1,17,18
 795 65.28 795 65.28 795 213 c 2,19,-1
 795 281 l 2,20,21
 795 484.120879121 795 484.120879121 625.5 540 c 0,22,23
 580 555 580 555 528 555 c 2,24,-1
 473 555 l 1,25,-1
 473 117 l 2,26,27
 473 72 473 72 514 72 c 1,28,-1
 614 76 l 1,29,-1
 614 0 l 1,30,-1
 80 0 l 1,31,-1
 80 76 l 1,32,-1
 152 72 l 1,33,-1
 156 72 l 2,34,35
 190 72 190 72 190 117 c 2,36,-1
 190 1108 l 2,37,38
 190 1127 190 1127 179 1139.5 c 128,-1,39
 168 1152 168 1152 145 1151 c 2,40,-1
 80 1147 l 1,41,-1
 80 1223 l 1,42,-1
 610 1223 l 2,43,44
 830 1223 830 1223 936 1148 c 128,-1,45
 1042 1073 1042 1073 1042 915 c 0,46,47
 1042 791 1042 791 963 707.5 c 128,-1,48
 884 624 884 624 745 594 c 1,49,50
 835.482758621 594 835.482758621 594 920 537 c 0,51,52
 1071 435.162790698 1071 435.162790698 1071 250 c 0,53,54
 1071 191 1071 191 1087.5 127.5 c 128,-1,55
 1104 64 1104 64 1130 57 c 0,56,57
 1142 53 1142 53 1159.5 53 c 128,-1,58
 1177 53 1177 53 1190 61 c 1,59,-1
 1190 0 l 1,60,-1
 827 0 l 1,17,18
602 627 m 2,61,62
 675 627 675 627 719.5 697.5 c 128,-1,63
 764 768 764 768 764 897.5 c 128,-1,64
 764 1027 764 1027 715 1089 c 128,-1,65
 666 1151 666 1151 563 1151 c 2,66,-1
 498 1151 l 2,67,68
 473 1151 473 1151 473 1130 c 2,69,-1
 473 627 l 1,70,-1
 602 627 l 2,61,62
EndSplineSet
EndChar

StartChar: Rcaron
Encoding: 344 344 74
Width: 1222
Flags: MW
HStem: 0 72<152 156 156 168 501 514> 555 72<473 528 473 602> 1151 72<145 145 489 498 498 563> 1405 123<528 596 596 664>
VStem: 190 283<117 555 627 1108 1108 1119> 764 279<831 982> 795 276<216 281 281 361 216 381>
LayerCount: 2
UndoRedoHistory
Layer: 1
Undoes
EndUndoes
Redoes
EndRedoes
EndUndoRedoHistory
Fore
SplineSet
432 1503 m 1,0,1
 399 1540 399 1540 357 1581 c 0,2,3
 276 1660.07142857 276 1660.07142857 276 1674.03571429 c 128,-1,4
 276 1688 276 1688 302.5 1688 c 128,-1,5
 329 1688 329 1688 369 1663 c 1,6,-1
 596 1528 l 1,7,-1
 825 1663 l 1,8,9
 865 1688 865 1688 890 1688 c 128,-1,10
 915 1688 915 1688 915 1671 c 0,11,12
 915 1659.0952381 915 1659.0952381 854 1599.54761905 c 128,-1,13
 793 1540 793 1540 760 1503 c 1,14,-1
 664 1405 l 1,15,16
 630 1368 630 1368 597.5 1368 c 128,-1,17
 565 1368 565 1368 528 1405 c 2,18,-1
 432 1503 l 1,0,1
827 0 m 1,19,20
 795 65.28 795 65.28 795 213 c 2,21,-1
 795 281 l 2,22,23
 795 484.120879121 795 484.120879121 625.5 540 c 0,24,25
 580 555 580 555 528 555 c 2,26,-1
 473 555 l 1,27,-1
 473 117 l 2,28,29
 473 72 473 72 514 72 c 1,30,-1
 614 76 l 1,31,-1
 614 0 l 1,32,-1
 80 0 l 1,33,-1
 80 76 l 1,34,-1
 152 72 l 1,35,-1
 156 72 l 2,36,37
 190 72 190 72 190 117 c 2,38,-1
 190 1108 l 2,39,40
 190 1127 190 1127 179 1139.5 c 128,-1,41
 168 1152 168 1152 145 1151 c 2,42,-1
 80 1147 l 1,43,-1
 80 1223 l 1,44,-1
 610 1223 l 2,45,46
 830 1223 830 1223 936 1148 c 128,-1,47
 1042 1073 1042 1073 1042 915 c 0,48,49
 1042 791 1042 791 963 707.5 c 128,-1,50
 884 624 884 624 745 594 c 1,51,52
 835.482758621 594 835.482758621 594 920 537 c 0,53,54
 1071 435.162790698 1071 435.162790698 1071 250 c 0,55,56
 1071 191 1071 191 1087.5 127.5 c 128,-1,57
 1104 64 1104 64 1130 57 c 0,58,59
 1142 53 1142 53 1159.5 53 c 128,-1,60
 1177 53 1177 53 1190 61 c 1,61,-1
 1190 0 l 1,62,-1
 827 0 l 1,19,20
602 627 m 2,63,64
 675 627 675 627 719.5 697.5 c 128,-1,65
 764 768 764 768 764 897.5 c 128,-1,66
 764 1027 764 1027 715 1089 c 128,-1,67
 666 1151 666 1151 563 1151 c 2,68,-1
 498 1151 l 2,69,70
 473 1151 473 1151 473 1130 c 2,71,-1
 473 627 l 1,72,-1
 602 627 l 2,63,64
EndSplineSet
EndChar

StartChar: Rcommaaccent
Encoding: 342 342 75
Width: 1222
Flags: MW
HStem: -289 219<561 575> 0 72<152 156 156 168 501 514> 555 72<473 528 473 602> 1151 72<145 145 489 498 498 563>
VStem: 190 283<117 555 627 1108 1108 1119> 618 150<-367 -187> 764 279<831 982> 795 276<216 281 281 361 216 381>
LayerCount: 2
UndoRedoHistory
Layer: 1
Undoes
EndUndoes
Redoes
EndRedoes
EndUndoRedoHistory
Fore
SplineSet
827 0 m 1,0,1
 795 65.28 795 65.28 795 213 c 2,2,-1
 795 281 l 2,3,4
 795 484.120879121 795 484.120879121 625.5 540 c 0,5,6
 580 555 580 555 528 555 c 2,7,-1
 473 555 l 1,8,-1
 473 117 l 2,9,10
 473 72 473 72 514 72 c 1,11,-1
 614 76 l 1,12,-1
 614 0 l 1,13,-1
 80 0 l 1,14,-1
 80 76 l 1,15,-1
 152 72 l 1,16,-1
 156 72 l 2,17,18
 190 72 190 72 190 117 c 2,19,-1
 190 1108 l 2,20,21
 190 1127 190 1127 179 1139.5 c 128,-1,22
 168 1152 168 1152 145 1151 c 2,23,-1
 80 1147 l 1,24,-1
 80 1223 l 1,25,-1
 610 1223 l 2,26,27
 830 1223 830 1223 936 1148 c 128,-1,28
 1042 1073 1042 1073 1042 915 c 0,29,30
 1042 791 1042 791 963 707.5 c 128,-1,31
 884 624 884 624 745 594 c 1,32,33
 835.482758621 594 835.482758621 594 920 537 c 0,34,35
 1071 435.162790698 1071 435.162790698 1071 250 c 0,36,37
 1071 191 1071 191 1087.5 127.5 c 128,-1,38
 1104 64 1104 64 1130 57 c 0,39,40
 1142 53 1142 53 1159.5 53 c 128,-1,41
 1177 53 1177 53 1190 61 c 1,42,-1
 1190 0 l 1,43,-1
 827 0 l 1,0,1
602 627 m 2,44,45
 675 627 675 627 719.5 697.5 c 128,-1,46
 764 768 764 768 764 897.5 c 128,-1,47
 764 1027 764 1027 715 1089 c 128,-1,48
 666 1151 666 1151 563 1151 c 2,49,-1
 498 1151 l 2,50,51
 473 1151 473 1151 473 1130 c 2,52,-1
 473 627 l 1,53,-1
 602 627 l 2,44,45
520 -469 m 1,54,55
 560 -445 560 -445 589 -410 c 128,-1,56
 618 -375 618 -375 618 -348 c 0,57,58
 618 -289 618 -289 561 -289 c 0,59,60
 523 -289 523 -289 500 -259 c 128,-1,61
 477 -229 477 -229 477 -184.5 c 128,-1,62
 477 -140 477 -140 510 -105 c 128,-1,63
 543 -70 543 -70 610.5 -70 c 128,-1,64
 678 -70 678 -70 723 -117 c 128,-1,65
 768 -164 768 -164 768 -241.5 c 128,-1,66
 768 -319 768 -319 708.5 -395.5 c 128,-1,67
 649 -472 649 -472 565 -514 c 1,68,-1
 520 -469 l 1,54,55
EndSplineSet
EndChar

StartChar: S
Encoding: 83 83 76
Width: 1019
Flags: MW
HStem: -20 74<492 572 411 672> 889 283<848 863 844 918 848 848> 1174 70<484 572 375 631>
VStem: 98 225<951 978> 727 244<264 310> 848 57<889 1061>
LayerCount: 2
UndoRedoHistory
Layer: 1
Undoes
EndUndoes
Redoes
EndRedoes
EndUndoRedoHistory
Fore
SplineSet
150 416 m 1,0,1
 171 238 171 238 266 145.5 c 128,-1,2
 361 53 361 53 502 53 c 0,3,4
 606 53 606 53 666.5 110.5 c 128,-1,5
 727 168 727 168 727 262 c 0,6,7
 727 406 727 406 532 481 c 1,8,-1
 332 565 l 1,9,10
 98 661 98 661 98 883 c 0,11,12
 98 1032 98 1032 200 1134 c 0,13,14
 309 1243 309 1243 516 1243 c 0,15,16
 568.5 1243 568.5 1243 597.25 1238 c 128,-1,17
 626 1233 626 1233 638 1231 c 128,-1,18
 650 1229 650 1229 676.5 1221.5 c 128,-1,19
 703 1214 703 1214 710 1211.5 c 0,20,21
 763 1192.57142857 763 1192.57142857 796.5 1181.78571429 c 128,-1,22
 830 1171 830 1171 858.5 1171 c 128,-1,23
 887 1171 887 1171 911 1180 c 1,24,25
 905 1130 905 1130 905 1029.5 c 128,-1,26
 905 929 905 929 918 889 c 1,27,-1
 848 889 l 1,28,29
 848 1015 848 1015 761.5 1094.5 c 128,-1,30
 675 1174 675 1174 563 1174 c 128,-1,31
 451 1174 451 1174 387.5 1122.5 c 128,-1,32
 324 1071 324 1071 324 1001 c 128,-1,33
 324 931 324 931 366 886 c 128,-1,34
 408 841 408 841 500 803 c 1,35,-1
 674 729 l 1,36,37
 833 659 833 659 902 580 c 128,-1,38
 971 501 971 501 971 373 c 0,39,40
 971 202 971 202 854 91 c 128,-1,41
 737 -20 737 -20 524 -20 c 0,42,43
 434 -20 434 -20 324 8.5 c 128,-1,44
 214 37 214 37 185.5 37 c 128,-1,45
 157 37 157 37 138 35 c 0,46,47
 95.5294117647 30.5294117647 95.5294117647 30.5294117647 92 27 c 1,48,49
 100 71 100 71 100 235.5 c 128,-1,50
 100 400 100 400 84 410 c 1,51,-1
 150 416 l 1,0,1
EndSplineSet
Position2: "'cpsp' Capital Spacing lookup 0 per glyph data 2" dx=10 dy=0 dh=20 dv=0
EndChar

StartChar: Sacute
Encoding: 346 346 77
Width: 1019
Flags: MW
HStem: -20 74<492 572 411 672> 889 283<848 863 844 918 848 848> 1174 70<484 572 375 631>
VStem: 98 225<951 978> 727 244<264 310> 848 57<889 1061>
LayerCount: 2
UndoRedoHistory
Layer: 1
Undoes
EndUndoes
Redoes
EndRedoes
EndUndoRedoHistory
Fore
SplineSet
606 1640 m 2,0,1
 616 1650 616 1650 622 1657.5 c 128,-1,2
 628 1665 628 1665 633.5 1670.5 c 0,3,4
 647.5 1684.5 647.5 1684.5 652.75 1686.25 c 128,-1,5
 658 1688 658 1688 662 1689.5 c 0,6,7
 668.666666667 1692 668.666666667 1692 692.833333333 1692 c 128,-1,8
 717 1692 717 1692 768 1664.5 c 128,-1,9
 819 1637 819 1637 819 1617.5 c 128,-1,10
 819 1598 819 1598 793 1579 c 1,11,-1
 451 1370 l 1,12,13
 424 1352 424 1352 401.5 1352 c 128,-1,14
 379 1352 379 1352 379 1371.5 c 128,-1,15
 379 1391 379 1391 412 1427 c 2,16,-1
 606 1640 l 2,0,1
150 416 m 1,17,18
 171 238 171 238 266 145.5 c 128,-1,19
 361 53 361 53 502 53 c 0,20,21
 606 53 606 53 666.5 110.5 c 128,-1,22
 727 168 727 168 727 262 c 0,23,24
 727 406 727 406 532 481 c 1,25,-1
 332 565 l 1,26,27
 98 661 98 661 98 883 c 0,28,29
 98 1032 98 1032 200 1134 c 0,30,31
 309 1243 309 1243 516 1243 c 0,32,33
 568.5 1243 568.5 1243 597.25 1238 c 128,-1,34
 626 1233 626 1233 638 1231 c 128,-1,35
 650 1229 650 1229 676.5 1221.5 c 128,-1,36
 703 1214 703 1214 710 1211.5 c 0,37,38
 763 1192.57142857 763 1192.57142857 796.5 1181.78571429 c 128,-1,39
 830 1171 830 1171 858.5 1171 c 128,-1,40
 887 1171 887 1171 911 1180 c 1,41,42
 905 1130 905 1130 905 1029.5 c 128,-1,43
 905 929 905 929 918 889 c 1,44,-1
 848 889 l 1,45,46
 848 1015 848 1015 761.5 1094.5 c 128,-1,47
 675 1174 675 1174 563 1174 c 128,-1,48
 451 1174 451 1174 387.5 1122.5 c 128,-1,49
 324 1071 324 1071 324 1001 c 128,-1,50
 324 931 324 931 366 886 c 128,-1,51
 408 841 408 841 500 803 c 1,52,-1
 674 729 l 1,53,54
 833 659 833 659 902 580 c 128,-1,55
 971 501 971 501 971 373 c 0,56,57
 971 202 971 202 854 91 c 128,-1,58
 737 -20 737 -20 524 -20 c 0,59,60
 434 -20 434 -20 324 8.5 c 128,-1,61
 214 37 214 37 185.5 37 c 128,-1,62
 157 37 157 37 138 35 c 0,63,64
 95.5294117647 30.5294117647 95.5294117647 30.5294117647 92 27 c 1,65,66
 100 71 100 71 100 235.5 c 128,-1,67
 100 400 100 400 84 410 c 1,68,-1
 150 416 l 1,17,18
EndSplineSet
EndChar

StartChar: Scaron
Encoding: 352 352 78
Width: 1019
Flags: MW
HStem: -20 74<492 572 411 672> 889 283<848 863 844 918 848 848> 1174 70<484 572 375 631> 1405 123<446 514 514 582>
VStem: 98 225<951 978> 727 244<264 310> 848 57<889 1061>
LayerCount: 2
UndoRedoHistory
Layer: 1
Undoes
EndUndoes
Redoes
EndRedoes
EndUndoRedoHistory
Fore
SplineSet
350 1503 m 1,0,1
 317 1540 317 1540 275 1581 c 0,2,3
 195 1659.0952381 195 1659.0952381 195 1673.54761905 c 128,-1,4
 195 1688 195 1688 221 1688 c 128,-1,5
 247 1688 247 1688 287 1663 c 1,6,-1
 514 1528 l 1,7,-1
 743 1663 l 1,8,9
 783 1688 783 1688 808.5 1688 c 128,-1,10
 834 1688 834 1688 834 1671 c 0,11,12
 834 1660.07142857 834 1660.07142857 772.5 1600.03571429 c 128,-1,13
 711 1540 711 1540 678 1503 c 1,14,-1
 582 1405 l 1,15,16
 548 1368 548 1368 515.5 1368 c 128,-1,17
 483 1368 483 1368 446 1405 c 2,18,-1
 350 1503 l 1,0,1
150 416 m 1,19,20
 171 238 171 238 266 145.5 c 128,-1,21
 361 53 361 53 502 53 c 0,22,23
 606 53 606 53 666.5 110.5 c 128,-1,24
 727 168 727 168 727 262 c 0,25,26
 727 406 727 406 532 481 c 1,27,-1
 332 565 l 1,28,29
 98 661 98 661 98 883 c 0,30,31
 98 1032 98 1032 200 1134 c 0,32,33
 309 1243 309 1243 516 1243 c 0,34,35
 568.5 1243 568.5 1243 597.25 1238 c 128,-1,36
 626 1233 626 1233 638 1231 c 128,-1,37
 650 1229 650 1229 676.5 1221.5 c 128,-1,38
 703 1214 703 1214 710 1211.5 c 0,39,40
 763 1192.57142857 763 1192.57142857 796.5 1181.78571429 c 128,-1,41
 830 1171 830 1171 858.5 1171 c 128,-1,42
 887 1171 887 1171 911 1180 c 1,43,44
 905 1130 905 1130 905 1029.5 c 128,-1,45
 905 929 905 929 918 889 c 1,46,-1
 848 889 l 1,47,48
 848 1015 848 1015 761.5 1094.5 c 128,-1,49
 675 1174 675 1174 563 1174 c 128,-1,50
 451 1174 451 1174 387.5 1122.5 c 128,-1,51
 324 1071 324 1071 324 1001 c 128,-1,52
 324 931 324 931 366 886 c 128,-1,53
 408 841 408 841 500 803 c 1,54,-1
 674 729 l 1,55,56
 833 659 833 659 902 580 c 128,-1,57
 971 501 971 501 971 373 c 0,58,59
 971 202 971 202 854 91 c 128,-1,60
 737 -20 737 -20 524 -20 c 0,61,62
 434 -20 434 -20 324 8.5 c 128,-1,63
 214 37 214 37 185.5 37 c 128,-1,64
 157 37 157 37 138 35 c 0,65,66
 95.5294117647 30.5294117647 95.5294117647 30.5294117647 92 27 c 1,67,68
 100 71 100 71 100 235.5 c 128,-1,69
 100 400 100 400 84 410 c 1,70,-1
 150 416 l 1,19,20
EndSplineSet
Position2: "'cpsp' Capital Spacing lookup 0 per glyph data 2" dx=10 dy=0 dh=20 dv=0
EndChar

StartChar: Scedilla
Encoding: 350 350 79
Width: 1019
Flags: MW
HStem: -438 72<409 521> -18 72<469 469> 889 283<848 863 844 918 848 848> 1174 70<484 572 375 631>
VStem: 98 225<951 978> 387 121<-138 -128> 526 178<-297 -255> 727 244<268 310> 848 57<889 1061>
LayerCount: 2
UndoRedoHistory
Layer: 1
Undoes
EndUndoes
Redoes
EndRedoes
EndUndoRedoHistory
Fore
SplineSet
520 -74 m 2,0,1
 508 -95 508 -95 508 -112.5 c 128,-1,2
 508 -130 508 -130 539 -139 c 128,-1,3
 570 -148 570 -148 606.5 -153.5 c 128,-1,4
 643 -159 643 -159 674 -183 c 128,-1,5
 705 -207 705 -207 705 -259.5 c 128,-1,6
 705 -312 705 -312 667.5 -356 c 0,7,8
 597.613636364 -438 597.613636364 -438 467 -438 c 0,9,10
 375 -438 375 -438 326 -406 c 1,11,-1
 352 -340 l 1,12,13
 376 -367 376 -367 419.5 -367 c 128,-1,14
 463 -367 463 -367 494.5 -337.5 c 128,-1,15
 526 -308 526 -308 526 -268 c 128,-1,16
 526 -228 526 -228 457 -193 c 1,17,-1
 410 -164 l 1,18,19
 387 -148 387 -148 387 -133 c 128,-1,20
 387 -118 387 -118 399 -106 c 1,21,-1
 469 -18 l 1,22,23
 414 -15 414 -15 314 11 c 128,-1,24
 214 37 214 37 185.5 37 c 128,-1,25
 157 37 157 37 138 35 c 0,26,27
 95.5294117647 30.5294117647 95.5294117647 30.5294117647 92 27 c 1,28,29
 100 71 100 71 100 235.5 c 128,-1,30
 100 400 100 400 84 410 c 1,31,-1
 150 416 l 1,32,33
 171 238 171 238 266 145.5 c 128,-1,34
 361 53 361 53 502 53 c 0,35,36
 606 53 606 53 666.5 110.5 c 128,-1,37
 727 168 727 168 727 262 c 0,38,39
 727 406 727 406 532 481 c 1,40,-1
 332 565 l 1,41,42
 98 661 98 661 98 883 c 0,43,44
 98 1032 98 1032 200 1134 c 0,45,46
 309 1243 309 1243 516 1243 c 0,47,48
 568.5 1243 568.5 1243 597.25 1238 c 128,-1,49
 626 1233 626 1233 638 1231 c 128,-1,50
 650 1229 650 1229 676.5 1221.5 c 128,-1,51
 703 1214 703 1214 710 1211.5 c 0,52,53
 763 1192.57142857 763 1192.57142857 796.5 1181.78571429 c 128,-1,54
 830 1171 830 1171 858.5 1171 c 128,-1,55
 887 1171 887 1171 911 1180 c 1,56,57
 905 1130 905 1130 905 1029.5 c 128,-1,58
 905 929 905 929 918 889 c 1,59,-1
 848 889 l 1,60,61
 848 1015 848 1015 761.5 1094.5 c 128,-1,62
 675 1174 675 1174 563 1174 c 128,-1,63
 451 1174 451 1174 387.5 1122.5 c 128,-1,64
 324 1071 324 1071 324 1001 c 128,-1,65
 324 931 324 931 366 886 c 128,-1,66
 408 841 408 841 500 803 c 1,67,-1
 674 729 l 1,68,69
 833 659 833 659 902 580 c 128,-1,70
 971 501 971 501 971 373 c 0,71,72
 971 209 971 209 862 99 c 128,-1,73
 753 -11 753 -11 553 -20 c 1,74,-1
 520 -74 l 2,0,1
EndSplineSet
EndChar

StartChar: Scommaaccent
Encoding: 536 536 80
Width: 1019
Flags: MW
HStem: -289 219<479 494> -20 74<492 572 411 672> 889 283<848 863 844 918 848 848> 1174 70<484 572 375 631>
VStem: 98 225<951 978> 537 150<-367 -187> 727 244<264 310> 848 57<889 1061>
LayerCount: 2
UndoRedoHistory
Layer: 1
Undoes
EndUndoes
Redoes
EndRedoes
EndUndoRedoHistory
Fore
SplineSet
150 416 m 1,0,1
 171 238 171 238 266 145.5 c 128,-1,2
 361 53 361 53 502 53 c 0,3,4
 606 53 606 53 666.5 110.5 c 128,-1,5
 727 168 727 168 727 262 c 0,6,7
 727 406 727 406 532 481 c 1,8,-1
 332 565 l 1,9,10
 98 661 98 661 98 883 c 0,11,12
 98 1032 98 1032 200 1134 c 0,13,14
 309 1243 309 1243 516 1243 c 0,15,16
 568.5 1243 568.5 1243 597.25 1238 c 128,-1,17
 626 1233 626 1233 638 1231 c 128,-1,18
 650 1229 650 1229 676.5 1221.5 c 128,-1,19
 703 1214 703 1214 710 1211.5 c 0,20,21
 763 1192.57142857 763 1192.57142857 796.5 1181.78571429 c 128,-1,22
 830 1171 830 1171 858.5 1171 c 128,-1,23
 887 1171 887 1171 911 1180 c 1,24,25
 905 1130 905 1130 905 1029.5 c 128,-1,26
 905 929 905 929 918 889 c 1,27,-1
 848 889 l 1,28,29
 848 1015 848 1015 761.5 1094.5 c 128,-1,30
 675 1174 675 1174 563 1174 c 128,-1,31
 451 1174 451 1174 387.5 1122.5 c 128,-1,32
 324 1071 324 1071 324 1001 c 128,-1,33
 324 931 324 931 366 886 c 128,-1,34
 408 841 408 841 500 803 c 1,35,-1
 674 729 l 1,36,37
 833 659 833 659 902 580 c 128,-1,38
 971 501 971 501 971 373 c 0,39,40
 971 202 971 202 854 91 c 128,-1,41
 737 -20 737 -20 524 -20 c 0,42,43
 434 -20 434 -20 324 8.5 c 128,-1,44
 214 37 214 37 185.5 37 c 128,-1,45
 157 37 157 37 138 35 c 0,46,47
 95.5294117647 30.5294117647 95.5294117647 30.5294117647 92 27 c 1,48,49
 100 71 100 71 100 235.5 c 128,-1,50
 100 400 100 400 84 410 c 1,51,-1
 150 416 l 1,0,1
438 -469 m 1,52,53
 478 -445 478 -445 507.5 -410 c 128,-1,54
 537 -375 537 -375 537 -348 c 0,55,56
 537 -289 537 -289 479 -289 c 0,57,58
 441 -289 441 -289 418 -259 c 128,-1,59
 395 -229 395 -229 395 -184.5 c 128,-1,60
 395 -140 395 -140 428 -105 c 128,-1,61
 461 -70 461 -70 528.5 -70 c 128,-1,62
 596 -70 596 -70 641 -117 c 128,-1,63
 686 -164 686 -164 686 -241.5 c 128,-1,64
 686 -319 686 -319 626.5 -395.5 c 128,-1,65
 567 -472 567 -472 483 -514 c 1,66,-1
 438 -469 l 1,52,53
EndSplineSet
EndChar

StartChar: T
Encoding: 84 84 81
Width: 1114
Flags: MW
HStem: 0 72<377 389 726 739> 909 315<31 987 31 987 129 1083 129 1016> 1153 72<263 354 354 391 716 723 723 764>
VStem: 31 70<909 991 909 1229> 416 283<123 1128 1128 1130> 1016 68<909 991>
LayerCount: 2
UndoRedoHistory
Layer: 1
Undoes
EndUndoes
Redoes
EndRedoes
EndUndoRedoHistory
Fore
SplineSet
31 1229 m 1,0,1
 67 1225 67 1225 129 1225 c 2,2,-1
 987 1225 l 2,3,4
 1063 1225 1063 1225 1083 1229 c 1,5,-1
 1083 909 l 1,6,-1
 1016 909 l 1,7,8
 1016 1034 1016 1034 957 1093.5 c 128,-1,9
 898 1153 898 1153 764 1153 c 2,10,-1
 723 1153 l 2,11,12
 701 1153 701 1153 698 1130 c 1,13,-1
 698 117 l 2,14,15
 698 72 698 72 739 72 c 1,16,-1
 848 76 l 1,17,-1
 848 0 l 1,18,-1
 266 0 l 1,19,-1
 266 76 l 1,20,-1
 377 72 l 2,21,22
 395 72 395 72 405.5 87 c 128,-1,23
 416 102 416 102 416 123 c 2,24,-1
 416 1128 l 2,25,26
 416 1153 416 1153 391 1153 c 2,27,-1
 354 1153 l 2,28,29
 220 1153 220 1153 160 1093.5 c 128,-1,30
 100 1034 100 1034 100 909 c 1,31,-1
 31 909 l 1,32,-1
 31 1229 l 1,0,1
EndSplineSet
Position2: "'cpsp' Capital Spacing lookup 0 per glyph data 2" dx=10 dy=0 dh=20 dv=0
EndChar

StartChar: Tcaron
Encoding: 356 356 82
Width: 1114
Flags: MW
HStem: 0 72<377 389 726 739> 909 315<31 987 31 987 129 1083 129 1016> 1153 72<263 354 354 391 716 723 723 764> 1405 123<492 559 559 627>
VStem: 31 70<909 991 909 1229> 416 283<123 1128 1128 1130> 1016 68<909 991>
LayerCount: 2
UndoRedoHistory
Layer: 1
Undoes
EndUndoes
Redoes
EndRedoes
EndUndoRedoHistory
Fore
SplineSet
395 1503 m 1,0,1
 362 1540 362 1540 320 1581 c 0,2,3
 240 1659.0952381 240 1659.0952381 240 1673.54761905 c 128,-1,4
 240 1688 240 1688 266 1688 c 128,-1,5
 292 1688 292 1688 332 1663 c 1,6,-1
 559 1528 l 1,7,-1
 788 1663 l 1,8,9
 828 1688 828 1688 853.5 1688 c 128,-1,10
 879 1688 879 1688 879 1671 c 0,11,12
 879 1660.07142857 879 1660.07142857 817.5 1600.03571429 c 128,-1,13
 756 1540 756 1540 723 1503 c 1,14,-1
 627 1405 l 1,15,16
 593 1368 593 1368 561 1368 c 128,-1,17
 529 1368 529 1368 492 1405 c 2,18,-1
 395 1503 l 1,0,1
31 1229 m 1,19,20
 67 1225 67 1225 129 1225 c 2,21,-1
 987 1225 l 2,22,23
 1063 1225 1063 1225 1083 1229 c 1,24,-1
 1083 909 l 1,25,-1
 1016 909 l 1,26,27
 1016 1034 1016 1034 957 1093.5 c 128,-1,28
 898 1153 898 1153 764 1153 c 2,29,-1
 723 1153 l 2,30,31
 701 1153 701 1153 698 1130 c 1,32,-1
 698 117 l 2,33,34
 698 72 698 72 739 72 c 1,35,-1
 848 76 l 1,36,-1
 848 0 l 1,37,-1
 266 0 l 1,38,-1
 266 76 l 1,39,-1
 377 72 l 2,40,41
 395 72 395 72 405.5 87 c 128,-1,42
 416 102 416 102 416 123 c 2,43,-1
 416 1128 l 2,44,45
 416 1153 416 1153 391 1153 c 2,46,-1
 354 1153 l 2,47,48
 220 1153 220 1153 160 1093.5 c 128,-1,49
 100 1034 100 1034 100 909 c 1,50,-1
 31 909 l 1,51,-1
 31 1229 l 1,19,20
EndSplineSet
EndChar

StartChar: Tcedilla
Encoding: 354 354 83
Width: 1114
Flags: MW
HStem: -438 72<454 566> 0 72<377 389 377 528 726 739> 909 315<31 987 31 987 129 1083 129 1016> 1153 72<263 354 354 391 716 723 723 764>
VStem: 31 70<909 991 909 1229> 416 283<123 1128 1128 1130> 432 121<-138 -128> 571 178<-297 -255> 1016 68<909 991>
LayerCount: 2
UndoRedoHistory
Layer: 1
Undoes
EndUndoes
Redoes
EndRedoes
EndUndoRedoHistory
Fore
SplineSet
987 1225 m 2,0,1
 1063 1225 1063 1225 1083 1229 c 1,2,-1
 1083 909 l 1,3,-1
 1016 909 l 1,4,5
 1016 1034 1016 1034 957 1093.5 c 128,-1,6
 898 1153 898 1153 764 1153 c 2,7,-1
 723 1153 l 2,8,9
 701 1153 701 1153 698 1130 c 1,10,-1
 698 117 l 2,11,12
 698 72 698 72 739 72 c 1,13,-1
 848 76 l 1,14,-1
 848 0 l 1,15,-1
 610 0 l 1,16,-1
 565 -74 l 2,17,18
 553 -95 553 -95 553 -112.5 c 128,-1,19
 553 -130 553 -130 584 -139 c 128,-1,20
 615 -148 615 -148 651.5 -153.5 c 128,-1,21
 688 -159 688 -159 719 -183 c 128,-1,22
 750 -207 750 -207 750 -259.5 c 128,-1,23
 750 -312 750 -312 712.5 -356 c 0,24,25
 642.613636364 -438 642.613636364 -438 512 -438 c 0,26,27
 420 -438 420 -438 371 -406 c 1,28,-1
 397 -340 l 1,29,30
 421 -367 421 -367 464.5 -367 c 128,-1,31
 508 -367 508 -367 539.5 -337.5 c 128,-1,32
 571 -308 571 -308 571 -268 c 128,-1,33
 571 -228 571 -228 502 -193 c 1,34,-1
 455 -164 l 1,35,36
 432 -148 432 -148 432 -133 c 128,-1,37
 432 -118 432 -118 444 -106 c 1,38,-1
 528 0 l 1,39,-1
 266 0 l 1,40,-1
 266 76 l 1,41,-1
 377 72 l 2,42,43
 395 72 395 72 405.5 87 c 128,-1,44
 416 102 416 102 416 123 c 2,45,-1
 416 1128 l 2,46,47
 416 1153 416 1153 391 1153 c 2,48,-1
 354 1153 l 2,49,50
 220 1153 220 1153 160 1093.5 c 128,-1,51
 100 1034 100 1034 100 909 c 1,52,-1
 31 909 l 1,53,-1
 31 1229 l 1,54,55
 67 1225 67 1225 129 1225 c 2,56,-1
 987 1225 l 2,0,1
EndSplineSet
EndChar

StartChar: uni021A
Encoding: 538 538 84
Width: 1114
Flags: MW
HStem: -289 219<524 539> 0 72<377 389 726 739> 909 315<31 987 31 987 129 1083 129 1016> 1153 72<263 354 354 391 716 723 723 764>
VStem: 31 70<909 991 909 1229> 416 283<123 1128 1128 1130> 582 150<-367 -187> 1016 68<909 991>
LayerCount: 2
UndoRedoHistory
Layer: 1
Undoes
EndUndoes
Redoes
EndRedoes
EndUndoRedoHistory
Fore
SplineSet
31 1229 m 1,0,1
 67 1225 67 1225 129 1225 c 2,2,-1
 987 1225 l 2,3,4
 1063 1225 1063 1225 1083 1229 c 1,5,-1
 1083 909 l 1,6,-1
 1016 909 l 1,7,8
 1016 1034 1016 1034 957 1093.5 c 128,-1,9
 898 1153 898 1153 764 1153 c 2,10,-1
 723 1153 l 2,11,12
 701 1153 701 1153 698 1130 c 1,13,-1
 698 117 l 2,14,15
 698 72 698 72 739 72 c 1,16,-1
 848 76 l 1,17,-1
 848 0 l 1,18,-1
 266 0 l 1,19,-1
 266 76 l 1,20,-1
 377 72 l 2,21,22
 395 72 395 72 405.5 87 c 128,-1,23
 416 102 416 102 416 123 c 2,24,-1
 416 1128 l 2,25,26
 416 1153 416 1153 391 1153 c 2,27,-1
 354 1153 l 2,28,29
 220 1153 220 1153 160 1093.5 c 128,-1,30
 100 1034 100 1034 100 909 c 1,31,-1
 31 909 l 1,32,-1
 31 1229 l 1,0,1
483 -469 m 1,33,34
 523 -445 523 -445 552.5 -410 c 128,-1,35
 582 -375 582 -375 582 -348 c 0,36,37
 582 -289 582 -289 524 -289 c 0,38,39
 486 -289 486 -289 463 -259 c 128,-1,40
 440 -229 440 -229 440 -184.5 c 0,41,42
 440 -140 440 -140 473 -105 c 128,-1,43
 506 -70 506 -70 573.5 -70 c 0,44,45
 641 -70 641 -70 686 -117 c 128,-1,46
 731 -164 731 -164 731 -241.5 c 0,47,48
 731 -319 731 -319 671.5 -395.5 c 128,-1,49
 612 -472 612 -472 528 -514 c 1,50,-1
 483 -469 l 1,33,34
EndSplineSet
EndChar

StartChar: U
Encoding: 85 85 85
Width: 1349
Flags: MW
HStem: -20 84<687 887> 1151 72<150 150 497 509 508 512 1053 1053 1203 1215 1214 1219>
VStem: 188 283<408 1108 1108 1110> 1090 88<416 1108 1108 1110>
LayerCount: 2
UndoRedoHistory
Layer: 1
Undoes
EndUndoes
Redoes
EndRedoes
EndUndoRedoHistory
Fore
SplineSet
1214 1151 m 2,0,1
 1178 1151 1178 1151 1178 1110 c 2,2,-1
 1178 416 l 2,3,4
 1178 210 1178 210 1067.5 95 c 128,-1,5
 957 -20 957 -20 733 -20 c 0,6,7
 188 -20 188 -20 188 408 c 2,8,-1
 188 1108 l 2,9,10
 188 1126 188 1126 177.5 1139 c 128,-1,11
 167 1152 167 1152 150 1151 c 2,12,-1
 72 1147 l 1,13,-1
 72 1223 l 1,14,-1
 612 1223 l 1,15,-1
 612 1147 l 1,16,-1
 512 1151 l 1,17,-1
 508 1151 l 2,18,19
 471 1151 471 1151 471 1110 c 2,20,-1
 471 408 l 2,21,22
 471 63 471 63 786 63 c 0,23,24
 943 63 943 63 1016.5 158 c 128,-1,25
 1090 253 1090 253 1090 416 c 2,26,-1
 1090 1108 l 2,27,28
 1090 1153.17647059 1090 1153.17647059 1053 1151 c 2,29,-1
 952 1147 l 1,30,-1
 952 1223 l 1,31,-1
 1298 1223 l 1,32,-1
 1298 1147 l 1,33,-1
 1219 1151 l 1,34,-1
 1214 1151 l 2,0,1
EndSplineSet
Position2: "'cpsp' Capital Spacing lookup 0 per glyph data 2" dx=10 dy=0 dh=20 dv=0
EndChar

StartChar: Uacute
Encoding: 218 218 86
Width: 1349
Flags: MW
HStem: -20 84<687 887> 1151 72<150 150 497 508 508 512 1053 1053 1203 1214 1214 1219>
VStem: 188 283<408 1108 1108 1110> 1090 88<416 1108 1108 1110>
LayerCount: 2
UndoRedoHistory
Layer: 1
Undoes
EndUndoes
Redoes
EndRedoes
EndUndoRedoHistory
Fore
SplineSet
797 1640 m 1,0,1
 828.764705882 1679.70588235 828.764705882 1679.70588235 835.382352941 1682.35294118 c 128,-1,2
 842 1685 842 1685 847.5 1688 c 0,3,4
 854.833333333 1692 854.833333333 1692 880.916666667 1692 c 128,-1,5
 907 1692 907 1692 958.5 1664.5 c 128,-1,6
 1010 1637 1010 1637 1010 1618 c 128,-1,7
 1010 1599 1010 1599 983 1579 c 1,8,-1
 641 1370 l 1,9,10
 614 1352 614 1352 591.5 1352 c 128,-1,11
 569 1352 569 1352 569 1371.5 c 128,-1,12
 569 1391 569 1391 602 1427 c 2,13,-1
 797 1640 l 1,0,1
1214 1151 m 2,14,15
 1178 1151 1178 1151 1178 1110 c 2,16,-1
 1178 416 l 2,17,18
 1178 210 1178 210 1067.5 95 c 128,-1,19
 957 -20 957 -20 733 -20 c 0,20,21
 188 -20 188 -20 188 408 c 2,22,-1
 188 1108 l 2,23,24
 188 1126 188 1126 177.5 1139 c 128,-1,25
 167 1152 167 1152 150 1151 c 2,26,-1
 72 1147 l 1,27,-1
 72 1223 l 1,28,-1
 612 1223 l 1,29,-1
 612 1147 l 1,30,-1
 512 1151 l 1,31,-1
 508 1151 l 2,32,33
 471 1151 471 1151 471 1110 c 2,34,-1
 471 408 l 2,35,36
 471 63 471 63 786 63 c 0,37,38
 943 63 943 63 1016.5 158 c 128,-1,39
 1090 253 1090 253 1090 416 c 2,40,-1
 1090 1108 l 2,41,42
 1090 1153.17647059 1090 1153.17647059 1053 1151 c 2,43,-1
 952 1147 l 1,44,-1
 952 1223 l 1,45,-1
 1298 1223 l 1,46,-1
 1298 1147 l 1,47,-1
 1219 1151 l 1,48,-1
 1214 1151 l 2,14,15
EndSplineSet
Position2: "'cpsp' Capital Spacing lookup 0 per glyph data 2" dx=10 dy=0 dh=20 dv=0
EndChar

StartChar: Ucircumflex
Encoding: 219 219 87
Width: 1349
Flags: MW
HStem: -20 84<687 887> 1151 72<150 150 497 508 508 512 1053 1053 1203 1214 1214 1219> 1524 123<637 705>
VStem: 188 283<408 1108 1108 1110> 1090 88<416 1108 1108 1110>
LayerCount: 2
UndoRedoHistory
Layer: 1
Undoes
EndUndoes
Redoes
EndRedoes
EndUndoRedoHistory
Fore
SplineSet
868 1548 m 1,0,1
 901 1511 901 1511 943 1470 c 0,2,3
 1024 1390.92857143 1024 1390.92857143 1024 1377.46428571 c 128,-1,4
 1024 1364 1024 1364 998 1364 c 128,-1,5
 972 1364 972 1364 932 1389 c 1,6,-1
 705 1524 l 1,7,-1
 475 1389 l 1,8,9
 435 1364 435 1364 410 1364 c 128,-1,10
 385 1364 385 1364 385 1380 c 0,11,12
 385 1390.92857143 385 1390.92857143 446.5 1450.96428571 c 128,-1,13
 508 1511 508 1511 541 1548 c 1,14,-1
 637 1647 l 1,15,16
 670 1683 670 1683 703 1683 c 128,-1,17
 736 1683 736 1683 772 1647 c 2,18,-1
 868 1548 l 1,0,1
1214 1151 m 2,19,20
 1178 1151 1178 1151 1178 1110 c 2,21,-1
 1178 416 l 2,22,23
 1178 210 1178 210 1067.5 95 c 128,-1,24
 957 -20 957 -20 733 -20 c 0,25,26
 188 -20 188 -20 188 408 c 2,27,-1
 188 1108 l 2,28,29
 188 1126 188 1126 177.5 1139 c 128,-1,30
 167 1152 167 1152 150 1151 c 2,31,-1
 72 1147 l 1,32,-1
 72 1223 l 1,33,-1
 612 1223 l 1,34,-1
 612 1147 l 1,35,-1
 512 1151 l 1,36,-1
 508 1151 l 2,37,38
 471 1151 471 1151 471 1110 c 2,39,-1
 471 408 l 2,40,41
 471 63 471 63 786 63 c 0,42,43
 943 63 943 63 1016.5 158 c 128,-1,44
 1090 253 1090 253 1090 416 c 2,45,-1
 1090 1108 l 2,46,47
 1090 1153.17647059 1090 1153.17647059 1053 1151 c 2,48,-1
 952 1147 l 1,49,-1
 952 1223 l 1,50,-1
 1298 1223 l 1,51,-1
 1298 1147 l 1,52,-1
 1219 1151 l 1,53,-1
 1214 1151 l 2,19,20
EndSplineSet
Position2: "'cpsp' Capital Spacing lookup 0 per glyph data 2" dx=10 dy=0 dh=20 dv=0
EndChar

StartChar: Udieresis
Encoding: 220 220 88
Width: 1349
Flags: MW
HStem: -20 84<687 887> 1151 72<150 150 497 508 508 512 1053 1053 1203 1214 1214 1219> 1395 258<441 532 441 534 871 963>
VStem: 188 283<408 1108 1108 1110> 330 315<1484 1563> 760 315<1484 1563> 1090 88<416 1108 1108 1110>
LayerCount: 2
UndoRedoHistory
Layer: 1
Undoes
EndUndoes
Redoes
EndRedoes
EndUndoRedoHistory
Fore
SplineSet
373.5 1430 m 128,-1,1
 330 1465 330 1465 330 1523.5 c 128,-1,2
 330 1582 330 1582 373.5 1617.5 c 128,-1,3
 417 1653 417 1653 486 1653 c 128,-1,4
 555 1653 555 1653 600 1617.5 c 128,-1,5
 645 1582 645 1582 645 1523.5 c 128,-1,6
 645 1465 645 1465 601 1430 c 128,-1,7
 557 1395 557 1395 487 1395 c 128,-1,0
 417 1395 417 1395 373.5 1430 c 128,-1,1
804 1430 m 128,-1,9
 760 1465 760 1465 760 1523.5 c 128,-1,10
 760 1582 760 1582 804 1617.5 c 128,-1,11
 848 1653 848 1653 917 1653 c 128,-1,12
 986 1653 986 1653 1030.5 1617.5 c 128,-1,13
 1075 1582 1075 1582 1075 1523.5 c 128,-1,14
 1075 1465 1075 1465 1031.5 1430 c 128,-1,15
 988 1395 988 1395 918 1395 c 128,-1,8
 848 1395 848 1395 804 1430 c 128,-1,9
1214 1151 m 2,16,17
 1178 1151 1178 1151 1178 1110 c 2,18,-1
 1178 416 l 2,19,20
 1178 210 1178 210 1067.5 95 c 128,-1,21
 957 -20 957 -20 733 -20 c 0,22,23
 188 -20 188 -20 188 408 c 2,24,-1
 188 1108 l 2,25,26
 188 1126 188 1126 177.5 1139 c 128,-1,27
 167 1152 167 1152 150 1151 c 2,28,-1
 72 1147 l 1,29,-1
 72 1223 l 1,30,-1
 612 1223 l 1,31,-1
 612 1147 l 1,32,-1
 512 1151 l 1,33,-1
 508 1151 l 2,34,35
 471 1151 471 1151 471 1110 c 2,36,-1
 471 408 l 2,37,38
 471 63 471 63 786 63 c 0,39,40
 943 63 943 63 1016.5 158 c 128,-1,41
 1090 253 1090 253 1090 416 c 2,42,-1
 1090 1108 l 2,43,44
 1090 1153.17647059 1090 1153.17647059 1053 1151 c 2,45,-1
 952 1147 l 1,46,-1
 952 1223 l 1,47,-1
 1298 1223 l 1,48,-1
 1298 1147 l 1,49,-1
 1219 1151 l 1,50,-1
 1214 1151 l 2,16,17
EndSplineSet
Position2: "'cpsp' Capital Spacing lookup 0 per glyph data 2" dx=10 dy=0 dh=20 dv=0
EndChar

StartChar: Ugrave
Encoding: 217 217 89
Width: 1349
Flags: MW
HStem: -20 84<687 887> 1151 72<150 150 497 508 508 512 1053 1053 1203 1214 1214 1219>
VStem: 188 283<408 1108 1108 1110> 1090 88<416 1108 1108 1110>
LayerCount: 2
UndoRedoHistory
Layer: 1
Undoes
EndUndoes
Redoes
EndRedoes
EndUndoRedoHistory
Fore
SplineSet
614 1640 m 1,0,1
 582.235294118 1679.70588235 582.235294118 1679.70588235 575.617647059 1682.35294118 c 128,-1,2
 569 1685 569 1685 563.5 1688 c 0,3,4
 556.166666667 1692 556.166666667 1692 530.083333333 1692 c 128,-1,5
 504 1692 504 1692 452.5 1664.5 c 128,-1,6
 401 1637 401 1637 401 1618 c 128,-1,7
 401 1599 401 1599 428 1579 c 1,8,-1
 770 1370 l 1,9,10
 797 1352 797 1352 819.5 1352 c 128,-1,11
 842 1352 842 1352 842 1371.5 c 128,-1,12
 842 1391 842 1391 809 1427 c 2,13,-1
 614 1640 l 1,0,1
1214 1151 m 2,14,15
 1178 1151 1178 1151 1178 1110 c 2,16,-1
 1178 416 l 2,17,18
 1178 210 1178 210 1067.5 95 c 128,-1,19
 957 -20 957 -20 733 -20 c 0,20,21
 188 -20 188 -20 188 408 c 2,22,-1
 188 1108 l 2,23,24
 188 1126 188 1126 177.5 1139 c 128,-1,25
 167 1152 167 1152 150 1151 c 2,26,-1
 72 1147 l 1,27,-1
 72 1223 l 1,28,-1
 612 1223 l 1,29,-1
 612 1147 l 1,30,-1
 512 1151 l 1,31,-1
 508 1151 l 2,32,33
 471 1151 471 1151 471 1110 c 2,34,-1
 471 408 l 2,35,36
 471 63 471 63 786 63 c 0,37,38
 943 63 943 63 1016.5 158 c 128,-1,39
 1090 253 1090 253 1090 416 c 2,40,-1
 1090 1108 l 2,41,42
 1090 1153.17647059 1090 1153.17647059 1053 1151 c 2,43,-1
 952 1147 l 1,44,-1
 952 1223 l 1,45,-1
 1298 1223 l 1,46,-1
 1298 1147 l 1,47,-1
 1219 1151 l 1,48,-1
 1214 1151 l 2,14,15
EndSplineSet
Position2: "'cpsp' Capital Spacing lookup 0 per glyph data 2" dx=10 dy=0 dh=20 dv=0
EndChar

StartChar: Uhungarumlaut
Encoding: 368 368 90
Width: 1349
Flags: MW
HStem: -20 84<687 887> 1151 72<150 150 497 508 508 512 1053 1053 1203 1214 1214 1219>
VStem: 188 283<408 1108 1108 1110> 1090 88<416 1108 1108 1110>
LayerCount: 2
UndoRedoHistory
Layer: 1
Undoes
EndUndoes
Redoes
EndRedoes
EndUndoRedoHistory
Fore
SplineSet
463 1403 m 0,0,1
 605 1665 605 1665 615.5 1678.5 c 128,-1,2
 626 1692 626 1692 644.5 1692 c 128,-1,3
 663 1692 663 1692 758 1659 c 0,4,5
 776 1652 776 1652 776 1638.5 c 128,-1,6
 776 1625 776 1625 761.5 1608 c 128,-1,7
 747 1591 747 1591 528 1386 c 1,8,9
 500 1362 500 1362 478.5 1362 c 128,-1,10
 457 1362 457 1362 457 1380 c 0,11,12
 457 1391 457 1391 463 1403 c 0,0,1
788 1386 m 1,13,14
 760 1362 760 1362 739.5 1362 c 128,-1,15
 719 1362 719 1362 719 1380 c 0,16,17
 719 1391 719 1391 725 1403 c 0,18,19
 870 1671 870 1671 878 1681.5 c 128,-1,20
 886 1692 886 1692 905.5 1692 c 128,-1,21
 925 1692 925 1692 1020 1659 c 0,22,23
 1038 1652 1038 1652 1038 1638.5 c 128,-1,24
 1038 1625 1038 1625 1021.5 1607 c 128,-1,25
 1005 1589 1005 1589 788 1386 c 1,13,14
1214 1151 m 2,26,27
 1178 1151 1178 1151 1178 1110 c 2,28,-1
 1178 416 l 2,29,30
 1178 210 1178 210 1067.5 95 c 128,-1,31
 957 -20 957 -20 733 -20 c 0,32,33
 188 -20 188 -20 188 408 c 2,34,-1
 188 1108 l 2,35,36
 188 1126 188 1126 177.5 1139 c 128,-1,37
 167 1152 167 1152 150 1151 c 2,38,-1
 72 1147 l 1,39,-1
 72 1223 l 1,40,-1
 612 1223 l 1,41,-1
 612 1147 l 1,42,-1
 512 1151 l 1,43,-1
 508 1151 l 2,44,45
 471 1151 471 1151 471 1110 c 2,46,-1
 471 408 l 2,47,48
 471 63 471 63 786 63 c 0,49,50
 943 63 943 63 1016.5 158 c 128,-1,51
 1090 253 1090 253 1090 416 c 2,52,-1
 1090 1108 l 2,53,54
 1090 1153.17647059 1090 1153.17647059 1053 1151 c 2,55,-1
 952 1147 l 1,56,-1
 952 1223 l 1,57,-1
 1298 1223 l 1,58,-1
 1298 1147 l 1,59,-1
 1219 1151 l 1,60,-1
 1214 1151 l 2,26,27
EndSplineSet
EndChar

StartChar: Umacron
Encoding: 362 362 91
Width: 1349
Flags: MW
HStem: -20 84<687 887> 1151 72<150 150 497 508 508 512 1053 1053 1203 1214 1214 1219> 1432 96<459 948 459 948>
VStem: 188 283<408 1108 1108 1110> 459 489<1432 1528 1432 1528> 1090 88<416 1108 1108 1110>
LayerCount: 2
UndoRedoHistory
Layer: 1
Undoes
EndUndoes
Redoes
EndRedoes
EndUndoRedoHistory
Fore
SplineSet
459 1528 m 1,0,-1
 948 1528 l 1,1,-1
 948 1432 l 1,2,-1
 459 1432 l 1,3,-1
 459 1528 l 1,0,-1
1214 1151 m 2,4,5
 1178 1151 1178 1151 1178 1110 c 2,6,-1
 1178 416 l 2,7,8
 1178 210 1178 210 1067.5 95 c 128,-1,9
 957 -20 957 -20 733 -20 c 0,10,11
 188 -20 188 -20 188 408 c 2,12,-1
 188 1108 l 2,13,14
 188 1126 188 1126 177.5 1139 c 128,-1,15
 167 1152 167 1152 150 1151 c 2,16,-1
 72 1147 l 1,17,-1
 72 1223 l 1,18,-1
 612 1223 l 1,19,-1
 612 1147 l 1,20,-1
 512 1151 l 1,21,-1
 508 1151 l 2,22,23
 471 1151 471 1151 471 1110 c 2,24,-1
 471 408 l 2,25,26
 471 63 471 63 786 63 c 0,27,28
 943 63 943 63 1016.5 158 c 128,-1,29
 1090 253 1090 253 1090 416 c 2,30,-1
 1090 1108 l 2,31,32
 1090 1153.17647059 1090 1153.17647059 1053 1151 c 2,33,-1
 952 1147 l 1,34,-1
 952 1223 l 1,35,-1
 1298 1223 l 1,36,-1
 1298 1147 l 1,37,-1
 1219 1151 l 1,38,-1
 1214 1151 l 2,4,5
EndSplineSet
EndChar

StartChar: Uogonek
Encoding: 370 370 92
Width: 1349
Flags: MW
HStem: -326 119<953 959> -20 84<687 752> 1151 72<150 150 497 508 508 512 1053 1053 1203 1214 1214 1219>
VStem: 188 283<408 1108 1108 1110> 750 137<-227 -84> 1090 88<416 1108 1108 1110>
LayerCount: 2
UndoRedoHistory
Layer: 1
Undoes
EndUndoes
Redoes
EndRedoes
EndUndoRedoHistory
Fore
SplineSet
1090 1108 m 2,0,1
 1090 1153.17647059 1090 1153.17647059 1053 1151 c 2,2,-1
 952 1147 l 1,3,-1
 952 1223 l 1,4,-1
 1298 1223 l 1,5,-1
 1298 1147 l 1,6,-1
 1219 1151 l 1,7,-1
 1214 1151 l 2,8,9
 1178 1151 1178 1151 1178 1110 c 2,10,-1
 1178 416 l 2,11,12
 1178 122 1178 122 967 25 c 1,13,14
 887 -21.3157894737 887 -21.3157894737 887 -113 c 0,15,16
 887 -154 887 -154 912.5 -180.5 c 128,-1,17
 938 -207 938 -207 999.5 -207 c 128,-1,18
 1061 -207 1061 -207 1133 -164 c 1,19,-1
 1157 -203 l 1,20,21
 1050 -326 1050 -326 915 -326 c 0,22,23
 847 -326 847 -326 798.5 -287 c 128,-1,24
 750 -248 750 -248 750 -165.5 c 128,-1,25
 750 -83 750 -83 834 -14 c 1,26,27
 788 -20 788 -20 733 -20 c 0,28,29
 188 -20 188 -20 188 408 c 2,30,-1
 188 1108 l 2,31,32
 188 1126 188 1126 177.5 1139 c 128,-1,33
 167 1152 167 1152 150 1151 c 2,34,-1
 72 1147 l 1,35,-1
 72 1223 l 1,36,-1
 612 1223 l 1,37,-1
 612 1147 l 1,38,-1
 512 1151 l 1,39,-1
 508 1151 l 2,40,41
 471 1151 471 1151 471 1110 c 2,42,-1
 471 408 l 2,43,44
 471 63 471 63 786 63 c 0,45,46
 943 63 943 63 1016.5 158 c 128,-1,47
 1090 253 1090 253 1090 416 c 2,48,-1
 1090 1108 l 2,0,1
EndSplineSet
EndChar

StartChar: Uring
Encoding: 366 366 93
Width: 1349
Flags: MW
HStem: -20 84<687 887> 1151 72<150 150 497 508 508 512 1053 1053 1203 1214 1214 1219> 1362 84<679 726 679 755> 1616 86<679 726>
VStem: 188 283<408 1108 1108 1110> 524 102<1505 1558 1505 1580> 780 102<1505 1558> 1090 88<416 1108 1108 1110>
LayerCount: 2
UndoRedoHistory
Layer: 1
Undoes
EndUndoes
Redoes
EndRedoes
EndUndoRedoHistory
Fore
SplineSet
574.5 1410.5 m 128,-1,1
 524 1459 524 1459 524 1531.5 c 128,-1,2
 524 1604 524 1604 575.5 1653 c 128,-1,3
 627 1702 627 1702 703.5 1702 c 128,-1,4
 780 1702 780 1702 831.5 1653.5 c 128,-1,5
 883 1605 883 1605 883 1532 c 128,-1,6
 883 1459 883 1459 831.5 1410.5 c 128,-1,7
 780 1362 780 1362 702.5 1362 c 128,-1,0
 625 1362 625 1362 574.5 1410.5 c 128,-1,1
647 1593.5 m 128,-1,9
 627 1571 627 1571 627 1531.5 c 128,-1,10
 627 1492 627 1492 647 1469 c 128,-1,11
 667 1446 667 1446 702 1446 c 128,-1,12
 737 1446 737 1446 758.5 1469 c 128,-1,13
 780 1492 780 1492 780 1531 c 128,-1,14
 780 1570 780 1570 758.5 1593 c 128,-1,15
 737 1616 737 1616 702 1616 c 128,-1,8
 667 1616 667 1616 647 1593.5 c 128,-1,9
1214 1151 m 2,16,17
 1178 1151 1178 1151 1178 1110 c 2,18,-1
 1178 416 l 2,19,20
 1178 210 1178 210 1067.5 95 c 128,-1,21
 957 -20 957 -20 733 -20 c 0,22,23
 188 -20 188 -20 188 408 c 2,24,-1
 188 1108 l 2,25,26
 188 1126 188 1126 177.5 1139 c 128,-1,27
 167 1152 167 1152 150 1151 c 2,28,-1
 72 1147 l 1,29,-1
 72 1223 l 1,30,-1
 612 1223 l 1,31,-1
 612 1147 l 1,32,-1
 512 1151 l 1,33,-1
 508 1151 l 2,34,35
 471 1151 471 1151 471 1110 c 2,36,-1
 471 408 l 2,37,38
 471 63 471 63 786 63 c 0,39,40
 943 63 943 63 1016.5 158 c 128,-1,41
 1090 253 1090 253 1090 416 c 2,42,-1
 1090 1108 l 2,43,44
 1090 1153.17647059 1090 1153.17647059 1053 1151 c 2,45,-1
 952 1147 l 1,46,-1
 952 1223 l 1,47,-1
 1298 1223 l 1,48,-1
 1298 1147 l 1,49,-1
 1219 1151 l 1,50,-1
 1214 1151 l 2,16,17
EndSplineSet
EndChar

StartChar: V
Encoding: 86 86 94
Width: 1243
Flags: MW
HStem: 1151 72<53 62 411 418 1053 1061 1210 1210>
VStem: 954 330<1147 1223 1147 1223>
LayerCount: 2
UndoRedoHistory
Layer: 1
Undoes
EndUndoes
Redoes
EndRedoes
EndUndoRedoHistory
Fore
SplineSet
418 1151 m 2,0,1
 395 1151 395 1151 395 1120 c 0,2,3
 395 1114 395 1114 399 1102 c 1,4,-1
 735 326 l 1,5,-1
 1063 1079 l 2,6,7
 1077 1111 1077 1111 1077 1128 c 0,8,9
 1077 1151 1077 1151 1053 1151 c 2,10,-1
 954 1147 l 1,11,-1
 954 1223 l 1,12,-1
 1284 1223 l 1,13,-1
 1284 1147 l 1,14,-1
 1210 1151 l 2,15,16
 1194 1152 1194 1152 1186.5 1142.5 c 128,-1,17
 1179 1133 1179 1133 1167 1104 c 2,18,-1
 686 -8 l 1,19,-1
 580 -8 l 1,20,-1
 100 1104 l 2,21,22
 79 1151 79 1151 53 1151 c 1,23,-1
 -4 1147 l 1,24,-1
 -4 1223 l 1,25,-1
 520 1223 l 1,26,-1
 520 1147 l 1,27,-1
 418 1151 l 2,0,1
EndSplineSet
Position2: "'cpsp' Capital Spacing lookup 0 per glyph data 2" dx=10 dy=0 dh=20 dv=0
EndChar

StartChar: W
Encoding: 87 87 95
Width: 1865
Flags: MW
HStem: 1151 72<55 65 404 414 842 842 1166 1178 1686 1686 1845 1845>
VStem: 1579 328<1147 1223 1147 1223>
LayerCount: 2
UndoRedoHistory
Layer: 1
Undoes
EndUndoes
Redoes
EndRedoes
EndUndoRedoHistory
Fore
SplineSet
1907 1223 m 1,0,-1
 1907 1147 l 1,1,-1
 1845 1151 l 2,2,3
 1809.86538462 1152.95192308 1809.86538462 1152.95192308 1794 1108 c 2,4,-1
 1415 -20 l 1,5,-1
 1321 -20 l 1,6,-1
 944 958 l 1,7,-1
 612 -20 l 1,8,-1
 512 -20 l 1,9,-1
 98 1106 l 1,10,11
 83 1151 83 1151 55 1151 c 1,12,-1
 -6 1147 l 1,13,-1
 -6 1223 l 1,14,-1
 516 1223 l 1,15,-1
 516 1147 l 1,16,-1
 414 1151 l 1,17,18
 387 1151 387 1151 387 1128 c 0,19,20
 387 1124 387 1124 393 1106 c 2,21,-1
 657 373 l 1,22,-1
 899 1077 l 1,23,-1
 881 1122.5 l 1,24,25
 867.807228916 1152.84337349 867.807228916 1152.84337349 842 1151 c 2,26,-1
 758 1147 l 1,27,-1
 758 1223 l 1,28,-1
 1264 1223 l 1,29,-1
 1264 1147 l 1,30,-1
 1178 1151 l 2,31,32
 1162 1151 1162 1151 1156.5 1134.5 c 128,-1,33
 1151 1118 1151 1118 1157 1106 c 1,34,-1
 1444 326 l 1,35,-1
 1708 1110 l 2,36,37
 1712 1122 1712 1122 1712 1129.5 c 128,-1,38
 1712 1137 1712 1137 1704.5 1144.5 c 128,-1,39
 1697 1152 1697 1152 1686 1151 c 2,40,-1
 1579 1147 l 1,41,-1
 1579 1223 l 1,42,-1
 1907 1223 l 1,0,-1
EndSplineSet
Position2: "'cpsp' Capital Spacing lookup 0 per glyph data 2" dx=10 dy=0 dh=20 dv=0
EndChar

StartChar: Wacute
Encoding: 7810 7810 96
Width: 1865
Flags: MW
HStem: 1151 72<55 65 404 414 842 842 1166 1178 1686 1686 1845 1845>
VStem: 1579 328<1147 1223 1147 1223>
LayerCount: 2
UndoRedoHistory
Layer: 1
Undoes
EndUndoes
Redoes
EndRedoes
EndUndoRedoHistory
Fore
SplineSet
1079 1640 m 2,0,1
 1089 1650 1089 1650 1095 1657.5 c 128,-1,2
 1101 1665 1101 1665 1106.5 1670.5 c 0,3,4
 1120.5 1684.5 1120.5 1684.5 1125.75 1686.25 c 128,-1,5
 1131 1688 1131 1688 1135 1689.5 c 0,6,7
 1141.66666667 1692 1141.66666667 1692 1165.83333333 1692 c 128,-1,8
 1190 1692 1190 1692 1241 1664.5 c 128,-1,9
 1292 1637 1292 1637 1292 1617.5 c 128,-1,10
 1292 1598 1292 1598 1266 1579 c 1,11,-1
 924 1370 l 1,12,13
 897 1352 897 1352 874.5 1352 c 128,-1,14
 852 1352 852 1352 852 1371.5 c 128,-1,15
 852 1391 852 1391 885 1427 c 2,16,-1
 1079 1640 l 2,0,1
1907 1147 m 1,17,-1
 1845 1151 l 2,18,19
 1809.86538462 1152.95192308 1809.86538462 1152.95192308 1794 1108 c 2,20,-1
 1415 -20 l 1,21,-1
 1321 -20 l 1,22,-1
 944 958 l 1,23,-1
 612 -20 l 1,24,-1
 512 -20 l 1,25,-1
 98 1106 l 1,26,27
 83 1151 83 1151 55 1151 c 1,28,-1
 -6 1147 l 1,29,-1
 -6 1223 l 1,30,-1
 516 1223 l 1,31,-1
 516 1147 l 1,32,-1
 414 1151 l 1,33,34
 387 1151 387 1151 387 1128 c 0,35,36
 387 1124 387 1124 393 1106 c 2,37,-1
 657 373 l 1,38,-1
 899 1077 l 1,39,-1
 881 1122.5 l 1,40,41
 867.807228916 1152.84337349 867.807228916 1152.84337349 842 1151 c 2,42,-1
 758 1147 l 1,43,-1
 758 1223 l 1,44,-1
 1264 1223 l 1,45,-1
 1264 1147 l 1,46,-1
 1178 1151 l 2,47,48
 1162 1151 1162 1151 1156.5 1134.5 c 128,-1,49
 1151 1118 1151 1118 1157 1106 c 1,50,-1
 1444 326 l 1,51,-1
 1708 1110 l 2,52,53
 1712 1122 1712 1122 1712 1129.5 c 128,-1,54
 1712 1137 1712 1137 1704.5 1144.5 c 128,-1,55
 1697 1152 1697 1152 1686 1151 c 2,56,-1
 1579 1147 l 1,57,-1
 1579 1223 l 1,58,-1
 1907 1223 l 1,59,-1
 1907 1147 l 1,17,-1
EndSplineSet
EndChar

StartChar: Wcircumflex
Encoding: 372 372 97
Width: 1865
Flags: MW
HStem: 1151 72<55 65 404 414 842 842 1166 1178 1686 1686 1845 1845> 1524 123<920 987>
VStem: 1579 328<1147 1223 1147 1223>
LayerCount: 2
UndoRedoHistory
Layer: 1
Undoes
EndUndoes
Redoes
EndRedoes
EndUndoRedoHistory
Fore
SplineSet
1151 1548 m 1,0,1
 1184 1511 1184 1511 1226 1470 c 0,2,3
 1307 1390.92857143 1307 1390.92857143 1307 1377.46428571 c 128,-1,4
 1307 1364 1307 1364 1280.5 1364 c 128,-1,5
 1254 1364 1254 1364 1214 1389 c 1,6,-1
 987 1524 l 1,7,-1
 758 1389 l 1,8,9
 718 1364 718 1364 693 1364 c 128,-1,10
 668 1364 668 1364 668 1380 c 0,11,12
 668 1391.9047619 668 1391.9047619 729 1451.45238095 c 128,-1,13
 790 1511 790 1511 823 1548 c 1,14,-1
 920 1647 l 1,15,16
 953 1683 953 1683 986 1683 c 128,-1,17
 1019 1683 1019 1683 1055 1647 c 2,18,-1
 1151 1548 l 1,0,1
1907 1147 m 1,19,-1
 1845 1151 l 2,20,21
 1809.86538462 1152.95192308 1809.86538462 1152.95192308 1794 1108 c 2,22,-1
 1415 -20 l 1,23,-1
 1321 -20 l 1,24,-1
 944 958 l 1,25,-1
 612 -20 l 1,26,-1
 512 -20 l 1,27,-1
 98 1106 l 1,28,29
 83 1151 83 1151 55 1151 c 1,30,-1
 -6 1147 l 1,31,-1
 -6 1223 l 1,32,-1
 516 1223 l 1,33,-1
 516 1147 l 1,34,-1
 414 1151 l 1,35,36
 387 1151 387 1151 387 1128 c 0,37,38
 387 1124 387 1124 393 1106 c 2,39,-1
 657 373 l 1,40,-1
 899 1077 l 1,41,-1
 881 1122.5 l 1,42,43
 867.807228916 1152.84337349 867.807228916 1152.84337349 842 1151 c 2,44,-1
 758 1147 l 1,45,-1
 758 1223 l 1,46,-1
 1264 1223 l 1,47,-1
 1264 1147 l 1,48,-1
 1178 1151 l 2,49,50
 1162 1151 1162 1151 1156.5 1134.5 c 128,-1,51
 1151 1118 1151 1118 1157 1106 c 1,52,-1
 1444 326 l 1,53,-1
 1708 1110 l 2,54,55
 1712 1122 1712 1122 1712 1129.5 c 128,-1,56
 1712 1137 1712 1137 1704.5 1144.5 c 128,-1,57
 1697 1152 1697 1152 1686 1151 c 2,58,-1
 1579 1147 l 1,59,-1
 1579 1223 l 1,60,-1
 1907 1223 l 1,61,-1
 1907 1147 l 1,19,-1
EndSplineSet
EndChar

StartChar: Wdieresis
Encoding: 7812 7812 98
Width: 1865
Flags: MW
HStem: 1151 72<55 65 404 414 842 842 1166 1178 1686 1686 1845 1845> 1395 258<726 817 726 818 1156 1247>
VStem: 614 315<1484 1563> 1044 315<1484 1563> 1579 328<1147 1223 1147 1223>
LayerCount: 2
UndoRedoHistory
Layer: 1
Undoes
EndUndoes
Redoes
EndRedoes
EndUndoRedoHistory
Fore
SplineSet
658 1430 m 128,-1,1
 614 1465 614 1465 614 1523.5 c 128,-1,2
 614 1582 614 1582 658 1617.5 c 128,-1,3
 702 1653 702 1653 771 1653 c 128,-1,4
 840 1653 840 1653 885 1617.5 c 128,-1,5
 930 1582 930 1582 930 1523.5 c 128,-1,6
 930 1465 930 1465 886 1430 c 128,-1,7
 842 1395 842 1395 772 1395 c 128,-1,0
 702 1395 702 1395 658 1430 c 128,-1,1
1088 1430 m 128,-1,9
 1044 1465 1044 1465 1044 1523.5 c 128,-1,10
 1044 1582 1044 1582 1088 1617.5 c 128,-1,11
 1132 1653 1132 1653 1201 1653 c 128,-1,12
 1270 1653 1270 1653 1315 1617.5 c 128,-1,13
 1360 1582 1360 1582 1360 1523.5 c 128,-1,14
 1360 1465 1360 1465 1316 1430 c 128,-1,15
 1272 1395 1272 1395 1202 1395 c 128,-1,8
 1132 1395 1132 1395 1088 1430 c 128,-1,9
1907 1147 m 1,16,-1
 1845 1151 l 2,17,18
 1809.86538462 1152.95192308 1809.86538462 1152.95192308 1794 1108 c 2,19,-1
 1415 -20 l 1,20,-1
 1321 -20 l 1,21,-1
 944 958 l 1,22,-1
 612 -20 l 1,23,-1
 512 -20 l 1,24,-1
 98 1106 l 1,25,26
 83 1151 83 1151 55 1151 c 1,27,-1
 -6 1147 l 1,28,-1
 -6 1223 l 1,29,-1
 516 1223 l 1,30,-1
 516 1147 l 1,31,-1
 414 1151 l 1,32,33
 387 1151 387 1151 387 1128 c 0,34,35
 387 1124 387 1124 393 1106 c 2,36,-1
 657 373 l 1,37,-1
 899 1077 l 1,38,-1
 881 1122.5 l 1,39,40
 867.807228916 1152.84337349 867.807228916 1152.84337349 842 1151 c 2,41,-1
 758 1147 l 1,42,-1
 758 1223 l 1,43,-1
 1264 1223 l 1,44,-1
 1264 1147 l 1,45,-1
 1178 1151 l 2,46,47
 1162 1151 1162 1151 1156.5 1134.5 c 128,-1,48
 1151 1118 1151 1118 1157 1106 c 1,49,-1
 1444 326 l 1,50,-1
 1708 1110 l 2,51,52
 1712 1122 1712 1122 1712 1129.5 c 128,-1,53
 1712 1137 1712 1137 1704.5 1144.5 c 128,-1,54
 1697 1152 1697 1152 1686 1151 c 2,55,-1
 1579 1147 l 1,56,-1
 1579 1223 l 1,57,-1
 1907 1223 l 1,58,-1
 1907 1147 l 1,16,-1
EndSplineSet
EndChar

StartChar: Wgrave
Encoding: 7808 7808 99
Width: 1865
Flags: MW
HStem: 1151 72<55 65 404 414 842 842 1166 1178 1686 1686 1845 1845>
VStem: 1579 328<1147 1223 1147 1223>
LayerCount: 2
UndoRedoHistory
Layer: 1
Undoes
EndUndoes
Redoes
EndRedoes
EndUndoRedoHistory
Fore
SplineSet
897 1640 m 2,0,1
 887 1650 887 1650 881 1657.5 c 128,-1,2
 875 1665 875 1665 869.5 1670.5 c 0,3,4
 855.5 1684.5 855.5 1684.5 850.25 1686.25 c 128,-1,5
 845 1688 845 1688 841 1689.5 c 0,6,7
 834.333333333 1692 834.333333333 1692 810.166666667 1692 c 128,-1,8
 786 1692 786 1692 735 1664.5 c 128,-1,9
 684 1637 684 1637 684 1618 c 128,-1,10
 684 1599 684 1599 711 1579 c 1,11,-1
 1053 1370 l 1,12,13
 1080 1352 1080 1352 1102 1352 c 128,-1,14
 1124 1352 1124 1352 1124 1372 c 128,-1,15
 1124 1392 1124 1392 1092 1427 c 2,16,-1
 897 1640 l 2,0,1
1907 1147 m 1,17,-1
 1845 1151 l 2,18,19
 1809.86538462 1152.95192308 1809.86538462 1152.95192308 1794 1108 c 2,20,-1
 1415 -20 l 1,21,-1
 1321 -20 l 1,22,-1
 944 958 l 1,23,-1
 612 -20 l 1,24,-1
 512 -20 l 1,25,-1
 98 1106 l 1,26,27
 83 1151 83 1151 55 1151 c 1,28,-1
 -6 1147 l 1,29,-1
 -6 1223 l 1,30,-1
 516 1223 l 1,31,-1
 516 1147 l 1,32,-1
 414 1151 l 1,33,34
 387 1151 387 1151 387 1128 c 0,35,36
 387 1124 387 1124 393 1106 c 2,37,-1
 657 373 l 1,38,-1
 899 1077 l 1,39,-1
 881 1122.5 l 1,40,41
 867.807228916 1152.84337349 867.807228916 1152.84337349 842 1151 c 2,42,-1
 758 1147 l 1,43,-1
 758 1223 l 1,44,-1
 1264 1223 l 1,45,-1
 1264 1147 l 1,46,-1
 1178 1151 l 2,47,48
 1162 1151 1162 1151 1156.5 1134.5 c 128,-1,49
 1151 1118 1151 1118 1157 1106 c 1,50,-1
 1444 326 l 1,51,-1
 1708 1110 l 2,52,53
 1712 1122 1712 1122 1712 1129.5 c 128,-1,54
 1712 1137 1712 1137 1704.5 1144.5 c 128,-1,55
 1697 1152 1697 1152 1686 1151 c 2,56,-1
 1579 1147 l 1,57,-1
 1579 1223 l 1,58,-1
 1907 1223 l 1,59,-1
 1907 1147 l 1,17,-1
EndSplineSet
EndChar

StartChar: X
Encoding: 88 88 100
Width: 1198
Flags: MW
HStem: 0 70<750 754 754 767> 0 75 1151 72<117 128 513 529 528 532 905 905 1067 1079>
VStem: 41 340<0 78 0 78> 817 334<1147 1223>
LayerCount: 2
UndoRedoHistory
Layer: 1
Undoes
EndUndoes
Redoes
EndRedoes
EndUndoRedoHistory
Fore
SplineSet
1214 76 m 1,0,-1
 1214 0 l 1,1,-1
 649 0 l 1,2,-1
 649 76 l 1,3,-1
 750 70 l 1,4,-1
 754 70 l 2,5,6
 790 70 790 70 764 117 c 1,7,-1
 528 512 l 1,8,-1
 276 113 l 1,9,10
 270 101 270 101 270 91 c 0,11,12
 270 81 270 81 275.5 75.5 c 128,-1,13
 281 70 281 70 289 72 c 1,14,-1
 381 78 l 1,15,-1
 381 0 l 1,16,-1
 41 0 l 1,17,-1
 41 78 l 1,18,-1
 115 74 l 1,19,20
 158 74 158 74 184 119 c 1,21,-1
 485 600 l 1,22,-1
 182 1112 l 2,23,24
 159 1151 159 1151 117 1151 c 1,25,-1
 66 1147 l 1,26,-1
 66 1223 l 1,27,-1
 618 1223 l 1,28,-1
 618 1147 l 1,29,-1
 532 1151 l 1,30,-1
 528 1151 l 2,31,32
 506 1151 506 1151 499 1136.5 c 128,-1,33
 492 1122 492 1122 504 1108 c 1,34,-1
 700 762 l 1,35,-1
 922 1110 l 1,36,37
 932 1123 932 1123 932 1135 c 0,38,39
 932 1154 932 1154 905 1151 c 1,40,-1
 817 1147 l 1,41,-1
 817 1223 l 1,42,-1
 1151 1223 l 1,43,-1
 1151 1147 l 1,44,-1
 1079 1151 l 1,45,46
 1040 1151 1040 1151 1016 1110 c 1,47,-1
 745 676 l 1,48,-1
 1090 104 l 1,49,50
 1112 65 1112 65 1151 70 c 1,51,-1
 1214 76 l 1,0,-1
EndSplineSet
Position2: "'cpsp' Capital Spacing lookup 0 per glyph data 2" dx=10 dy=0 dh=20 dv=0
EndChar

StartChar: Y
Encoding: 89 89 101
Width: 1144
Flags: MW
HStem: 0 72<420 433 767 782> 1151 72<57 67 426 440 440 442 944 951 1093 1104>
VStem: 440 111<1151 1151> 459 283<117 524 524 524> 838 328<1147 1223 1147 1223>
LayerCount: 2
UndoRedoHistory
Layer: 1
Undoes
EndUndoes
Redoes
EndRedoes
EndUndoRedoHistory
Fore
SplineSet
1165 1223 m 1,0,-1
 1165 1147 l 1,1,-1
 1104 1151 l 1,2,3
 1071 1151 1071 1151 1047 1108 c 2,4,-1
 741 563 l 1,5,-1
 741 115 l 2,6,7
 741 72 741 72 782 72 c 1,8,-1
 881 76 l 1,9,-1
 881 0 l 1,10,-1
 319 0 l 1,11,-1
 319 76 l 1,12,-1
 420 72 l 1,13,14
 459 72 459 72 459 117 c 2,15,-1
 459 524 l 1,16,-1
 106 1112 l 2,17,18
 83 1151 83 1151 57 1151 c 1,19,-1
 -2 1147 l 1,20,-1
 -2 1223 l 1,21,-1
 551 1223 l 1,22,-1
 551 1147 l 1,23,-1
 442 1151 l 1,24,-1
 440 1151 l 2,25,26
 420 1151 420 1151 418 1135 c 128,-1,27
 416 1119 416 1119 428 1102 c 1,28,-1
 700 649 l 1,29,-1
 958 1110 l 1,30,31
 965 1120 965 1120 965 1130 c 0,32,33
 965 1151 965 1151 944 1151 c 2,34,-1
 838 1147 l 1,35,-1
 838 1223 l 1,36,-1
 1165 1223 l 1,0,-1
EndSplineSet
Position2: "'cpsp' Capital Spacing lookup 0 per glyph data 2" dx=10 dy=0 dh=20 dv=0
EndChar

StartChar: Yacute
Encoding: 221 221 102
Width: 1144
Flags: MW
HStem: 0 72<420 433 767 782> 1151 72<57 67 432 440 440 442 944 951 1093 1104>
VStem: 459 283<117 524 524 524> 838 328<1147 1223 1147 1223>
LayerCount: 2
UndoRedoHistory
Layer: 1
Undoes
EndUndoes
Redoes
EndRedoes
EndUndoRedoHistory
Fore
SplineSet
717 1640 m 2,0,1
 727 1650 727 1650 733 1657.5 c 128,-1,2
 739 1665 739 1665 744.5 1670.5 c 0,3,4
 758.5 1684.5 758.5 1684.5 763.75 1686.25 c 128,-1,5
 769 1688 769 1688 773 1689.5 c 0,6,7
 779.666666667 1692 779.666666667 1692 803.833333333 1692 c 128,-1,8
 828 1692 828 1692 879 1664.5 c 128,-1,9
 930 1637 930 1637 930 1618 c 128,-1,10
 930 1599 930 1599 903 1579 c 1,11,-1
 561 1370 l 1,12,13
 534 1352 534 1352 511.5 1352 c 128,-1,14
 489 1352 489 1352 489 1371.5 c 128,-1,15
 489 1391 489 1391 522 1427 c 2,16,-1
 717 1640 l 2,0,1
1165 1147 m 1,17,-1
 1104 1151 l 1,18,19
 1071 1151 1071 1151 1047 1108 c 2,20,-1
 741 563 l 1,21,-1
 741 115 l 2,22,23
 741 72 741 72 782 72 c 1,24,-1
 881 76 l 1,25,-1
 881 0 l 1,26,-1
 319 0 l 1,27,-1
 319 76 l 1,28,-1
 420 72 l 1,29,30
 459 72 459 72 459 117 c 2,31,-1
 459 524 l 1,32,-1
 106 1112 l 2,33,34
 83 1151 83 1151 57 1151 c 1,35,-1
 -2 1147 l 1,36,-1
 -2 1223 l 1,37,-1
 551 1223 l 1,38,-1
 551 1147 l 1,39,-1
 442 1151 l 1,40,-1
 440 1151 l 2,41,42
 418 1151 418 1151 418 1130 c 0,43,44
 418 1119 418 1119 428 1102 c 2,45,-1
 700 649 l 1,46,-1
 958 1110 l 1,47,48
 965 1120 965 1120 965 1130 c 0,49,50
 965 1151 965 1151 944 1151 c 2,51,-1
 838 1147 l 1,52,-1
 838 1223 l 1,53,-1
 1165 1223 l 1,54,-1
 1165 1147 l 1,17,-1
EndSplineSet
Position2: "'cpsp' Capital Spacing lookup 0 per glyph data 2" dx=10 dy=0 dh=20 dv=0
EndChar

StartChar: Ycircumflex
Encoding: 374 374 103
Width: 1144
Flags: MW
HStem: 0 72<420 433 767 782> 1151 72<57 67 432 440 440 442 944 951 1093 1104> 1524 123<557 625>
VStem: 459 283<117 524 524 524> 838 328<1147 1223 1147 1223>
LayerCount: 2
UndoRedoHistory
Layer: 1
Undoes
EndUndoes
Redoes
EndRedoes
EndUndoRedoHistory
Fore
SplineSet
788 1548 m 1,0,1
 821 1511 821 1511 863 1470 c 0,2,3
 944 1390.92857143 944 1390.92857143 944 1377.46428571 c 128,-1,4
 944 1364 944 1364 918 1364 c 128,-1,5
 892 1364 892 1364 852 1389 c 1,6,-1
 625 1524 l 1,7,-1
 395 1389 l 1,8,9
 355 1364 355 1364 330 1364 c 128,-1,10
 305 1364 305 1364 305 1380 c 0,11,12
 305 1390.92857143 305 1390.92857143 366.5 1450.96428571 c 128,-1,13
 428 1511 428 1511 461 1548 c 1,14,-1
 557 1647 l 1,15,16
 590 1683 590 1683 623 1683 c 128,-1,17
 656 1683 656 1683 692 1647 c 2,18,-1
 788 1548 l 1,0,1
1165 1147 m 1,19,-1
 1104 1151 l 1,20,21
 1071 1151 1071 1151 1047 1108 c 2,22,-1
 741 563 l 1,23,-1
 741 115 l 2,24,25
 741 72 741 72 782 72 c 1,26,-1
 881 76 l 1,27,-1
 881 0 l 1,28,-1
 319 0 l 1,29,-1
 319 76 l 1,30,-1
 420 72 l 1,31,32
 459 72 459 72 459 117 c 2,33,-1
 459 524 l 1,34,-1
 106 1112 l 2,35,36
 83 1151 83 1151 57 1151 c 1,37,-1
 -2 1147 l 1,38,-1
 -2 1223 l 1,39,-1
 551 1223 l 1,40,-1
 551 1147 l 1,41,-1
 442 1151 l 1,42,-1
 440 1151 l 2,43,44
 418 1151 418 1151 418 1130 c 0,45,46
 418 1119 418 1119 428 1102 c 2,47,-1
 700 649 l 1,48,-1
 958 1110 l 1,49,50
 965 1120 965 1120 965 1130 c 0,51,52
 965 1151 965 1151 944 1151 c 2,53,-1
 838 1147 l 1,54,-1
 838 1223 l 1,55,-1
 1165 1223 l 1,56,-1
 1165 1147 l 1,19,-1
EndSplineSet
EndChar

StartChar: Ydieresis
Encoding: 376 376 104
Width: 1144
Flags: MW
HStem: 0 72<420 433 767 782> 1151 72<57 67 432 440 440 442 944 951 1093 1104> 1395 258<364 455 364 456 794 885>
VStem: 252 315<1484 1563> 459 283<117 524 524 524> 682 315<1484 1563> 838 328<1147 1223 1147 1223>
LayerCount: 2
UndoRedoHistory
Layer: 1
Undoes
EndUndoes
Redoes
EndRedoes
EndUndoRedoHistory
Fore
SplineSet
296 1430 m 128,-1,1
 252 1465 252 1465 252 1523.5 c 128,-1,2
 252 1582 252 1582 296 1617.5 c 128,-1,3
 340 1653 340 1653 409 1653 c 128,-1,4
 478 1653 478 1653 522.5 1617.5 c 128,-1,5
 567 1582 567 1582 567 1523.5 c 128,-1,6
 567 1465 567 1465 523.5 1430 c 128,-1,7
 480 1395 480 1395 410 1395 c 128,-1,0
 340 1395 340 1395 296 1430 c 128,-1,1
726 1430 m 128,-1,9
 682 1465 682 1465 682 1523.5 c 128,-1,10
 682 1582 682 1582 726 1617.5 c 128,-1,11
 770 1653 770 1653 839 1653 c 128,-1,12
 908 1653 908 1653 952.5 1617.5 c 128,-1,13
 997 1582 997 1582 997 1523.5 c 128,-1,14
 997 1465 997 1465 953.5 1430 c 128,-1,15
 910 1395 910 1395 840 1395 c 128,-1,8
 770 1395 770 1395 726 1430 c 128,-1,9
1165 1147 m 1,16,-1
 1104 1151 l 1,17,18
 1071 1151 1071 1151 1047 1108 c 2,19,-1
 741 563 l 1,20,-1
 741 115 l 2,21,22
 741 72 741 72 782 72 c 1,23,-1
 881 76 l 1,24,-1
 881 0 l 1,25,-1
 319 0 l 1,26,-1
 319 76 l 1,27,-1
 420 72 l 1,28,29
 459 72 459 72 459 117 c 2,30,-1
 459 524 l 1,31,-1
 106 1112 l 2,32,33
 83 1151 83 1151 57 1151 c 1,34,-1
 -2 1147 l 1,35,-1
 -2 1223 l 1,36,-1
 551 1223 l 1,37,-1
 551 1147 l 1,38,-1
 442 1151 l 1,39,-1
 440 1151 l 2,40,41
 418 1151 418 1151 418 1130 c 0,42,43
 418 1119 418 1119 428 1102 c 2,44,-1
 700 649 l 1,45,-1
 958 1110 l 1,46,47
 965 1120 965 1120 965 1130 c 0,48,49
 965 1151 965 1151 944 1151 c 2,50,-1
 838 1147 l 1,51,-1
 838 1223 l 1,52,-1
 1165 1223 l 1,53,-1
 1165 1147 l 1,16,-1
EndSplineSet
Position2: "'cpsp' Capital Spacing lookup 0 per glyph data 2" dx=10 dy=0 dh=20 dv=0
EndChar

StartChar: Ygrave
Encoding: 7922 7922 105
Width: 1144
Flags: MW
HStem: 0 72<420 433 767 782> 1151 72<57 67 432 440 440 442 944 951 1093 1104>
VStem: 459 283<117 524 524 524> 838 328<1147 1223 1147 1223>
LayerCount: 2
UndoRedoHistory
Layer: 1
Undoes
EndUndoes
Redoes
EndRedoes
EndUndoRedoHistory
Fore
SplineSet
535 1640 m 2,0,1
 525 1650 525 1650 519 1657.5 c 128,-1,2
 513 1665 513 1665 507.5 1670.5 c 0,3,4
 493.5 1684.5 493.5 1684.5 488.25 1686.25 c 128,-1,5
 483 1688 483 1688 479 1689.5 c 0,6,7
 472.333333333 1692 472.333333333 1692 448.166666667 1692 c 128,-1,8
 424 1692 424 1692 373 1664.5 c 128,-1,9
 322 1637 322 1637 322 1617.5 c 128,-1,10
 322 1598 322 1598 348 1579 c 1,11,-1
 690 1370 l 1,12,13
 717 1352 717 1352 739.5 1352 c 128,-1,14
 762 1352 762 1352 762 1371.5 c 128,-1,15
 762 1391 762 1391 729 1427 c 2,16,-1
 535 1640 l 2,0,1
1165 1147 m 1,17,-1
 1104 1151 l 1,18,19
 1071 1151 1071 1151 1047 1108 c 2,20,-1
 741 563 l 1,21,-1
 741 115 l 2,22,23
 741 72 741 72 782 72 c 1,24,-1
 881 76 l 1,25,-1
 881 0 l 1,26,-1
 319 0 l 1,27,-1
 319 76 l 1,28,-1
 420 72 l 1,29,30
 459 72 459 72 459 117 c 2,31,-1
 459 524 l 1,32,-1
 106 1112 l 2,33,34
 83 1151 83 1151 57 1151 c 1,35,-1
 -2 1147 l 1,36,-1
 -2 1223 l 1,37,-1
 551 1223 l 1,38,-1
 551 1147 l 1,39,-1
 442 1151 l 1,40,-1
 440 1151 l 2,41,42
 418 1151 418 1151 418 1130 c 0,43,44
 418 1119 418 1119 428 1102 c 2,45,-1
 700 649 l 1,46,-1
 958 1110 l 1,47,48
 965 1120 965 1120 965 1130 c 0,49,50
 965 1151 965 1151 944 1151 c 2,51,-1
 838 1147 l 1,52,-1
 838 1223 l 1,53,-1
 1165 1223 l 1,54,-1
 1165 1147 l 1,17,-1
EndSplineSet
EndChar

StartChar: Z
Encoding: 90 90 106
Width: 1120
Flags: MW
HStem: 0 72<412 700 700 794> 907 315<113 1059 113 1059> 1151 72<374 471 471 717>
VStem: 113 70<907 991 907 1229> 1008 63
LayerCount: 2
UndoRedoHistory
Layer: 1
Undoes
EndUndoes
Redoes
EndRedoes
EndUndoRedoHistory
Fore
SplineSet
113 1229 m 1,0,-1
 336 1223 l 1,1,-1
 1059 1223 l 1,2,-1
 1059 1174 l 1,3,-1
 412 72 l 1,4,-1
 700 72 l 2,5,6
 841 72 841 72 924.5 144 c 128,-1,7
 1008 216 1008 216 1008 342 c 1,8,-1
 1079 342 l 1,9,-1
 1063 -8 l 1,10,11
 1039 0 1039 0 831 0 c 2,12,-1
 63 0 l 1,13,-1
 63 55 l 1,14,-1
 717 1151 l 1,15,-1
 471 1151 l 2,16,17
 324 1151 324 1151 253 1091.5 c 128,-1,18
 182 1032 182 1032 182 907 c 1,19,-1
 113 907 l 1,20,-1
 113 1229 l 1,0,-1
EndSplineSet
Position2: "'cpsp' Capital Spacing lookup 0 per glyph data 2" dx=10 dy=0 dh=20 dv=0
EndChar

StartChar: Zacute
Encoding: 377 377 107
Width: 1120
Flags: MW
HStem: 0 72<412 700 700 794> 907 315<113 1059 113 1059> 1151 72<374 471 471 717>
VStem: 113 70<907 991 907 1229> 1008 63
LayerCount: 2
UndoRedoHistory
Layer: 1
Undoes
EndUndoes
Redoes
EndRedoes
EndUndoRedoHistory
Fore
SplineSet
688 1640 m 2,0,1
 698 1650 698 1650 704 1657.5 c 128,-1,2
 710 1665 710 1665 715.5 1670.5 c 0,3,4
 729.5 1684.5 729.5 1684.5 734.75 1686.25 c 128,-1,5
 740 1688 740 1688 744 1689.5 c 0,6,7
 750.666666667 1692 750.666666667 1692 774.833333333 1692 c 128,-1,8
 799 1692 799 1692 850 1664.5 c 128,-1,9
 901 1637 901 1637 901 1618 c 128,-1,10
 901 1599 901 1599 874 1579 c 1,11,-1
 532 1370 l 1,12,13
 505 1352 505 1352 483 1352 c 128,-1,14
 461 1352 461 1352 461 1371.5 c 128,-1,15
 461 1391 461 1391 494 1427 c 2,16,-1
 688 1640 l 2,0,1
113 1229 m 1,17,-1
 336 1223 l 1,18,-1
 1059 1223 l 1,19,-1
 1059 1174 l 1,20,-1
 412 72 l 1,21,-1
 700 72 l 2,22,23
 841 72 841 72 924.5 144 c 128,-1,24
 1008 216 1008 216 1008 342 c 1,25,-1
 1079 342 l 1,26,-1
 1063 -8 l 1,27,28
 1039 0 1039 0 831 0 c 2,29,-1
 63 0 l 1,30,-1
 63 55 l 1,31,-1
 717 1151 l 1,32,-1
 471 1151 l 2,33,34
 324 1151 324 1151 253 1091.5 c 128,-1,35
 182 1032 182 1032 182 907 c 1,36,-1
 113 907 l 1,37,-1
 113 1229 l 1,17,-1
EndSplineSet
EndChar

StartChar: Zcaron
Encoding: 381 381 108
Width: 1120
Flags: MW
HStem: 0 72<412 700 700 794> 907 315<113 1059 113 1059> 1151 72<374 471 471 717> 1405 123<528 596 596 664>
VStem: 113 70<907 991 907 1229> 1008 63
LayerCount: 2
UndoRedoHistory
Layer: 1
Undoes
EndUndoes
Redoes
EndRedoes
EndUndoRedoHistory
Fore
SplineSet
432 1503 m 1,0,1
 399 1540 399 1540 357 1581 c 0,2,3
 276 1660.07142857 276 1660.07142857 276 1674.03571429 c 128,-1,4
 276 1688 276 1688 302.5 1688 c 128,-1,5
 329 1688 329 1688 369 1663 c 1,6,-1
 596 1528 l 1,7,-1
 825 1663 l 1,8,9
 865 1688 865 1688 890 1688 c 128,-1,10
 915 1688 915 1688 915 1671 c 0,11,12
 915 1659.0952381 915 1659.0952381 854 1599.54761905 c 128,-1,13
 793 1540 793 1540 760 1503 c 1,14,-1
 664 1405 l 1,15,16
 630 1368 630 1368 597.5 1368 c 128,-1,17
 565 1368 565 1368 528 1405 c 2,18,-1
 432 1503 l 1,0,1
113 1229 m 1,19,-1
 336 1223 l 1,20,-1
 1059 1223 l 1,21,-1
 1059 1174 l 1,22,-1
 412 72 l 1,23,-1
 700 72 l 2,24,25
 841 72 841 72 924.5 144 c 128,-1,26
 1008 216 1008 216 1008 342 c 1,27,-1
 1079 342 l 1,28,-1
 1063 -8 l 1,29,30
 1039 0 1039 0 831 0 c 2,31,-1
 63 0 l 1,32,-1
 63 55 l 1,33,-1
 717 1151 l 1,34,-1
 471 1151 l 2,35,36
 324 1151 324 1151 253 1091.5 c 128,-1,37
 182 1032 182 1032 182 907 c 1,38,-1
 113 907 l 1,39,-1
 113 1229 l 1,19,-1
EndSplineSet
Position2: "'cpsp' Capital Spacing lookup 0 per glyph data 2" dx=10 dy=0 dh=20 dv=0
EndChar

StartChar: Zdotaccent
Encoding: 379 379 109
Width: 1120
Flags: MW
HStem: 0 72<412 700 700 794> 907 315<113 1059 113 1059> 1151 72<374 471 471 717> 1395 258<548 639 548 640>
VStem: 113 70<907 991 907 1229> 436 315<1484 1563> 1008 63
LayerCount: 2
UndoRedoHistory
Layer: 1
Undoes
EndUndoes
Redoes
EndRedoes
EndUndoRedoHistory
Fore
SplineSet
480 1430 m 128,-1,1
 436 1465 436 1465 436 1523.5 c 128,-1,2
 436 1582 436 1582 480 1617.5 c 128,-1,3
 524 1653 524 1653 593 1653 c 128,-1,4
 662 1653 662 1653 707 1617.5 c 128,-1,5
 752 1582 752 1582 752 1523.5 c 128,-1,6
 752 1465 752 1465 708 1430 c 128,-1,7
 664 1395 664 1395 594 1395 c 128,-1,0
 524 1395 524 1395 480 1430 c 128,-1,1
113 1229 m 1,8,-1
 336 1223 l 1,9,-1
 1059 1223 l 1,10,-1
 1059 1174 l 1,11,-1
 412 72 l 1,12,-1
 700 72 l 2,13,14
 841 72 841 72 924.5 144 c 128,-1,15
 1008 216 1008 216 1008 342 c 1,16,-1
 1079 342 l 1,17,-1
 1063 -8 l 1,18,19
 1039 0 1039 0 831 0 c 2,20,-1
 63 0 l 1,21,-1
 63 55 l 1,22,-1
 717 1151 l 1,23,-1
 471 1151 l 2,24,25
 324 1151 324 1151 253 1091.5 c 128,-1,26
 182 1032 182 1032 182 907 c 1,27,-1
 113 907 l 1,28,-1
 113 1229 l 1,8,-1
EndSplineSet
EndChar

StartChar: a
Encoding: 97 97 110
Width: 956
Flags: MW
HStem: -10 121<204 447> 0 66<857 866 857 934> 442 72<476 571> 821 70<382 496>
VStem: 27 279<199 309 199 321> 80 242<640 666 618 738> 571 268<131 131 307 442 442 442 514 618>
LayerCount: 2
UndoRedoHistory
Layer: 1
Undoes
EndUndoes
Redoes
EndRedoes
EndUndoRedoHistory
Fore
SplineSet
934 70 m 1,0,-1
 934 0 l 1,1,-1
 561 0 l 1,2,3
 569 48 569 48 569 76 c 1,4,-1
 571 131 l 1,5,6
 480 -10 480 -10 289 -10 c 0,7,8
 27 -10 27 -10 27 221 c 0,9,10
 27 371 27 371 158 442.5 c 128,-1,11
 289 514 289 514 571 514 c 1,12,-1
 571 657 l 2,13,14
 571 779.310344828 571 779.310344828 507 808 c 0,15,16
 478 821 478 821 420.5 821 c 128,-1,17
 363 821 363 821 333 796 c 128,-1,18
 303 771 303 771 303 744 c 128,-1,19
 303 717 303 717 312.5 691 c 128,-1,20
 322 665 322 665 322 649 c 0,21,22
 322 605 322 605 289.5 580 c 128,-1,23
 257 555 257 555 204 555 c 128,-1,24
 151 555 151 555 115.5 588.5 c 128,-1,25
 80 622 80 622 80 674 c 0,26,27
 80 772 80 772 182 831.5 c 128,-1,28
 284 891 284 891 459 891 c 0,29,30
 840 891 840 891 840 618 c 2,31,-1
 840 104 l 2,32,33
 840 66 840 66 866 66 c 1,34,-1
 934 70 l 1,0,-1
571 442 m 1,35,36
 432 442 432 442 368.5 393 c 128,-1,37
 305 344 305 344 305 246 c 0,38,39
 305 111 305 111 406 111 c 0,40,41
 469 111 469 111 515 165 c 128,-1,42
 561 219 561 219 571 307 c 1,43,-1
 571 442 l 1,35,36
EndSplineSet
Substitution2: "Single Substitution lookup 17 subtable" ordfeminine
Substitution2: "'aalt' Access All Alternates lookup 0 subtable" ordfeminine
Position2: "Single Positioning lookup 4 subtable" dx=0 dy=0 dh=-82 dv=0
EndChar

StartChar: aacute
Encoding: 225 225 111
Width: 956
Flags: MW
HStem: -10 121<204 447> 0 66<857 866 857 934> 442 72<476 571> 821 70<382 496>
VStem: 27 279<199 309 199 321> 80 242<640 666 618 738> 571 268<91 104 104 131 131 131 307 442 442 442 514 618>
LayerCount: 2
UndoRedoHistory
Layer: 1
Undoes
EndUndoes
Redoes
EndRedoes
EndUndoRedoHistory
Fore
SplineSet
553 1296 m 2,0,1
 563 1306 563 1306 569 1313.5 c 128,-1,2
 575 1321 575 1321 580.5 1326.5 c 0,3,4
 594.5 1340.5 594.5 1340.5 599.75 1342.25 c 128,-1,5
 605 1344 605 1344 609 1345.5 c 0,6,7
 615.666666667 1348 615.666666667 1348 639.833333333 1348 c 128,-1,8
 664 1348 664 1348 715 1320.5 c 128,-1,9
 766 1293 766 1293 766 1274 c 128,-1,10
 766 1255 766 1255 739 1235 c 1,11,-1
 397 1026 l 1,12,13
 370 1008 370 1008 348 1008 c 128,-1,14
 326 1008 326 1008 326 1028 c 128,-1,15
 326 1048 326 1048 358 1083 c 2,16,-1
 553 1296 l 2,0,1
934 0 m 1,17,-1
 561 0 l 1,18,-1
 571 76 l 1,19,-1
 571 131 l 1,20,21
 480 -10 480 -10 289 -10 c 0,22,23
 27 -10 27 -10 27 221 c 0,24,25
 27 371 27 371 158 442.5 c 128,-1,26
 289 514 289 514 571 514 c 1,27,-1
 571 657 l 2,28,29
 571 779.310344828 571 779.310344828 507 808 c 0,30,31
 478 821 478 821 420.5 821 c 128,-1,32
 363 821 363 821 333 796 c 128,-1,33
 303 771 303 771 303 744 c 128,-1,34
 303 717 303 717 312.5 691 c 128,-1,35
 322 665 322 665 322 649 c 0,36,37
 322 605 322 605 289.5 580 c 128,-1,38
 257 555 257 555 204 555 c 128,-1,39
 151 555 151 555 115.5 588.5 c 128,-1,40
 80 622 80 622 80 674 c 0,41,42
 80 772 80 772 182 831.5 c 128,-1,43
 284 891 284 891 459 891 c 0,44,45
 840 891 840 891 840 618 c 2,46,-1
 840 104 l 2,47,48
 840 66 840 66 866 66 c 1,49,-1
 934 70 l 1,50,-1
 934 0 l 1,17,-1
571 442 m 1,51,52
 432 442 432 442 368.5 393 c 128,-1,53
 305 344 305 344 305 246 c 0,54,55
 305 111 305 111 406 111 c 0,56,57
 469 111 469 111 515 165 c 128,-1,58
 561 219 561 219 571 307 c 1,59,-1
 571 442 l 1,51,52
EndSplineSet
EndChar

StartChar: abreve
Encoding: 259 259 112
Width: 956
Flags: MW
HStem: -10 121<204 447> 0 66<857 866 857 934> 442 72<476 571> 821 70<382 496> 1057 133<401 518 401 544>
VStem: 27 279<199 309 199 321> 80 242<640 666 618 738> 571 268<91 104 104 131 131 131 307 442 442 442 514 618>
LayerCount: 2
UndoRedoHistory
Layer: 1
Undoes
EndUndoes
Redoes
EndRedoes
EndUndoRedoHistory
Fore
SplineSet
739 1325 m 1,0,1
 736 1205 736 1205 660 1131 c 128,-1,2
 584 1057 584 1057 461 1057 c 128,-1,3
 338 1057 338 1057 262.5 1131 c 128,-1,4
 187 1205 187 1205 184 1325 c 1,5,-1
 279 1325 l 1,6,7
 312 1190 312 1190 461 1190 c 0,8,9
 540 1190 540 1190 585.5 1229 c 128,-1,10
 631 1268 631 1268 647 1325 c 1,11,-1
 739 1325 l 1,0,1
934 0 m 1,12,-1
 561 0 l 1,13,-1
 571 76 l 1,14,-1
 571 131 l 1,15,16
 480 -10 480 -10 289 -10 c 0,17,18
 27 -10 27 -10 27 221 c 0,19,20
 27 371 27 371 158 442.5 c 128,-1,21
 289 514 289 514 571 514 c 1,22,-1
 571 657 l 2,23,24
 571 779.310344828 571 779.310344828 507 808 c 0,25,26
 478 821 478 821 420.5 821 c 128,-1,27
 363 821 363 821 333 796 c 128,-1,28
 303 771 303 771 303 744 c 128,-1,29
 303 717 303 717 312.5 691 c 128,-1,30
 322 665 322 665 322 649 c 0,31,32
 322 605 322 605 289.5 580 c 128,-1,33
 257 555 257 555 204 555 c 128,-1,34
 151 555 151 555 115.5 588.5 c 128,-1,35
 80 622 80 622 80 674 c 0,36,37
 80 772 80 772 182 831.5 c 128,-1,38
 284 891 284 891 459 891 c 0,39,40
 840 891 840 891 840 618 c 2,41,-1
 840 104 l 2,42,43
 840 66 840 66 866 66 c 1,44,-1
 934 70 l 1,45,-1
 934 0 l 1,12,-1
571 442 m 1,46,47
 432 442 432 442 368.5 393 c 128,-1,48
 305 344 305 344 305 246 c 0,49,50
 305 111 305 111 406 111 c 0,51,52
 469 111 469 111 515 165 c 128,-1,53
 561 219 561 219 571 307 c 1,54,-1
 571 442 l 1,46,47
EndSplineSet
EndChar

StartChar: acircumflex
Encoding: 226 226 113
Width: 956
Flags: MW
HStem: -10 121<204 447> 0 66<857 866 857 934> 442 72<476 571> 821 70<382 496> 1180 123<395 463>
VStem: 27 279<199 309 199 321> 80 242<640 666 618 738> 571 268<91 104 104 131 131 131 307 442 442 442 514 618>
LayerCount: 2
UndoRedoHistory
Layer: 1
Undoes
EndUndoes
Redoes
EndRedoes
EndUndoRedoHistory
Fore
SplineSet
627 1204 m 1,0,1
 660 1167 660 1167 702 1126 c 0,2,3
 782 1047.9047619 782 1047.9047619 782 1033.95238095 c 128,-1,4
 782 1020 782 1020 755 1020 c 128,-1,5
 728 1020 728 1020 690 1044 c 1,6,-1
 463 1180 l 1,7,-1
 233 1044 l 1,8,9
 195 1020 195 1020 169 1020 c 128,-1,10
 143 1020 143 1020 143 1036 c 0,11,12
 143 1046.92857143 143 1046.92857143 204.5 1106.96428571 c 128,-1,13
 266 1167 266 1167 299 1204 c 1,14,-1
 395 1303 l 1,15,16
 428 1339 428 1339 461 1339 c 128,-1,17
 494 1339 494 1339 530 1303 c 2,18,-1
 627 1204 l 1,0,1
934 0 m 1,19,-1
 561 0 l 1,20,-1
 571 76 l 1,21,-1
 571 131 l 1,22,23
 480 -10 480 -10 289 -10 c 0,24,25
 27 -10 27 -10 27 221 c 0,26,27
 27 371 27 371 158 442.5 c 128,-1,28
 289 514 289 514 571 514 c 1,29,-1
 571 657 l 2,30,31
 571 779.310344828 571 779.310344828 507 808 c 0,32,33
 478 821 478 821 420.5 821 c 128,-1,34
 363 821 363 821 333 796 c 128,-1,35
 303 771 303 771 303 744 c 128,-1,36
 303 717 303 717 312.5 691 c 128,-1,37
 322 665 322 665 322 649 c 0,38,39
 322 605 322 605 289.5 580 c 128,-1,40
 257 555 257 555 204 555 c 128,-1,41
 151 555 151 555 115.5 588.5 c 128,-1,42
 80 622 80 622 80 674 c 0,43,44
 80 772 80 772 182 831.5 c 128,-1,45
 284 891 284 891 459 891 c 0,46,47
 840 891 840 891 840 618 c 2,48,-1
 840 104 l 2,49,50
 840 66 840 66 866 66 c 1,51,-1
 934 70 l 1,52,-1
 934 0 l 1,19,-1
571 442 m 1,53,54
 432 442 432 442 368.5 393 c 128,-1,55
 305 344 305 344 305 246 c 0,56,57
 305 111 305 111 406 111 c 0,58,59
 469 111 469 111 515 165 c 128,-1,60
 561 219 561 219 571 307 c 1,61,-1
 571 442 l 1,53,54
EndSplineSet
EndChar

StartChar: adieresis
Encoding: 228 228 114
Width: 956
Flags: MW
HStem: -10 121<204 447> 0 66<857 866 857 934> 442 72<476 571> 821 70<382 496> 1100 258<200 291 200 292 632 723>
VStem: 27 279<199 309 199 321> 80 242<640 666 618 738> 88 315<1189 1268> 520 315<1189 1268> 571 268<91 104 104 131 131 131 307 442 442 442 514 618>
LayerCount: 2
UndoRedoHistory
Layer: 1
Undoes
EndUndoes
Redoes
EndRedoes
EndUndoRedoHistory
Fore
SplineSet
132 1135 m 128,-1,1
 88 1170 88 1170 88 1228.5 c 128,-1,2
 88 1287 88 1287 132 1322.5 c 128,-1,3
 176 1358 176 1358 245 1358 c 128,-1,4
 314 1358 314 1358 358.5 1322.5 c 128,-1,5
 403 1287 403 1287 403 1228.5 c 128,-1,6
 403 1170 403 1170 359.5 1135 c 128,-1,7
 316 1100 316 1100 246 1100 c 128,-1,0
 176 1100 176 1100 132 1135 c 128,-1,1
564 1135 m 128,-1,9
 520 1170 520 1170 520 1228.5 c 128,-1,10
 520 1287 520 1287 564 1322.5 c 128,-1,11
 608 1358 608 1358 677 1358 c 128,-1,12
 746 1358 746 1358 791 1322.5 c 128,-1,13
 836 1287 836 1287 836 1228.5 c 128,-1,14
 836 1170 836 1170 792 1135 c 128,-1,15
 748 1100 748 1100 678 1100 c 128,-1,8
 608 1100 608 1100 564 1135 c 128,-1,9
934 0 m 1,16,-1
 561 0 l 1,17,-1
 571 76 l 1,18,-1
 571 131 l 1,19,20
 480 -10 480 -10 289 -10 c 0,21,22
 27 -10 27 -10 27 221 c 0,23,24
 27 371 27 371 158 442.5 c 128,-1,25
 289 514 289 514 571 514 c 1,26,-1
 571 657 l 2,27,28
 571 779.310344828 571 779.310344828 507 808 c 0,29,30
 478 821 478 821 420.5 821 c 128,-1,31
 363 821 363 821 333 796 c 128,-1,32
 303 771 303 771 303 744 c 128,-1,33
 303 717 303 717 312.5 691 c 128,-1,34
 322 665 322 665 322 649 c 0,35,36
 322 605 322 605 289.5 580 c 128,-1,37
 257 555 257 555 204 555 c 128,-1,38
 151 555 151 555 115.5 588.5 c 128,-1,39
 80 622 80 622 80 674 c 0,40,41
 80 772 80 772 182 831.5 c 128,-1,42
 284 891 284 891 459 891 c 0,43,44
 840 891 840 891 840 618 c 2,45,-1
 840 104 l 2,46,47
 840 66 840 66 866 66 c 1,48,-1
 934 70 l 1,49,-1
 934 0 l 1,16,-1
571 442 m 1,50,51
 432 442 432 442 368.5 393 c 128,-1,52
 305 344 305 344 305 246 c 0,53,54
 305 111 305 111 406 111 c 0,55,56
 469 111 469 111 515 165 c 128,-1,57
 561 219 561 219 571 307 c 1,58,-1
 571 442 l 1,50,51
EndSplineSet
EndChar

StartChar: agrave
Encoding: 224 224 115
Width: 956
Flags: MW
HStem: -10 121<204 447> 0 66<857 866 857 934> 442 72<476 571> 821 70<382 496>
VStem: 27 279<199 309 199 321> 80 242<640 666 618 738> 571 268<91 104 104 131 131 131 307 442 442 442 514 618>
LayerCount: 2
UndoRedoHistory
Layer: 1
Undoes
EndUndoes
Redoes
EndRedoes
EndUndoRedoHistory
Fore
SplineSet
373 1296 m 2,0,1
 363 1306 363 1306 357 1313.5 c 128,-1,2
 351 1321 351 1321 345.5 1326.5 c 0,3,4
 331.5 1340.5 331.5 1340.5 326.25 1342.25 c 128,-1,5
 321 1344 321 1344 317 1345.5 c 0,6,7
 310.333333333 1348 310.333333333 1348 286.166666667 1348 c 128,-1,8
 262 1348 262 1348 211 1320.5 c 128,-1,9
 160 1293 160 1293 160 1273.5 c 128,-1,10
 160 1254 160 1254 186 1235 c 1,11,-1
 528 1026 l 1,12,13
 555 1008 555 1008 577.5 1008 c 128,-1,14
 600 1008 600 1008 600 1027.5 c 128,-1,15
 600 1047 600 1047 567 1083 c 2,16,-1
 373 1296 l 2,0,1
934 0 m 1,17,-1
 561 0 l 1,18,-1
 571 76 l 1,19,-1
 571 131 l 1,20,21
 480 -10 480 -10 289 -10 c 0,22,23
 27 -10 27 -10 27 221 c 0,24,25
 27 371 27 371 158 442.5 c 128,-1,26
 289 514 289 514 571 514 c 1,27,-1
 571 657 l 2,28,29
 571 779.310344828 571 779.310344828 507 808 c 0,30,31
 478 821 478 821 420.5 821 c 128,-1,32
 363 821 363 821 333 796 c 128,-1,33
 303 771 303 771 303 744 c 128,-1,34
 303 717 303 717 312.5 691 c 128,-1,35
 322 665 322 665 322 649 c 0,36,37
 322 605 322 605 289.5 580 c 128,-1,38
 257 555 257 555 204 555 c 128,-1,39
 151 555 151 555 115.5 588.5 c 128,-1,40
 80 622 80 622 80 674 c 0,41,42
 80 772 80 772 182 831.5 c 128,-1,43
 284 891 284 891 459 891 c 0,44,45
 840 891 840 891 840 618 c 2,46,-1
 840 104 l 2,47,48
 840 66 840 66 866 66 c 1,49,-1
 934 70 l 1,50,-1
 934 0 l 1,17,-1
571 442 m 1,51,52
 432 442 432 442 368.5 393 c 128,-1,53
 305 344 305 344 305 246 c 0,54,55
 305 111 305 111 406 111 c 0,56,57
 469 111 469 111 515 165 c 128,-1,58
 561 219 561 219 571 307 c 1,59,-1
 571 442 l 1,51,52
EndSplineSet
EndChar

StartChar: amacron
Encoding: 257 257 116
Width: 956
Flags: MW
HStem: -10 121<204 447> 0 66<857 866 857 934> 442 72<476 571> 821 70<382 496> 1157 96<217 707 217 707>
VStem: 27 279<199 309 199 321> 80 242<640 666 618 738> 217 489<1157 1253 1157 1253> 571 268<91 104 104 131 131 131 307 442 442 442 514 618>
LayerCount: 2
UndoRedoHistory
Layer: 1
Undoes
EndUndoes
Redoes
EndRedoes
EndUndoRedoHistory
Fore
SplineSet
217 1253 m 1,0,-1
 707 1253 l 1,1,-1
 707 1157 l 1,2,-1
 217 1157 l 1,3,-1
 217 1253 l 1,0,-1
934 0 m 1,4,-1
 561 0 l 1,5,-1
 571 76 l 1,6,-1
 571 131 l 1,7,8
 480 -10 480 -10 289 -10 c 0,9,10
 27 -10 27 -10 27 221 c 0,11,12
 27 371 27 371 158 442.5 c 128,-1,13
 289 514 289 514 571 514 c 1,14,-1
 571 657 l 2,15,16
 571 779.310344828 571 779.310344828 507 808 c 0,17,18
 478 821 478 821 420.5 821 c 128,-1,19
 363 821 363 821 333 796 c 128,-1,20
 303 771 303 771 303 744 c 128,-1,21
 303 717 303 717 312.5 691 c 128,-1,22
 322 665 322 665 322 649 c 0,23,24
 322 605 322 605 289.5 580 c 128,-1,25
 257 555 257 555 204 555 c 128,-1,26
 151 555 151 555 115.5 588.5 c 128,-1,27
 80 622 80 622 80 674 c 0,28,29
 80 772 80 772 182 831.5 c 128,-1,30
 284 891 284 891 459 891 c 0,31,32
 840 891 840 891 840 618 c 2,33,-1
 840 104 l 2,34,35
 840 66 840 66 866 66 c 1,36,-1
 934 70 l 1,37,-1
 934 0 l 1,4,-1
571 442 m 1,38,39
 432 442 432 442 368.5 393 c 128,-1,40
 305 344 305 344 305 246 c 0,41,42
 305 111 305 111 406 111 c 0,43,44
 469 111 469 111 515 165 c 128,-1,45
 561 219 561 219 571 307 c 1,46,-1
 571 442 l 1,38,39
EndSplineSet
EndChar

StartChar: aogonek
Encoding: 261 261 117
Width: 956
Flags: MW
HStem: -334 119<810 816> -10 121<204 447> 0 66<799 866 857 866 857 934> 442 72<476 571> 821 70<382 496>
VStem: 27 279<199 309 199 321> 80 242<640 666 618 738> 571 268<91 104 104 131 131 131 307 442 442 442 514 618> 606 137<-236 -96>
LayerCount: 2
UndoRedoHistory
Layer: 1
Undoes
EndUndoes
Redoes
EndRedoes
EndUndoRedoHistory
Fore
SplineSet
1014 -211 m 1,0,1
 907 -334 907 -334 772 -334 c 0,2,3
 704 -334 704 -334 655 -295 c 128,-1,4
 606 -256 606 -256 606 -186 c 0,5,6
 606 -71 606 -71 721 0 c 1,7,-1
 561 0 l 1,8,-1
 571 76 l 1,9,-1
 571 131 l 1,10,11
 480 -10 480 -10 289 -10 c 0,12,13
 27 -10 27 -10 27 221 c 0,14,15
 27 371 27 371 158 442.5 c 128,-1,16
 289 514 289 514 571 514 c 1,17,-1
 571 657 l 2,18,19
 571 779.310344828 571 779.310344828 507 808 c 0,20,21
 478 821 478 821 420.5 821 c 128,-1,22
 363 821 363 821 333 796 c 128,-1,23
 303 771 303 771 303 744 c 128,-1,24
 303 717 303 717 312.5 691 c 128,-1,25
 322 665 322 665 322 649 c 0,26,27
 322 605 322 605 289.5 580 c 128,-1,28
 257 555 257 555 204 555 c 128,-1,29
 151 555 151 555 115.5 588.5 c 128,-1,30
 80 622 80 622 80 674 c 0,31,32
 80 772 80 772 182 831.5 c 128,-1,33
 284 891 284 891 459 891 c 0,34,35
 840 891 840 891 840 618 c 2,36,-1
 840 104 l 2,37,38
 840 66 840 66 866 66 c 1,39,-1
 934 70 l 1,40,-1
 934 0 l 1,41,-1
 799 0 l 1,42,43
 743 -46 743 -46 743 -121 c 0,44,45
 743 -162 743 -162 769 -188.5 c 128,-1,46
 795 -215 795 -215 856 -215 c 128,-1,47
 917 -215 917 -215 989 -172 c 1,48,-1
 1014 -211 l 1,0,1
571 442 m 1,49,50
 432 442 432 442 368.5 393 c 128,-1,51
 305 344 305 344 305 246 c 0,52,53
 305 111 305 111 406 111 c 0,54,55
 469 111 469 111 515 165 c 128,-1,56
 561 219 561 219 571 307 c 1,57,-1
 571 442 l 1,49,50
EndSplineSet
EndChar

StartChar: aring
Encoding: 229 229 118
Width: 956
Flags: MW
HStem: -10 121<204 447> 0 66<857 866 857 934> 442 72<476 571> 821 70<382 496> 1018 84<437 484 437 513> 1272 86<437 484>
VStem: 27 279<199 309 199 321> 80 242<640 666 618 738> 283 102<1161 1213 1161 1236> 539 102<1161 1213> 571 268<91 104 104 131 131 131 307 442 442 442 514 618>
LayerCount: 2
UndoRedoHistory
Layer: 1
Undoes
EndUndoes
Redoes
EndRedoes
EndUndoRedoHistory
Fore
SplineSet
333.5 1066.5 m 128,-1,1
 283 1115 283 1115 283 1187.5 c 128,-1,2
 283 1260 283 1260 334.5 1309 c 128,-1,3
 386 1358 386 1358 462.5 1358 c 128,-1,4
 539 1358 539 1358 590 1310 c 128,-1,5
 641 1262 641 1262 641 1188 c 128,-1,6
 641 1114 641 1114 590 1066 c 128,-1,7
 539 1018 539 1018 461.5 1018 c 128,-1,0
 384 1018 384 1018 333.5 1066.5 c 128,-1,1
405.5 1249 m 128,-1,9
 385 1226 385 1226 385 1187 c 128,-1,10
 385 1148 385 1148 405.5 1125 c 128,-1,11
 426 1102 426 1102 461 1102 c 128,-1,12
 496 1102 496 1102 517.5 1125 c 128,-1,13
 539 1148 539 1148 539 1187 c 128,-1,14
 539 1226 539 1226 517.5 1249 c 128,-1,15
 496 1272 496 1272 461 1272 c 128,-1,8
 426 1272 426 1272 405.5 1249 c 128,-1,9
934 0 m 1,16,-1
 561 0 l 1,17,-1
 571 76 l 1,18,-1
 571 131 l 1,19,20
 480 -10 480 -10 289 -10 c 0,21,22
 27 -10 27 -10 27 221 c 0,23,24
 27 371 27 371 158 442.5 c 128,-1,25
 289 514 289 514 571 514 c 1,26,-1
 571 657 l 2,27,28
 571 779.310344828 571 779.310344828 507 808 c 0,29,30
 478 821 478 821 420.5 821 c 128,-1,31
 363 821 363 821 333 796 c 128,-1,32
 303 771 303 771 303 744 c 128,-1,33
 303 717 303 717 312.5 691 c 128,-1,34
 322 665 322 665 322 649 c 0,35,36
 322 605 322 605 289.5 580 c 128,-1,37
 257 555 257 555 204 555 c 128,-1,38
 151 555 151 555 115.5 588.5 c 128,-1,39
 80 622 80 622 80 674 c 0,40,41
 80 772 80 772 182 831.5 c 128,-1,42
 284 891 284 891 459 891 c 0,43,44
 840 891 840 891 840 618 c 2,45,-1
 840 104 l 2,46,47
 840 66 840 66 866 66 c 1,48,-1
 934 70 l 1,49,-1
 934 0 l 1,16,-1
571 442 m 1,50,51
 432 442 432 442 368.5 393 c 128,-1,52
 305 344 305 344 305 246 c 0,53,54
 305 111 305 111 406 111 c 0,55,56
 469 111 469 111 515 165 c 128,-1,57
 561 219 561 219 571 307 c 1,58,-1
 571 442 l 1,50,51
EndSplineSet
EndChar

StartChar: atilde
Encoding: 227 227 119
Width: 956
Flags: MW
HStem: -10 121<204 447> 0 66<857 866 857 934> 442 72<476 571> 821 70<382 496> 1085 125<594 652 594 671> 1167 123<275 334>
VStem: 27 279<199 309 199 321> 80 242<640 666 618 738> 170 57<1087 1112 1087 1146> 571 268<91 104 104 131 131 131 307 442 442 442 514 618> 700 55<1265 1288>
LayerCount: 2
UndoRedoHistory
Layer: 1
Undoes
EndUndoes
Redoes
EndRedoes
EndUndoRedoHistory
Fore
SplineSet
170 1087 m 1,0,1
 170 1179 170 1179 203 1234.5 c 128,-1,2
 236 1290 236 1290 294 1290 c 128,-1,3
 352 1290 352 1290 474 1250 c 128,-1,4
 596 1210 596 1210 629 1210 c 128,-1,5
 662 1210 662 1210 681 1231.5 c 128,-1,6
 700 1253 700 1253 700 1288 c 1,7,-1
 756 1288 l 1,8,9
 756 1195 756 1195 723.5 1140 c 128,-1,10
 691 1085 691 1085 631.5 1085 c 128,-1,11
 572 1085 572 1085 451.5 1126 c 128,-1,12
 331 1167 331 1167 298 1167 c 128,-1,13
 265 1167 265 1167 246 1145 c 128,-1,14
 227 1123 227 1123 227 1087 c 1,15,-1
 170 1087 l 1,0,1
934 0 m 1,16,-1
 561 0 l 1,17,-1
 571 76 l 1,18,-1
 571 131 l 1,19,20
 480 -10 480 -10 289 -10 c 0,21,22
 27 -10 27 -10 27 221 c 0,23,24
 27 371 27 371 158 442.5 c 128,-1,25
 289 514 289 514 571 514 c 1,26,-1
 571 657 l 2,27,28
 571 779.310344828 571 779.310344828 507 808 c 0,29,30
 478 821 478 821 420.5 821 c 128,-1,31
 363 821 363 821 333 796 c 128,-1,32
 303 771 303 771 303 744 c 128,-1,33
 303 717 303 717 312.5 691 c 128,-1,34
 322 665 322 665 322 649 c 0,35,36
 322 605 322 605 289.5 580 c 128,-1,37
 257 555 257 555 204 555 c 128,-1,38
 151 555 151 555 115.5 588.5 c 128,-1,39
 80 622 80 622 80 674 c 0,40,41
 80 772 80 772 182 831.5 c 128,-1,42
 284 891 284 891 459 891 c 0,43,44
 840 891 840 891 840 618 c 2,45,-1
 840 104 l 2,46,47
 840 66 840 66 866 66 c 1,48,-1
 934 70 l 1,49,-1
 934 0 l 1,16,-1
571 442 m 1,50,51
 432 442 432 442 368.5 393 c 128,-1,52
 305 344 305 344 305 246 c 0,53,54
 305 111 305 111 406 111 c 0,55,56
 469 111 469 111 515 165 c 128,-1,57
 561 219 561 219 571 307 c 1,58,-1
 571 442 l 1,50,51
EndSplineSet
EndChar

StartChar: ae
Encoding: 230 230 120
Width: 1472
Flags: MW
HStem: -20 84<1013 1126> -10 119<212 449> 430 66<840 1122 1122 1134> 821 70<382 496 964 1069>
VStem: 27 279<189 295 189 315> 80 242<640 666 618 738> 571 268<319 426 426 426 496 590 313 657 313 699> 1157 274<538 595 430 643>
LayerCount: 2
UndoRedoHistory
Layer: 1
Undoes
EndUndoes
Redoes
EndRedoes
EndUndoRedoHistory
Fore
SplineSet
571 657 m 2,0,1
 571 779.310344828 571 779.310344828 507 808 c 0,2,3
 478 821 478 821 420.5 821 c 128,-1,4
 363 821 363 821 333 796 c 128,-1,5
 303 771 303 771 303 744 c 128,-1,6
 303 717 303 717 312.5 691 c 128,-1,7
 322 665 322 665 322 649 c 0,8,9
 322 605 322 605 289.5 580 c 128,-1,10
 257 555 257 555 204 555 c 128,-1,11
 151 555 151 555 115.5 588.5 c 128,-1,12
 80 622 80 622 80 674 c 0,13,14
 80 772 80 772 182 831.5 c 128,-1,15
 284 891 284 891 464.5 891 c 128,-1,16
 645 891 645 891 737 825 c 1,17,18
 844 891 844 891 1035 891 c 0,19,20
 1432 891 1432 891 1432 430 c 1,21,-1
 840 430 l 1,22,23
 840 253 840 253 905.5 158 c 128,-1,24
 971 63 971 63 1100 63 c 0,25,26
 1192 63 1192 63 1264 111.5 c 128,-1,27
 1336 160 1336 160 1370 229 c 1,28,-1
 1425 190 l 1,29,30
 1377 89 1377 89 1275.5 34.5 c 128,-1,31
 1174 -20 1174 -20 1030 -20 c 0,32,33
 721 -20 721 -20 616 158 c 1,34,35
 514 -10 514 -10 297 -10 c 0,36,37
 167 -10 167 -10 97 47 c 128,-1,38
 27 104 27 104 27 217 c 0,39,40
 27 364 27 364 157.5 430 c 128,-1,41
 288 496 288 496 571 496 c 1,42,-1
 571 657 l 2,0,1
1122 496 m 2,43,44
 1157 496 1157 496 1157 561 c 0,45,46
 1157 690 1157 690 1124.5 755.5 c 128,-1,47
 1092 821 1092 821 1008.5 821 c 128,-1,48
 925 821 925 821 882.5 733.5 c 128,-1,49
 840 646 840 646 840 496 c 1,50,-1
 1122 496 l 2,43,44
571 426 m 1,51,52
 305 426 305 426 305 233 c 0,53,54
 305 109 305 109 408 109 c 0,55,56
 470 109 470 109 517 168 c 128,-1,57
 564 227 564 227 571 319 c 1,58,-1
 571 426 l 1,51,52
EndSplineSet
EndChar

StartChar: b
Encoding: 98 98 121
Width: 1052
Flags: MW
HStem: -20 94<565 639 514 765> 799 92<595 646> 1434 61<102 113>
VStem: 129 268<729 1393 1393 1402> 733 287<298 549>
LayerCount: 2
UndoRedoHistory
Layer: 1
Undoes
EndUndoes
Redoes
EndRedoes
EndUndoRedoHistory
Fore
SplineSet
344 125 m 0,0,1
 270 125 270 125 270 -10 c 1,2,-1
 129 -10 l 1,3,-1
 129 1393 l 2,4,5
 129 1434 129 1434 102 1434 c 1,6,-1
 35 1430 l 1,7,-1
 35 1495 l 1,8,-1
 397 1495 l 1,9,-1
 397 729 l 1,10,11
 425 803 425 803 494.5 847 c 128,-1,12
 564 891 564 891 659 891 c 0,13,14
 1020 891 1020 891 1020 432 c 0,15,16
 1020 208 1020 208 923.5 94 c 128,-1,17
 827 -20 827 -20 645 -20 c 0,18,19
 500 -20 500 -20 421.5 58.5 c 0,20,21
 404 76 404 76 385 100.5 c 128,-1,22
 366 125 366 125 344 125 c 0,0,1
401 381 m 2,23,24
 401 74 401 74 582 74 c 0,25,26
 668 74 668 74 700.5 152 c 128,-1,27
 733 230 733 230 733 377.5 c 128,-1,28
 733 525 733 525 727 588.5 c 128,-1,29
 721 652 721 652 705 702 c 0,30,31
 673.96 799 673.96 799 585.48 799 c 128,-1,32
 497 799 497 799 449 709.5 c 128,-1,33
 401 620 401 620 401 469 c 2,34,-1
 401 381 l 2,23,24
EndSplineSet
Position2: "Single Positioning lookup 4 subtable" dx=0 dy=0 dh=-82 dv=0
EndChar

StartChar: c
Encoding: 99 99 122
Width: 899
Flags: MW
HStem: -20 76<486 589> 821 70<456 543>
VStem: 41 283<299 586> 635 223<711 736 643 761>
LayerCount: 2
UndoRedoHistory
Layer: 1
Undoes
EndUndoes
Redoes
EndRedoes
EndUndoRedoHistory
Fore
SplineSet
872 221 m 1,0,1
 786 -20 786 -20 502 -20 c 0,2,3
 308.106796117 -20 308.106796117 -20 180 81.5 c 0,4,5
 41 191.630769231 41 191.630769231 41 428 c 0,6,7
 41 659.28 41 659.28 173.5 778 c 0,8,9
 299.616071429 891 299.616071429 891 500 891 c 0,10,11
 657 891 657 891 757.5 829.5 c 128,-1,12
 858 768 858 768 858 676 c 0,13,14
 858 623 858 623 824.5 586 c 128,-1,15
 791 549 791 549 736 549 c 128,-1,16
 681 549 681 549 648.5 573 c 128,-1,17
 616 597 616 597 616 627.5 c 128,-1,18
 616 658 616 658 625.5 684 c 128,-1,19
 635 710 635 710 635 729 c 0,20,21
 635 774 635 774 599 797.5 c 128,-1,22
 563 821 563 821 510 821 c 0,23,24
 421 821 421 821 372.5 738.5 c 128,-1,25
 324 656 324 656 324 457 c 0,26,27
 324 139.658227848 324 139.658227848 460.5 74 c 0,28,29
 500 55 500 55 551 55 c 0,30,31
 739 55 739 55 809 252 c 1,32,-1
 872 221 l 1,0,1
EndSplineSet
Position2: "Single Positioning lookup 4 subtable" dx=0 dy=0 dh=-82 dv=0
EndChar

StartChar: cacute
Encoding: 263 263 123
Width: 899
Flags: MW
HStem: -20 76<486 589> 821 70<456 543>
VStem: 41 283<299 586> 635 223<711 736 643 761>
LayerCount: 2
UndoRedoHistory
Layer: 1
Undoes
EndUndoes
Redoes
EndRedoes
EndUndoRedoHistory
Fore
SplineSet
551 1296 m 2,0,1
 561 1306 561 1306 567 1313.5 c 128,-1,2
 573 1321 573 1321 578.5 1326.5 c 0,3,4
 592.5 1340.5 592.5 1340.5 597.75 1342.25 c 128,-1,5
 603 1344 603 1344 607 1345.5 c 0,6,7
 613.666666667 1348 613.666666667 1348 637.833333333 1348 c 128,-1,8
 662 1348 662 1348 713 1320.5 c 128,-1,9
 764 1293 764 1293 764 1274 c 128,-1,10
 764 1255 764 1255 737 1235 c 1,11,-1
 395 1026 l 1,12,13
 368 1008 368 1008 346 1008 c 128,-1,14
 324 1008 324 1008 324 1028 c 128,-1,15
 324 1048 324 1048 356 1083 c 2,16,-1
 551 1296 l 2,0,1
872 221 m 1,17,18
 786 -20 786 -20 502 -20 c 0,19,20
 308.106796117 -20 308.106796117 -20 180 81.5 c 0,21,22
 41 191.630769231 41 191.630769231 41 428 c 0,23,24
 41 659.28 41 659.28 173.5 778 c 0,25,26
 299.616071429 891 299.616071429 891 500 891 c 0,27,28
 657 891 657 891 757.5 829.5 c 128,-1,29
 858 768 858 768 858 676 c 0,30,31
 858 623 858 623 824.5 586 c 128,-1,32
 791 549 791 549 736 549 c 128,-1,33
 681 549 681 549 648.5 573 c 128,-1,34
 616 597 616 597 616 627.5 c 128,-1,35
 616 658 616 658 625.5 684 c 128,-1,36
 635 710 635 710 635 729 c 0,37,38
 635 774 635 774 599 797.5 c 128,-1,39
 563 821 563 821 510 821 c 0,40,41
 421 821 421 821 372.5 738.5 c 128,-1,42
 324 656 324 656 324 457 c 0,43,44
 324 139.658227848 324 139.658227848 460.5 74 c 0,45,46
 500 55 500 55 551 55 c 0,47,48
 739 55 739 55 809 252 c 1,49,-1
 872 221 l 1,17,18
EndSplineSet
EndChar

